<?xml version="1.0" encoding="UTF-8"?>
<svg id="Layer_1" data-name="Layer 1" xmlns="http://www.w3.org/2000/svg" viewBox="0 0 612 612">
  <defs>
    <style>
      .cls-1 {
        fill: #010101;
      }

      .cls-1, .cls-2 {
        stroke-width: 0px;
      }
    </style>
  </defs>
  <path class="cls-1" d="m580.7,580.72H31.3V31.28h549.4v549.44Zm-546.4-3.01h543.4V34.29H34.3v543.43Z"/>
  <g>
    <path class="cls-2" d="m170.24,331.55c-9.3-4.88-14.7-11.92-14.7-22.39,0-15.62,15.19-27.17,30.27-22.81,2.91.84,3.72.1,4.85-2.4,9.22-20.31,22.89-36.97,41.47-49.45,3.01-2.02,6.14-3.9,9.4-5.48,2.06-1,2.81-2.38,3.13-4.48,1.58-10.32,5.98-19.37,12.76-27.23,9.66-11.2,22.3-16.28,36.73-16.04,30.25.51,54.06,13.61,71.16,38.53,4.91,7.15,8.12,15.15,8.54,24.05.3,6.49-1.51,12.35-5.37,17.48-1.31,1.74-1.18,2.91-.16,4.63,3.14,5.27,5.35,10.99,7.77,16.61,2.13,4.96,4.94,5.54,8.67,1.64,3.46-3.63,5.8-8.07,8.45-12.29,2.6-4.13,5.08-8.35,7.97-12.26,6-8.15,13.88-8.82,21.28-1.87,7.31,6.87,10.98,15.8,13.21,25.29,4.53,19.3,3.35,38.31-3.91,56.84-1.84,4.69-4.47,8.9-8.3,12.26-5.6,4.92-11.63,5.17-17.5.56-3.51-2.75-6.82-5.76-10.3-8.56-2.69-2.17-5.66-3.74-9.14-4.43-6.36-1.26-7.24-.78-10.47,4.78-1.63,2.8-1.08,3.7,1.9,4.53,2.76.77,5.4,2.14,7.93,3.54,9.26,5.1,13.15,12.81,11.65,23.32-1.22,8.5-5,15.8-11.32,21.63-9.56,8.81-21.99,9.04-32.27.79-3.35-2.68-6.2-5.84-8.7-9.3-1.23-1.71-2.19-1.95-3.96-.63-5.16,3.86-10.76,7.06-16.51,9.94-1.86.93-1.95,1.54-.96,3.34,6.99,12.72.61,29.05-12.7,32.57-5.23,1.38-10.31.5-15.12-1.84-8.37-4.08-14.22-10.71-18.33-18.86-1.46-2.9-3.18-4.33-6.39-3.79-.3.05-.62-.01-.93-.02-4.03-.16-3.96-.16-3.46,3.75.75,5.87-.46,11.38-3.53,16.41-3.73,6.11-9.4,8.23-16.34,6.22-7.94-2.3-13.35-7.77-17.69-14.44-4.63-7.11-7.72-14.89-9.52-23.17-.38-1.75-1.17-2.84-2.83-3.7-12.3-6.38-23.2-14.55-31.69-25.65-1.08-1.41-2.58-2-4.06-2.75-8.62-4.35-13.9-11.39-16.01-20.68-1.25-5.5.82-10.2,5.04-14.15Zm17.12,36.67c11.88,12.39,25.5,21.47,40.88,28,1.39.59,2.44.14,3.52-.39,4.83-2.33,8.95-5.64,12.58-9.54,15.41-16.59,22.09-36.6,23.47-58.85,1.31-20.96-1.38-41.42-6.93-61.55-3.25-11.79-8.39-22.53-18.44-30.28-1.84-1.42-3.17-1.6-5.18-.33-10.8,6.85-20.26,15.2-28.22,25.18-14.11,17.71-22.3,37.96-25.37,60.32-.73,5.34-2.99,9.16-8.17,11.49-6.27,2.82-8.45,8.84-6.21,15.37,1.65,4.82,4.43,8.89,8.31,12.2,4.77,4.08,10.19,5.95,16.45,4.49,10.89-2.54,19.29-8.83,25.97-17.59.73-.96,1.22-2.2,1.51-3.38.71-2.97-1.27-4.83-4.25-4.24-.76.15-1.36.98-2.53.44,1.38-2.03,3.18-2.64,5.36-2.17,2.04.44,3.21,1.81,3.55,3.85.61,3.67-.79,6.79-3.04,9.48-8.57,10.22-18.83,17.39-33.27,17.5Zm55.3-135.62c12.32,7.56,17.61,19.36,21.42,32.1,2.06,6.86,3.4,13.88,4.68,20.92,3.8,20.76,4.14,41.58-.47,62.17-4.71,21.05-15.45,38.46-33.71,50.77.25.13.68.41,1.15.57,11.35,3.86,22.98,6.19,34.97,6.97,3.85.25,6.04-.94,7.92-4.23,6.95-12.19,11.05-25.41,14.72-38.83.84-3.07.34-4.67-2.58-6.39-5.84-3.42-11.05-7.76-15.15-13.29,3.33,1.9,6.47,4.03,9.6,6.19,7.99,5.49,16.33,10.23,25.86,12.59,10.24,2.53,19.81,2.05,27.81-5.85,11.88-11.73,13.2-33.81,2.91-46.99-4.9-6.28-10.69-9.08-18.98-7.12-12.12,2.85-23.97,6.59-35.92,10.01-1.1.31-2.17.74-3.29.91-1.1.17-2.15,1.02-3.78.4,5.61-3.36,11.23-5.7,17.06-7.52,1.78-.55,2.28-1.36,1.94-3.13-.49-2.54-.75-5.13-1.13-7.69-2.34-15.69-4.64-31.38-9.91-46.44-3.11-8.88-7.12-17.23-13.61-24.23-1.51-1.62-3.07-2.14-5.24-1.63-9.03,2.1-17.72,5.06-26.27,9.77Zm69.46-8.68c2.73,5.96,5.07,11.58,6.85,17.4,5.4,17.62,8.22,35.72,9.99,54.01.11,1.16-.28,2.62,1.66,2.77,5.51.43,9.36,3.77,12.69,7.68,9.49,11.12,10.68,23.93,6.94,37.47-4.1,14.84-14.66,23.11-29.72,23.5-1.86.05-2.13.89-2.49,2.32-2.65,10.47-5.96,20.7-10.89,30.36-.29.57-1.02,1.12-.45,2.1,13.91-4.26,26.66-10.65,37.69-20.29.79-.69,1.43-1.46,1.79-2.49,5.5-16.06,9.32-32.5,10-49.49.99-24.74-2-49.06-8.68-72.91-4.76-16.99-7.55-20.32-23.44-28.04-3.71-1.8-7.55-3.2-11.94-4.39Zm101.93,36.13c.33,1.44-.29,2.23-.72,3-5.9,10.39-13.39,19.27-24.31,24.68-2.48,1.23-.85,2.4-.5,3.68.5,1.87,1.48,1.11,2.53.5,9.78-5.69,19.48-11.51,28.4-18.52,1.06-.84,2.21-1.57,3.32-2.35-.06.88-.42,1.36-.82,1.8-8.29,9.2-18.39,15.81-29.87,20.24-2.8,1.08-1.95,2.41-1.51,4.22.62,2.57,2.08.93,3.05.61,10.79-3.52,20.99-8.34,30.8-14.02,1.65-.95,3.23-2.14,5.49-2.48-1.6,2.08-3.48,3.39-5.32,4.71-9.31,6.65-19.53,11.33-30.68,13.88-1.45.33-2.32.52-2.21,2.5.18,3.22,1.99,2.76,4.02,2.34,10.86-2.26,21.66-4.75,32.23-8.18,1.26-.41,2.53-1.12,4.52-.72-1.35.76-2.22,1.29-3.12,1.75-10.7,5.44-22.2,7.93-34.02,9.21-1.41.15-3.1-.24-2.69,2.18.3,1.76-.07,3.58,2.93,3.48,8.72-.31,17.45-.28,26.17-.37,2.11-.02,4.24-.19,7.12.68-2.02.43-3.21.75-4.42.94-9.29,1.48-18.6,1.51-27.95.72-1.29-.11-3.5-1.31-3.53,1.79-.02,2.18-.24,3.81,2.9,4.03,8.1.57,16.02,2.21,23.59,5.24,3.2,1.28,6.41,2.59,8.8,5.29-10.61-3.63-21.35-6.65-32.4-8.48-1.16-.19-2.69-1.72-3.43.85-.74,2.52.39,3.15,2.54,3.71,7.47,1.96,14.5,5,21.01,9.16,2.37,1.51,4.7,3.06,6.31,5.48-9.24-4.75-18.64-9.08-28.15-13.15-1.01-.43-2.65-1.97-2.92.62-.17,1.67-3.11,3.83.79,5.06,9.03,2.84,16.38,8.36,23.04,14.9.33.32.83.64.42,1.43-3.05-.86-5.32-3.03-7.85-4.74-5.16-3.47-10.17-7.21-15.87-9.79-.76-.34-1.92-1.69-2.57-.14-.55,1.31,1.09,1.24,1.78,1.55,2.38,1.07,4.67,2.29,6.7,3.91,3.33,2.65,6.5,5.5,9.82,8.16,4.8,3.85,8.67,3.84,13.49,0,3.68-2.93,6.04-6.86,7.66-11.17,6.79-18.07,8.29-36.53,3.35-55.29-2.13-8.07-5.16-15.84-11.15-21.96-6.03-6.17-12.09-5.97-16.99.98-5.34,7.58-10.07,15.59-15.07,23.42,10-6.78,17.75-15.73,25.31-25.36Zm-138.43-38.28c9.53,10.01,14.54,21.84,18.04,34.44,4.1,14.72,6.24,29.81,8.16,44.93.36,2.85,1.31,2.76,3.48,2.06,5.73-1.84,11.57-3.33,17.51-4.22,2.86-.43,3.33-1.56,2.96-4.04-1.11-7.49-2-15-3.14-22.49-2.43-16.04-6.41-31.67-12.66-46.68-.72-1.74-1.59-2.76-3.69-3.15-9.98-1.84-19.98-2.14-30.66-.85Zm71.09,22.26c14.49,43.19,18.27,86.31,4.45,130.32.62-.33.94-.41,1.13-.61,6.88-7.43,12.55-15.71,17.51-24.52.43-.76.52-1.54.55-2.38,1.01-23.82-.04-47.44-4.54-70.97-2.52-13.17-10.36-22.39-19.1-31.84Zm36.77,146.42c-1.75.33-2.8-.11-3.86-.45-7.55-2.4-14.64-5.81-21.34-10.02-4.57-2.87-4.54-2.91-8.24,1.57,7.1,5.47,14.99,9.75,22.71,14.83-1.59.56-2.48-.19-3.39-.55-7.12-2.78-13.56-6.7-19.32-11.73-.74-.65-1.4-1.59-2.6-.5-1.13,1.02-.55,1.74.1,2.64,2.58,3.54,5.43,6.83,8.9,9.53,8.4,6.54,18.48,6.56,26.28-.06,6.71-5.7,10.49-13.05,11.5-21.75.54-4.67-.36-9.11-3.44-12.88-.7-.86-1.33-1.76-2.74-1.73-5.82.14-11.61-.4-17.37-1.22-1.01-.14-1.8.01-2.41.93-1.06,1.61-2.18,3.18-3.31,4.82,8.31,2.9,16.72,3.98,25,5.67-5.5.79-10.93.57-16.31-.62-2.84-.63-5.61-1.46-8.3-2.58-2.87-1.2-3.36,1.58-4.23,2.98-.98,1.6,1.11,1.5,1.91,1.89,7.11,3.46,14.68,5.67,22.21,7.99.98.3,2.19.3,2.87,1.41-.95.56-1.77.24-2.57.17-8.75-.73-16.74-3.78-24.34-7.97-1.63-.9-2.76-1.03-3.81.67-.48.78-1.12,1.46-1.79,2.33,9.17,5,18.63,9.12,27.9,14.63Zm-104.36,15.59c7.55-.01,14.55-1,21.45-2.87,1.12-.3,1.69-1.06,2.19-2.01,5.4-10.44,9.18-21.46,11.96-32.86.32-1.33.4-1.96-1.29-2.29-4.99-.96-9.81-2.54-14.39-4.77-1.36-.66-1.85-.52-2.25,1.05-3.84,15.26-8.27,30.29-17.67,43.76Zm94.57-65.36c2.62-3.29,5.17-5.63,8.77-4.97,3.58.66,4.45-1.28,5.12-4.02,3.27-13.5,2.35-26.72-2.51-39.7-.35-.93-.63-1.52-1.92-1.49-6.34.15-8.24-1.22-10.7-7.15-.82-1.97-1.31-4.12-3.21-6.57,4.36,21.38,5.62,42.16,4.45,63.89Zm-58.74,83.62c-.19.02-.39.09-.58.06-9.64-1.36-17.15-6.41-23.41-13.58-.99-1.13-1.84-2.28-3.69-1.3,3.98,7.14,10.35,12.32,15.32,18.61-6.51-3.66-11.77-8.54-15.64-14.89-2.52-4.14-2.7-4.16-7.73-2.99,3.31,5.71,6.9,11.15,12.21,15.17,4.8,3.64,10.09,6.45,16.31,5.89,13.91-1.26,19.16-18.86,12.55-28.9-.63-.95-1.15-1.54-2.49-.98-3.3,1.37-6.69,2.54-10.46,3.96,3.44,2.25,7.33,2.32,11.02,4.41-4.65.14-8.53-.54-12.07-2.34-2.41-1.22-4.37-.74-6.81.43,5.51,4.18,11.42,6.84,17.39,9.39-6.99-.11-12.04-1.89-17.31-6.95-2.47-2.37-4.68-2.07-7.96-1.33,7.26,6.62,14.85,11.63,23.35,15.34Zm-84.53-22.94c3.92,9.64,9.77,17.61,16.45,25.11-1.3-.42-2.34-1.06-3.31-1.79-7.33-5.49-11.77-13.04-14.68-21.5-1.04-3.02-2.73-4.59-6.17-5.17,3.92,11.98,8.14,23.46,18.46,31.41,1.81,1.39,3.89,2.4,6.05,3.13,5.97,2.02,10.66.18,13.6-5.35,2.69-5.05,3.08-10.47,2.37-16.04-.15-1.2-.57-2.07-2.04-2.29-4.28-.62-8.54-1.38-13.1-2.14,2.94,4.1,6.96,6.77,10.16,10.25-4.97-1.73-8.91-4.81-12.15-8.83-2.4-2.98-4.06-3.8-8.3-3.89,4.32,7.55,9.88,13.93,16.72,19.22-8.67-3.18-14.59-9.26-18.09-17.59-1.16-2.75-2.71-4.16-5.99-4.53Zm134.2-141.2c2.27-2.34,3.68-4.98,4.54-7.85,2.95-9.91-.33-18.75-4.88-27.33-.84-1.58-1.69-.57-2.42.09-3.63,3.24-7.31,6.44-10.84,9.8-4.09,3.9-3.91,3.86-.11,8.07,1.65,1.83,2.67,1.78,4.44.23,3.31-2.91,7.07-5.19,11.3-6.57-3.59,2.97-7.32,5.72-11.06,8.44-.92.67-1.6,1.2-.54,2.41,3.46,3.98,6.55,8.26,9.57,12.72Zm-77.23-74.82c-2.74.6-4.92,1.15-7.12,1.55-3.29.6-5.4,2.42-7.02,5.38-3.4,6.19-6.24,12.59-8.6,19.23-1.06,2.97-2.47,5.84-3.05,9.36,2.47-.58,4.62-1.29,6.82-1.55,2.01-.24,2.73-1.25,3.19-3.06,1.39-5.53,3.47-10.81,6.06-15.9,2.64-5.17,5.91-9.93,9.72-15.01Zm33.86,4.26c-3.08-.89-5.56-1.56-8.01-2.32-1.39-.43-2.27,0-3.16,1.13-5.78,7.35-11.09,14.99-14.79,23.63-2.24,5.23-2.21,5.15,3.33,5.72,2.09.22,3.07-.32,3.88-2.35,2.25-5.58,5.23-10.79,8.91-15.58,2.78-3.62,6.13-6.69,9.84-10.24Zm-145.91,138.14c-1.06-.33-1.96-.58-2.83-.89-7.7-2.76-11.89-10.91-9.71-18.86,2.09-7.62,9.96-12.32,17.96-10.73q4.3.86,5.79-3.23c.14-.39.2-.82.41-1.17,1.2-2.02.08-2.77-1.68-3.24-6.66-1.78-12.78-.52-18.28,3.5-11.65,8.53-10.26,27.31,2.51,34.01,1.71.9,3.56,2.3,5.84.62Zm173.82-121.43c-2.48-2.01-4.58-3.68-6.64-5.41-1.14-.96-1.95-1.02-3.1.19-5.08,5.32-10.26,10.53-14.66,16.47-4.15,5.6-4.08,5.9,2.65,8.16.99.33,1.55.17,2.09-.63,5.08-7.61,11.7-13.64,19.67-18.78Zm-49.91-21.07c-2.85-.64-5.3-.31-7.73-.39-1.77-.06-2.83.72-3.68,2.25-4.78,8.59-9.45,17.22-13.07,26.38-1.85,4.67-1.84,4.47,3.12,4.42,2.69-.03,3.69-1.06,4.32-3.53,1.7-6.66,4.61-12.81,8.42-18.55,2.45-3.69,5.26-7.09,8.62-10.59Zm-51.37,40.58c4.13-1.51,7.59-2.8,11.07-4.05.79-.28,1.11-.8,1.23-1.59,1.61-10.75,5.23-20.71,11.62-29.61-13.57,7.64-20.55,19.73-23.91,35.26Zm108.49-11.86c-.24-.3-.53-.71-.86-1.07-1.12-1.22-2.37-2.35-3.37-3.67-1.3-1.72-2.39-1.76-3.97-.26-4.51,4.29-9.2,8.39-13.4,13.02-4.74,5.22-4.72,5.14,1.13,8.82,1.5.94,2.22.75,3.27-.58,4.45-5.66,9.53-10.68,15.65-14.58.59-.37,1.31-.66,1.54-1.67Zm-72.91,3.24c2.17,0,3.94-.13,5.68.04,1.81.17,2.57-.52,2.96-2.26,1.79-7.94,5.65-14.89,10.59-21.25,1.93-2.49,4.15-4.76,6.47-7.39-1.87-.31-3.37-.57-4.87-.8-.51-.08-1.04-.06-1.55-.13-1.01-.14-1.76.14-2.4,1.01-6.89,9.4-12.81,19.32-16.88,30.79Zm56.03-18.72c-.58-.2-1.01-.27-1.36-.47-1.8-1.02-3.57-2.09-5.37-3.1-.87-.49-1.51-.11-2.15.6-5.62,6.22-11.41,12.29-15.63,19.63-2.85,4.95-2.91,4.94,2.69,6.39.84.22,1.77,1.17,2.53-.48,3.94-8.57,10.18-15.26,17.52-21.02.4-.31.77-.66,1.78-1.54Zm-30.13,20.75c1.07.54,1.4-.15,1.72-1.02.43-1.16.95-2.3,1.47-3.42,3.55-7.69,9.05-13.83,15.33-19.36.64-.56,1.88-.9,1.54-2.06-.49-1.65-6.6-2.84-7.79-1.56-6.07,6.58-11.34,13.75-15.67,21.6-2.85,5.17-2.74,5.35,3.4,5.83Zm36.16,19c.58-.64,1.08-1.15,1.52-1.7,3.25-4.07,6.69-7.96,10.89-11.08q5.07-3.76.86-8.71c-.95-1.11-1.55-1.35-2.67-.23-5.08,5.05-10.24,10.02-15.36,15.03-.43.43-1.11,1.37-1.05,1.42,1.86,1.77,3.79,3.46,5.83,5.26Zm41.61,119.65c-3.77-3.21-8.12-5.06-12.57-6.72-.65-.24-1.43-.68-1.89.26-.68,1.37-1.35,2.76-1.88,4.2-.15.4.54.5.94.51,5.18.2,10.26,1.17,15.4,1.75Zm-204.91-50.32c.39-1.92,1.61-3.34.69-4.89-.27-.46-1.4-.04-1.84.64-.97,1.54-.81,2.88,1.15,4.24Z"/>
    <path class="cls-2" d="m446.26,558.86c8.81.21,17.05-.97,25.31-1.6,5.17-.4,10.31-1.26,15.49-1.51,2.56-.12,3.33-1.27,3.79-3.43,2.52-11.89,2.86-23.87,1.71-35.94-1.14-11.99-3.6-23.79-5.04-35.73-.71-5.9-.82-11.8.93-17.6.98-3.24,2.48-6.2,4.95-8.51,3.69-3.45,7.98-5.56,13.03-3.57,5.08,2,7.63,6.22,8.25,11.53.5,4.26-.41,8.49-.68,12.73-.85,13.5-.41,26.99.05,40.49.36,10.63-.31,21.18-4.53,31.17-1.04,2.45-2.34,4.79-3.65,7.43,4.57.22,8.89.38,13.2.67,1.68.11,1.81-.74,1.84-2.06.26-11.53,1.04-23.02,2.48-34.46,2.48-19.65,4.79-39.33,13.7-57.49,4.02-8.19,3.06-16.57-.39-24.73-2.98-7.06-6.29-13.99-9.29-21.05-5.54-13.03-5.92-26.16-.3-39.29,2.54-5.93,6.28-10.96,11.54-14.79,3.08-2.24,6.49-3.66,10.27-4.15,8.71-1.12,13.83,4.85,11.22,13.19-1.17,3.75-2.71,7.39-3.91,11.14-3.05,9.55-3.26,19.09-.06,28.73,3.63,10.93,6.75,22.02,7.37,33.62.56,10.41-1.15,20.09-7.61,28.81-7.99,10.77-11.7,23.5-14.98,36.29-3.62,14.1-5.53,28.49-6.9,42.96-.33,3.48.35,5.47,4.1,6.42,3.7.94,7.05,3,10.18,5.25.69.49,1.81.89.92,2.15-.74,1.05-1.53,1.15-2.6.48-16.34-10.22-34.63-9.17-52.36-7.42-42.78,4.24-85.54,5.72-128.47,3.45-26.86-1.42-53.67-3.48-80.52-4.98-17.02-.95-34.05-.35-51.07.75-31.72,2.06-63.44,3.99-95.24,2.04-11.61-.71-23.21-1.51-34.82-2.15-13.06-.73-25.91.66-38.46,4.43-.2.06-.39.19-.59.21-1.15.09-2.57,1.56-3.29-.65-.68-2.1,1.25-1.86,2.15-2.23,3.85-1.58,7.89-2.51,11.97-3.25,1.1-.2,2.24-.24,3.33-.98-3.58-7.2-6.29-14.66-7.43-22.65-.77-5.38-.57-10.79-.21-16.17.84-12.55,1.13-25.08.57-37.67-.46-10.48-3.57-19.38-11.95-26.25-5.81-4.76-10.03-10.75-11.47-18.38-1.32-7,.3-13.06,5.9-17.62,5.67-4.62,12.11-5.51,19.04-3.14,1.7.58,2.62,1.44,2.27,3.4-.24,1.32-.08,2.7-.22,4.04-.8,7.84,1.99,14.2,7.79,19.42,2.55,2.29,4.97,4.73,7.36,7.18,7.89,8.11,9.63,17.97,8.38,28.81-1.31,11.42-4.85,22.28-8.22,33.15-4.66,15.04-2.45,29.05,5.15,42.53.98,1.74,2.03,2.49,4.11,2.49,4.88.01,9.75.37,14.62.59,1.04.05,2.05.17,2.51-1.19,1.96-5.79,4.39-11.41,5.78-17.39,1.83-7.92-.3-14.76-5.47-20.81-4.29-5.02-8.22-10.26-9.25-17-2.14-14.08,2.94-26.39,18.3-29.36,3.28-.63,6.62-.59,9.86.41,5.94,1.83,7.97,7.17,4.84,12.58-1,1.74-2.43,3.1-3.83,4.48-6.05,5.97-5.54,15.86,1.85,20.19,5.6,3.29,6.84,7.67,6.81,13.44-.08,12.67-1.76,24.85-10.04,35.81,1.88.2,3.25.42,4.63.48,9.86.37,19.71.93,29.59.82,2.19-.02,2.78-.39,2.18-2.81-1.53-6.17,2.03-11.07,8.82-12.69,2.33-.56,4.71-.74,7.11-.72,1.65.01,3.29-.07,4.93-.92-.42-1.43-1.71-1.81-2.66-2.49-2.69-1.95-5.48-3.78-7.3-6.68-2.86-4.58-2.39-9.88,1.16-13.08,3.9-3.52,8.4-3.57,12.98-.15,2.07,1.55,3.96,3.37,6.4,4.39.68.28,1.43.65,2.08.25.89-.55.48-1.51.31-2.27-1-4.45-2.17-8.86-3.06-13.32-.83-4.17.31-7.09,2.94-8.44,2.84-1.47,6.88-.46,9.51,2.59,3.36,3.92,4.93,8.6,5.15,13.72.28,6.53-.33,13.09.59,19.6.2,1.44.34,2.91.78,4.27.41,1.29.47,3.2,2.37,3.21,1.58,0,2.03-1.57,2.55-2.8,1.13-2.68,1.81-5.5,2.48-8.33.73-3.14,1.67-6.21,3.65-8.84,2.83-3.74,7.88-5.27,12.26-3.7,3.71,1.33,5.16,3.97,4.27,7.8-1.13,4.86-4.13,8.79-6.42,13.07-.49.92-1.85,1.97-.85,2.98.94.95,2.13-.17,3.06-.7,3.07-1.73,6.05-3.63,9.13-5.34,2.37-1.32,4.87-2.32,7.68-2.23,4.8.16,6.95,3.44,5.07,7.8-.33.76-.75,1.48-1.11,2.23-1.01,2.13-.31,3.04,2.03,3.12,4.69.18,4.74.24,4.84,5.18.04,1.82,1.39,1.27,2.22,1.32,4.97.29,9.96.39,14.93.7,16.37,1.04,32.74,2.14,49.11,3.2.57.04,1.22.29,1.97-.46-3.07-4.88-5.44-10.13-5.61-16.11-.14-4.99.6-9.74,3.9-13.75,2.87-3.49,6.53-4.64,10.86-3.5,6.06,1.6,10.61,5.52,14.74,9.99,2.4,2.6,4.73,5.27,7.83,7.06,2.81,1.62,3.94,1.08,4.32-2.11.58-4.91-.69-9.7-1.17-14.54-.55-5.56-.31-11,2.04-16.16,2.74-6.03,7.18-6.6,11.51-1.52,2.45,2.88,4,6.29,5.52,9.7,1.69,3.79,3.24,7.64,5.06,11.36,1.24,2.52,2.77,5.16,6.05,5.17,3.38.01,5.01-2.63,6.39-5.23,3.19-6.02,4.51-12.67,6.12-19.2,1.12-4.53,2.05-9.1,3.14-13.63.73-3.03,2.27-5.56,4.99-7.24,5.39-3.34,11.51-1.32,13.76,4.62,2.28,6.03,1.54,12.09-.36,18.01-1.29,4.04-3.09,7.91-4.54,11.91-.78,2.14-1.53,4.32-1.9,6.56-.83,5.01.46,7.27,4.63,8.9,9.36,3.64,12.19,10.58,8.1,19.88-.2.46-.4.92-.78,1.78Zm-52.08,1.04c17.99.1,30.55.19,43.1-.44,5.36-.27,6.36-.99,7.63-6.38,1.49-6.31-.59-10.17-6.65-12.38-5.99-2.18-8.04-5.6-7.37-11.95.39-3.66,1.66-7.04,3.05-10.4,1.66-4.02,3.48-7.99,4.39-12.27.97-4.53,1.35-9.08-.61-13.44-2.05-4.54-7.27-5.02-10.3-1.03-1.41,1.86-2,4.08-2.51,6.3-1.49,6.46-2.85,12.95-4.48,19.37-1.41,5.53-2.96,11.06-6.97,15.42-4.36,4.73-9.42,4.54-13.57-.39-2.59-3.08-3.91-6.81-5.46-10.42-1.88-4.38-3.45-8.91-6.4-12.74-2.93-3.81-5.01-3.52-6.75.92-2.12,5.41-1.63,11.01-.98,16.6.46,3.91,1.24,7.8.9,11.77-.55,6.31-4.53,8.33-9.86,5.03-3.04-1.88-5.4-4.52-7.82-7.08-2.86-3.03-5.85-5.91-9.52-7.95-6.83-3.79-11.98-1.66-13.9,5.9-1.89,7.45.42,14.08,4.23,20.42,1.32,2.19,2.96,3.13,5.5,3.23,16.59.65,33.18,1.42,44.35,1.91Zm133.13-4.24c3.33.39,3.35.39,3.47-2.1.71-15.07,3.06-29.9,6.57-44.54,3.2-13.36,7.13-26.57,15.36-37.76,7.06-9.6,8.22-20.06,7.09-31.3-1-9.87-3.7-19.34-6.83-28.67-3.33-9.92-3.1-19.72-.45-29.68,1.2-4.53,3.41-8.68,4.6-13.19,1.3-4.93-.96-7.83-6.08-8-5.14-.17-9.34,2.02-12.77,5.52-11.89,12.19-14.21,26.67-9.62,42.6,2.42,8.41,6.79,16.01,10.37,23.94,5.14,11.39,5.37,22.51-.34,33.83-4.57,9.04-6.81,18.85-8.49,28.81-3.14,18.64-5.11,37.39-5.94,56.28-.12,2.79-.21,4.94,3.07,4.26Zm-433.9-1.41c-.11-.46-.1-.79-.25-1.03-8.88-15.06-10.03-30.8-4.65-47.32,3.5-10.74,6.73-21.57,7.64-32.94.68-8.48-1.13-16.1-7.1-22.4-2.43-2.56-4.87-5.12-7.52-7.45-7.38-6.49-10.36-14.59-9.13-24.25.22-1.71-.26-2.47-1.9-2.84-5.48-1.23-10.34-.08-14.37,3.83-5.03,4.88-5.25,10.74-3.08,16.98,1.94,5.57,5.58,9.89,9.99,13.65,7.66,6.53,11.69,14.68,12.34,24.87.95,14.77.53,29.49-.49,44.2-.72,10.42,1.24,20.23,5.36,29.69,2.59,5.93,2.66,5.89,9.09,5.3,1.32-.12,2.64-.18,4.05-.27Zm101.13,3.05c24.47-1.74,48.9-3.7,73.41-4.08,1.19-.02,2.11-.28,2.22-1.58.16-1.93-1.41-1.05-2.21-1.15-4.45-.55-6.26-3.5-4.6-7.72.26-.67.57-1.34.89-1.99.45-.94,1.12-1.93.3-2.89-.73-.85-1.83-.76-2.89-.62-2.75.36-5.1,1.66-7.42,3.05-2.75,1.66-5.43,3.46-8.27,4.95-1.98,1.03-4.28,1.5-6.04-.45-1.61-1.78-1.15-3.89-.16-5.82.99-1.94,2.13-3.79,3.21-5.69,1.38-2.43,2.92-4.8,3.65-7.53.73-2.76-.27-4.14-3.09-4.56-3.36-.5-6.31.93-8.14,3.98-.97,1.62-1.46,3.41-1.94,5.22-.97,3.7-1.51,7.55-3.35,10.97-1.19,2.22-2.54,4.47-5.54,4.31-3.17-.16-4.31-2.65-5.13-5.14-1.08-3.26-1.34-6.69-1.49-10.13-.28-6.12.44-12.27-.58-18.35-.63-3.76-2.05-7.19-5.06-9.72-1.27-1.07-2.82-1.5-4.36-.79-1.5.7-1.32,2.22-1.22,3.57.07,1.03.26,2.05.45,3.07.77,4.28,2.41,8.39,2.72,12.75.35,4.95-2.12,6.62-6.76,4.69-2.73-1.13-5.02-2.89-7.19-4.84-1.8-1.62-3.77-2.49-6.26-1.71-4.92,1.54-6.12,6.96-2.42,11.33,2.04,2.41,4.84,3.89,7.31,5.77,1.56,1.19,3.43,2.32,2.78,4.73-.61,2.24-2.67,2.75-4.58,3.25-1.09.29-2.27.23-3.4.35-2.78.29-5.62.24-8.31,1.14-2.61.87-4.61,2.39-5.18,5.27-.84,4.25,1.02,6.42,5.27,6.35,4.46-.07,8.92-.02,13.39-.02Zm303.35-2.41c2.79.95,4.47-1.17,5.83-3.84.75-1.47,1.55-2.93,2.24-4.43,4.32-9.39,5.03-19.43,4.73-29.52-.52-17.11-1.04-34.2.71-51.29.57-5.53-2.6-10.68-6.65-11.83-4.27-1.2-9.22,1.72-11.83,7.08-2.63,5.41-3.09,11.17-2.29,17.01,1.58,11.6,3.51,23.15,4.98,34.76,1.63,12.93,1.54,25.86-1.23,38.68-.76,3.52-.78,3.51,3.51,3.37Zm-370.52-23.37c-.15,6.03-2.58,12.45-4.91,18.88-1.8,4.98-1.83,4.96,3.25,5.31,1.14.08,2.29.15,3.4.36,1.95.38,3.16-.3,4.42-1.93,7.87-10.22,9.37-22.11,9.42-34.44.02-4.34-1.44-7.35-5.35-9.95-9.22-6.13-9.98-17.87-2.23-25.71.73-.74,1.45-1.49,2.16-2.24,1.6-1.69,2.52-3.66,1.67-5.95-.81-2.2-2.84-2.84-4.97-3.21-14.03-2.43-25.04,9.28-22.61,23.91,1.06,6.42,4.32,11.56,8.49,16.32,4.44,5.06,7.34,10.79,7.27,18.65Z"/>
    <path class="cls-2" d="m285.97,115.52c40.92-2.29,79.06,7.28,114.2,28.4,35.86,21.55,61.76,51.68,76.3,91.25-38.92-79.2-104.14-116.23-190.5-119.64Z"/>
    <path class="cls-2" d="m156.93,448.05c-59.73-44.31-79.9-128.12-61.33-182.43-12.98,72.05,9.28,132.22,61.33,182.43Z"/>
    <path class="cls-2" d="m453.48,241.49c-34.21-67.37-90.94-98.26-164.97-101.76,24.42-2.53,64.98,3.21,99.31,24.3,30.4,18.68,53.48,43.45,65.67,77.46Z"/>
    <path class="cls-2" d="m456.49,395.08c-23.45,52.37-91.65,95-152.62,94.18,65.78-7.31,116.54-38.88,152.62-94.18Z"/>
    <path class="cls-2" d="m327.77,474.53c54.75-12.3,96.81-41.81,124.39-91.16-10.24,25.86-27.62,46.01-50.08,62.03-22.32,15.93-46.92,26.09-74.31,29.13Z"/>
    <path class="cls-2" d="m420.78,457.54c-44.19,34.11-94.21,47.24-149.47,41.06,26.42.71,52.58-1.55,78.22-8.58,25.5-6.99,49.02-18.31,71.25-32.48Z"/>
    <path class="cls-2" d="m103.99,329.1c6.3,46.83,28.83,85.07,62.19,117.77-8.73-2.7-33.98-32.75-44.26-51.94-11.04-20.6-17.53-42.35-17.92-65.83Z"/>
    <path class="cls-2" d="m145.67,150.87c-.11,9.94-8.46,18.29-18.25,18.25-10.25-.04-18.65-8.61-18.39-18.76.25-9.86,8.72-17.96,18.68-17.87,10.01.09,18.08,8.35,17.97,18.37Zm-33.14-.14c-.07,8.18,6.63,15.01,14.7,14.99,8.13-.02,14.84-6.62,15.03-14.78.18-8.09-6.53-14.87-14.75-14.88-8.32-.02-14.91,6.44-14.98,14.67Z"/>
    <path class="cls-2" d="m152.75,262.17c-10.2,0-18.33-8.25-18.25-18.5.08-9.86,8.26-17.77,18.34-17.75,9.83.02,18.05,8.23,18.1,18.07.05,10.05-8.08,18.18-18.19,18.18Zm-14.7-18.21c0,8.28,6.64,14.98,14.75,14.9,8.16-.08,14.73-6.62,14.71-14.63-.02-8.14-6.81-14.95-14.86-14.9-8.24.05-14.61,6.43-14.6,14.64Z"/>
    <path class="cls-2" d="m155.93,419.94c31.07,37.55,71.08,57.86,119.98,62.27-13.48,1.45-44.05-3.19-68.06-15.9-20.91-11.07-46.49-33.53-51.92-46.36Z"/>
    <path class="cls-2" d="m506.1,49.22c-6.26,4.06-12.83,6.52-20.07,7.14-6.47.56-12.64-.88-18.46-3.48-11.79-5.26-23.41-5.21-35.22,0-14.21,6.27-27.63,4.21-40.14-4.84,1.47.56,2.95,1.08,4.4,1.67,11.68,4.78,23.34,5.12,35.05.06,6.93-3,14.11-4.78,21.78-4.08,4.92.45,9.59,1.77,14.05,3.76,11.88,5.28,23.72,5.04,35.62.12.8-.33,1.61-1.06,2.98-.34Z"/>
    <path class="cls-2" d="m156.54,47.39c5.45,2.14,10,4.11,14.84,5.15,8.72,1.88,17.11.61,25.3-2.65,5.01-1.99,10.05-3.86,15.53-4.22,6.54-.43,12.94.26,18.87,3.01,13.28,6.16,26.47,5.94,39.74.13.53-.23,1.06-.74,2.04-.17-5.33,3.55-10.99,5.81-17.08,7.08-7.81,1.62-15.25.19-22.5-2.79-6.58-2.7-13.28-4.65-20.55-4.06-5.36.43-10.35,2.08-15.24,4.12-12.56,5.23-24.69,4.27-36.45-2.39-.99-.56-1.95-1.19-2.9-1.81-.32-.21-.58-.5-1.59-1.39Z"/>
    <path class="cls-2" d="m95.13,86.32c2.9,1.06,5.77,2.19,8.69,3.18,9.09,3.06,18.12,2.87,27.11-.49,4.65-1.74,9.27-3.62,14.18-4.56,8.11-1.54,15.9-.27,23.45,2.81,7.59,3.09,15.31,5.12,23.63,4.07,5.19-.66,10.11-2.17,14.95-4.05.93-.36,1.87-.68,2.87-.75-10.83,7.21-22.41,10.37-35.27,6.33-2.76-.87-5.49-1.88-8.19-2.92-10.06-3.88-20.04-3.66-30.01.39-7.17,2.92-14.51,5.06-22.39,4.08-7.14-.88-13.56-3.52-19.02-8.09Z"/>
    <path class="cls-2" d="m329.83,71.19c5.28,1.56,10.34,3.58,15.75,4.53,7.36,1.3,14.46.45,21.4-2.16,7-2.63,13.97-5.22,21.67-4.9,5.48.23,10.76,1.35,15.67,3.6,12.8,5.87,25.37,4.91,37.91-.65.73-.32,1.48-.61,2.59-1.07-2.46,2.87-9.04,6.02-15.17,7.64-8.49,2.24-16.64,1.02-24.65-2.17-5.5-2.19-11.07-4.06-17.12-4.11-6.47-.05-12.48,1.79-18.37,4.17-12.96,5.23-25.34,4.04-37.2-3.25-.85-.52-1.66-1.09-2.49-1.63Z"/>
    <path class="cls-2" d="m98.44,180.17c-.07,9.62-7.52,17.15-16.86,17.05-8.95-.1-16.38-8.05-16.26-17.39.12-9.25,7.48-16.45,16.76-16.4,9.19.05,16.42,7.45,16.36,16.74Zm-16.63-13.44c-7.16.02-13,6.05-13.03,13.46-.03,7.56,5.91,13.69,13.19,13.63,7.05-.06,13.1-6.28,13.13-13.48.03-7.4-6.05-13.62-13.3-13.6Z"/>
    <path class="cls-2" d="m549.01,99.09c-9.7,6.46-19.96,9.19-31.33,6.14-3.49-.94-6.92-2.16-10.3-3.45-9.32-3.56-18.61-3.49-27.96-.12-5.84,2.1-11.6,4.53-17.92,4.87-9.13.5-17.21-2.42-24.5-7.87,1.98.77,3.94,1.58,5.93,2.31,10.4,3.83,20.7,3.55,30.94-.66,7.95-3.27,16.09-5.43,24.83-4.1,4.44.67,8.71,1.93,12.8,3.68,11.76,5.04,23.39,4.52,34.99-.51.7-.3,1.38-1.03,2.52-.3Z"/>
    <path class="cls-2" d="m120.56,443.02c-31.41-27.83-49.59-71.55-49.88-106.93,3.14,19.85,8.6,38.99,17.26,57.14,8.61,18.05,19.85,34.4,32.62,49.79Z"/>
    <path class="cls-2" d="m517.67,209.7c.03-8.48,6.19-14.78,14.4-14.73,7.98.04,14.52,6.72,14.53,14.82,0,8.1-6.61,14.81-14.57,14.76-8.16-.04-14.39-6.49-14.36-14.85Zm14.44,11.29c6.16,0,11.11-4.83,11.18-10.92.08-6.32-5.07-11.62-11.28-11.62-6.36,0-11.11,4.83-11.09,11.29.02,6.35,4.89,11.25,11.18,11.26Z"/>
    <path class="cls-2" d="m517.46,342.29c-3.22,38.05-18.83,69.9-47.14,95.41,11.63-13.78,22.03-28.42,30.12-44.67,8.04-16.16,13.14-33.28,17.02-50.74Z"/>
    <path class="cls-2" d="m292.71,102.91c-37.98,2.6-72.93,13.91-104.82,36.28,12.34-19.23,72.33-39.8,104.82-36.28Z"/>
    <path class="cls-2" d="m472.22,396.39c16.56-30,23.43-62.34,23.48-96.38,2.42,4.21,2.42,30.56-2.32,50.53-4.17,17.56-13.44,38.37-21.16,45.84Z"/>
    <path class="cls-2" d="m159.94,210.52c.02-7.7,5.74-13.45,13.34-13.4,7.53.05,13.56,6.09,13.44,13.46-.12,7.41-6.24,13.51-13.53,13.49-7.54-.02-13.27-5.88-13.25-13.55Zm23.17-.24c-.04-5.37-4.65-9.92-9.97-9.85-5.37.07-9.81,4.57-9.86,10.01-.06,5.6,4.47,10.15,10.03,10.1,5.63-.06,9.85-4.47,9.8-10.25Z"/>
    <path class="cls-2" d="m106.06,283.7c-3.17-24.38,18.42-76.22,38.21-92.28-9.91,13.55-18.14,28.04-24.65,43.51-6.48,15.41-10.79,31.44-13.57,48.77Z"/>
    <path class="cls-2" d="m150.42,179.1c-.04-7.41,5.47-13.12,12.75-13.2,7.35-.08,13.21,5.75,13.19,13.13-.02,7.23-5.77,13.08-12.94,13.14-7.08.06-12.96-5.85-13-13.07Zm13.02,9.45c5.32-.05,9.56-4.21,9.58-9.4.02-5.31-4.68-9.99-9.93-9.9-5.22.09-9.44,4.62-9.35,10.03.09,5.12,4.49,9.33,9.7,9.28Z"/>
    <path class="cls-2" d="m498.02,267.51c11.52,32.71,10.62,65.24-1.82,97.55,9.05-32.36,8.55-64.88,1.82-97.55Z"/>
    <path class="cls-2" d="m468.08,169.39c-5.97.01-10.84-4.9-10.83-10.94,0-6.11,4.73-10.9,10.8-10.97,5.72-.06,10.93,5.15,10.98,10.98.04,5.83-5.06,10.92-10.95,10.93Zm.04-18.38c-4.19,0-7.35,3.25-7.3,7.54.04,4.02,3.36,7.42,7.23,7.4,4.03-.02,7.37-3.5,7.34-7.64-.02-3.98-3.32-7.29-7.27-7.3Z"/>
    <path class="cls-2" d="m481.32,330.2c1.52-25.75-2.47-50.76-9.52-75.4,11.42,24.11,14.76,49.24,9.52,75.4Z"/>
    <path class="cls-2" d="m465.43,360.74c3.41-12.54,6.16-25.15,7.4-38.06,1.23-12.84,1.1-25.67-.64-38.81,7.9,13.42,3.64,61.84-6.75,76.87Z"/>
    <path class="cls-2" d="m229.01,105.77c-24.59,9.84-46.9,23.58-67.99,39.43,19.13-19.21,41.64-32.63,67.99-39.43Z"/>
    <path class="cls-2" d="m527.95,322.16c-.18-18.6-.78-37.21-3.26-55.72,5.64,14.5,7.75,36.54,3.26,55.72Z"/>
    <path class="cls-2" d="m507.27,175.1c3.79-.08,7.23,3.2,7.33,6.99.11,3.84-3.06,7.24-6.9,7.42-3.89.17-7.37-3.2-7.43-7.2-.06-3.94,3.04-7.13,7-7.21Zm3.78,6.76c-.4-1.91-1.53-3.39-3.89-3.25-2.15.13-3.48,1.52-3.45,3.64.04,2.23,1.39,3.73,3.72,3.68,2.3-.05,3.51-1.47,3.61-4.07Z"/>
    <path class="cls-2" d="m511.44,276.44c-4.91-14.85-9.83-29.7-14.74-44.55,8.61,13.61,13.97,28.31,14.74,44.55Z"/>
    <path class="cls-2" d="m238.56,336.92c-13.31-.02-24.37-11.49-24.29-25.21.08-13.71,11.08-24.66,24.82-24.68,13.5-.03,24.91,11.28,24.92,24.7.01,13.91-11.41,25.22-25.45,25.19Zm21.93-24.83c.04-11.83-9.44-21.48-21.17-21.55-12.12-.07-21.59,9.29-21.58,21.35,0,11.74,9.52,21.77,20.68,21.79,11.92.02,22.03-9.86,22.07-21.58Z"/>
    <path class="cls-2" d="m335.63,321.6c-17.47,1.99-35.14.94-52.69,2.31,17.34-4.93,34.95-4.39,52.69-2.31Z"/>
    <path class="cls-2" d="m283.42,333.49c17.57,4.84,35.11,9.74,52.96,13.52-18.74-.27-36.38-4.83-52.96-13.52Z"/>
    <path class="cls-2" d="m283.19,328.38c18.3-.88,36.08,1.64,53.28,7.94-17.79-2.46-35.54-5.25-53.28-7.94Z"/>
    <path class="cls-2" d="m279.64,319.48c6.72-6.1,43.35-12.6,54.4-9.6-18.56,2.31-36.42,5.27-54.4,9.6Z"/>
    <path class="cls-2" d="m326.43,355.43c-16.35-1.59-31.23-5.84-44.38-15.68,14.81,5.23,29.37,10.37,44.38,15.68Z"/>
    <path class="cls-2" d="m221.69,314.54c-.03-8.77,7.01-15.67,15.96-15.63,8.76.03,15.4,6.46,15.45,14.94.06,9.17-6.69,16.09-15.74,16.16-8.83.07-15.65-6.66-15.67-15.47Zm22.04-4.13c1.85-.24,2.79-1.4,2.77-3.15-.03-1.77-.97-2.95-2.92-2.87-1.91.07-2.79,1.24-2.78,3.04,0,1.87,1.15,2.77,2.93,2.98Z"/>
  </g>
</svg>