<?xml version="1.0" encoding="UTF-8"?>
<svg width="612" height="612" id="Layer_1" data-name="Layer 1" xmlns="http://www.w3.org/2000/svg" viewBox="0 0 612 612">
  <defs>
    <style>
      .cls-1 {
        fill: #010101;
      }

      .cls-1, .cls-2 {
        stroke-width: 0px;
      }
    </style>
  </defs>
  <path class="cls-1" d="m580.7,580.72H31.3V31.28h549.4v549.44Zm-546.4-3.01h543.4V34.29H34.3v543.43Z"/>
  <g>
    <path class="cls-2" d="m411.58,335.6c9.08,1.67,17.73,3.54,26.23,6.07,10.92,3.25,21.49,7.34,31.3,13.21,6.66,3.98,12.59,8.75,16.36,15.77,5.99,11.12,4.56,21.86-4.26,30.95-7.53,7.77-16.82,12.89-26.51,17.36-21.51,9.93-44.21,15.98-67.38,20.46-25.66,4.96-51.57,7.37-77.69,7.48-20.16.09-40.29-.49-60.13-4.69-5.6-1.19-11.14-2.61-16.3-5.22-11.87-6.01-15.65-16.11-10.63-28.45.73-1.78,1.61-3.5,2.65-5.74-4.86,2.03-9.32,3.86-13.76,5.74-10.46,4.43-20.96,8.72-32.13,11.11-3.32.71-6.62.62-9.9-.14-11.23-2.63-21.61-7.02-29.97-15.25-8.04-7.91-9.9-17.46-7.6-28.31,1.78-8.37,6.79-14.15,13.44-18.92,11.08-7.94,23.82-12.06,36.69-15.8,5.76-1.67,11.6-3.05,17.45-4.37,1.85-.42,1.77-.92.9-2.3-3.03-4.8-3-4.86-8.46-3.29-18.45,5.3-37.27,7.57-56.44,6.57-9.88-.52-19.66-1.95-29.15-4.95-2.91-.92-5.72-2.1-8.28-3.8-4.29-2.85-5.83-6.77-6.02-11.98-.32-8.76,4.64-13.17,11.67-16.28,8.97-3.97,18.55-5.62,28.19-6.68,17.27-1.9,34.5-1.44,51.59,2.02,4.38.88,4.37.9,5.54-3.58,2.5-9.57,8.41-13,19.28-11.17,13.48,2.27,25.02,8.66,35.72,16.83.72.55,1.46,1.1,2.35,1.77,2.02-4.34,3.94-8.51,6.36-12.43.9-1.44-.65-1.46-1.25-1.85-5.69-3.7-10.92-7.92-15.09-13.34-9.98-12.96-9.14-28.43,2.27-40.21,1.79-1.85,4.51-3.16,5.53-5.31,1.02-2.15-.49-4.96-.48-7.55.04-14.79,10.85-26.09,25.07-25.69,8.5.24,15.14,4.39,20.05,11.21,1.08,1.49,1.94,1.9,3.79,1.6,13.15-2.15,26.31-2.18,39.44.23,1.68.31,2.27-.49,3.06-1.58,4.33-5.88,9.88-9.92,17.24-11.08,13.17-2.07,26.12,7.96,27.56,21.29.38,3.53.33,7.04-.68,10.44-.46,1.55.06,2.29,1.15,3.22,6.54,5.64,11.46,12.35,12.8,21.09,1.49,9.7-1.59,18.06-8.11,25.2-4.53,4.97-10.03,8.75-15.94,11.86-1.77.94-2.12,1.69-1.36,3.55,1.83,4.47,1.72,4.49,5.46,1.62,9.11-6.99,18.86-12.67,30.38-14.65,3.58-.61,7.21-.83,10.76-.09,8.2,1.7,12.37,8.41,11.8,18.39-.65,11.42-4.67,21.77-9.96,31.71-1.38,2.6-2.97,5.09-4.65,7.95Zm-225.31-32.04l.05.05c1.35-.73,1.79-1.86,1.57-3.35-.24-1.61-1.7-1.3-2.62-1.51-14.86-3.44-29.94-4.21-45.11-3.25-10.88.69-21.66,2.16-32.01,5.8-4.46,1.56-8.78,3.44-11.85,7.28-2.92,3.64-2.7,7.36.56,10.65,1.99,2.01,4.41,3.37,6.99,4.37,11.24,4.38,23.03,5.63,34.97,5.99,1.13.03,1.64-.62,2.23-1.31.11.1.22.19.32.29.14,1.77,1.54.97,2.33.99,9.08.22,18.08-.74,27.07-1.9,7.03-.91,13.87-2.72,20.73-4.43,1.5-.37,1.76-.98,1.18-2.46-2.96-7.47-2.92-7.49-10.96-7.77-1.11-.04-2.22-.01-3.33-.09-5.75-.39-11.5-.81-17.25-1.22,9.41-.79,18.76.42,28.17.65-.38-2.64-.8-5-1.04-7.38-.14-1.4-.78-1.74-2.01-1.4Zm112.76,73.88c.36-.68.72-1.37,1.24-2.34-2.79.68-5.03-.47-7.58-1.2.8,1.76,2.14,2.65,3.13,3.82,1.12,1.33,2.07,1.1,3.06-.09-.19,1.1-.55,2.03.15,3.3,1.67,3,.03,5.58-3.45,5.59-1.22,0-1.75.36-2.34,1.36-3.7,6.29-7.43,12.57-11.29,18.75-3.74,5.99-7.65,11.86-11.63,18-.53-1.15.09-1.62.4-2.11,6.71-11.05,13.41-22.11,20.23-33.1,1.27-2.05,2.1-3.37-.98-4.5-1.36-.5-2.42-1.95-3.47-3.11-1.72-1.89-3.32-3.89-5.35-6.29.23,1.65.4,2.7.51,3.76.2,2.05-.08,4.02-2.1,5.02-2.19,1.07-4.35.57-6.23-.91-2.14-1.68-2.67-4.15-2.89-6.66-.16-1.83-.67-2.4-2.58-1.63-9.9,4.04-19.11,9.21-27.42,15.98-4.54,3.7-7.01,8.51-8.01,14.15-1.23,6.98.88,12.55,7.07,16.38,4.04,2.51,8.4,4.24,12.94,5.53,15.41,4.38,31.25,5.59,47.15,6.03,21.27.58,42.51-.16,63.67-2.63,21.96-2.57,43.66-6.44,64.79-13.02,14.03-4.37,27.78-9.52,40.18-17.66,5.29-3.47,10.08-7.53,13.35-13.09,3.98-6.76,3.39-14.08-1.65-20.08-3.67-4.37-8.18-7.71-13.12-10.52-17.01-9.7-35.64-14.5-54.64-18.21-1.66-.32-2.65.24-3.69,1.6-4.85,6.34-10.4,12.01-16.75,16.88-.53.4-1.38.59-1.39,1.03,5.27,0,10.52.08,15.76-.02,6.09-.11,12.16-1.18,18.27-.38,1.02.13,2.21.13,2.75,1.06,1.28,2.19,3.21,2.1,5.31,1.91,2.48-.22,4.98-.4,7.47-.45,5.85-.1,11.68-.98,17.54-.39-8.36.82-16.73,1.42-25.1,2.06-.86.07-2.1-.42-2.5.64-1.16,3.08-3.88,3.55-6.5,3.89-4.16.55-8.36.78-12.54,1.14.62.25,1.26.22,1.87.34,1.21.24,2.84.02,2.93,1.85.08,1.63-1.07,2.59-2.5,2.9-1.79.39-3.65.69-5.48.66-9.43-.17-18.83-.83-28.07-2.91-5.82-1.31-11.61-2.77-17.42-4.16,1.39,1.46,3.26,1.57,4.98,2.03,1.74.47,3.93.89,4.29,2.63.73,3.6,3.39,3.47,5.95,3.97,20.39,3.96,40.77,7.94,61.15,11.94,6.43,1.26,12.85,2.63,19.27,3.94-.6.4-1.15.48-1.67.39-11.25-2.09-22.52-4.09-33.75-6.32-15.93-3.17-31.82-6.51-47.74-9.74-.89-.18-1.89-.89-2.72.37-1.55,2.36-3.89,2.38-6.42,2.1-3.69-.4-6.24-2.87-9.31-5.04-.26,2.43-.48,4.51-.71,6.6-.26,2.34-.88,4.54-2.59,6.28-1.69,1.72-3.68,2.02-5.85,1.12-2.17-.89-3.09-2.59-2.78-4.88.25-1.85.65-3.68,1.06-5.92-2.74,3.03-4.56,6.38-7.57,8.56-1.77,1.28-1.68,2.03-.24,3.53,10.34,10.84,20.07,22.23,29.94,33.5.48.54,1.3,1,1.05,2.34-1.14-1.22-2.09-2.22-3.03-3.25-9.59-10.52-19.21-21.02-28.72-31.61-1.37-1.53-2.55-2.38-4.7-1.75-1.75.51-3.54.06-4.74-1.5-1.19-1.54-.79-3.12.15-4.64.38-.62.85-1.15.1-1.92-3.04-3.14-5.63-7.01-11.1-5.17-1.51.51-3.33.35-4.96.15-4.82-.57-9.32-.42-12.42,4.1Zm-86.03-6.28c.03.15.05.31.08.46.27.03.55.09.82.07,12.46-1.13,24.59-3.94,36.6-7.3.6-.17,1.38-.34,1.44-1.1.07-.89-.74-1.17-1.39-1.52-4.38-2.37-8.88-4.56-13.13-7.16-12.76-7.8-23.58-17.51-29.82-31.51-.57-1.28-1.25-2.54-1.32-4.32.39.49.59.69.72.92,9.62,17.74,24.25,29.99,42.16,38.73,5.03,2.46,10.32,2.9,15.61,3.37.3-.88-.09-1.22-.32-1.6-6.26-10.1-10.43-20.99-12.03-32.77-.9-6.65-.63-13.29,1.97-19.63.84-2.04,1-2.13,2.8-3.12-1.65,3.79-2.53,7.62-2.76,11.6-.9,15.66,4.26,29.61,12.15,42.76,1.89,3.15,1.88,3.77-1.53,5.32-3.53,1.61-7.17,2.93-10.98,3.77-.84.19-2.06.33-2,1.54.07,1.31,1.14,1.82,2.33,1.94,1.29.13,2.56-.01,3.83-.37,3.22-.91,6.19-2.39,9.21-3.76,2.82-1.28,3.88-.65,4.34,2.36.18,1.19.28,2.39.47,3.57.37,2.36.5,4.8,1.61,6.98.86,1.67,2.43,2.39,4.17,1.95,1.86-.46,1.37-2.19,1.23-3.5-.21-2.02-.66-4.01-.91-6.02-.11-.87-.53-2.02.5-2.52,1.08-.52,1.6.6,2.17,1.26,2.64,3.09,5.22,6.24,7.9,9.3,1.49,1.7,3.32,2.92,5.69,3.12.9.08,1.94.59,2.43-.55.44-1.02-.37-1.72-1.04-2.37-2-1.92-3.99-3.84-5.74-6.02-1.04-1.29-1.67-2.88-3.04-3.93-.65-.5-2.22-.56-1.63-1.78.62-1.27,1.98-.67,2.97-.26,2.56,1.06,5.06,2.25,7.61,3.33,1.18.5,2.42.99,3.75.62.69-.19,1.54-.32,1.6-1.27.05-.81-.66-1.05-1.24-1.31-2.44-1.1-4.91-2.14-7.33-3.28-2.42-1.14-4.89-2.18-6.51-4.53-2.91-4.22-5.23-8.69-6.55-13.67-2.25-8.54-1.5-17.06.28-25.53,1.17-5.57,2.79-11.02,5.64-16.03-1.62,7.28-3.55,14.48-4.44,21.9-1.27,10.54-.37,20.67,5.46,29.91,1.19,1.89,2.51,3.65,4.6,4.68,4.26,2.12,9.11,3.09,12.72,6.52.27.25.89.14,1.35.18,4.71.42,9.41.58,14.12-.02.62-.08,1.38.16,1.82-.42,2.21-2.94,5.59-3.92,8.79-4.91,4.62-1.42,7.24-4.32,8.59-8.87,2.44-8.23,2.31-16.6,1.84-25.01-.46-8.18-1.77-16.26-2.99-24.87.45.7.63.91.74,1.16.18.42.35.85.47,1.29,3.83,13.38,5.33,26.96,3.77,40.84-1.04,9.28-4.61,16.49-14.62,18.81-1.45.34-2.98.91-4.23,2.38,1.98,1.14,3.87.8,5.71.4,2.54-.56,4.9-1.61,7.2-2.81.88-.46,1.88-1.12,2.8-.18,1.06,1.08-.1,1.83-.59,2.62-2.4,3.9-5.79,6.94-8.97,10.16-.55.56-1.3,1.25-.79,2.17.53.96,1.5.89,2.46.71,2.77-.52,4.92-2.04,6.67-4.17,2.34-2.86,4.61-5.78,6.97-8.62.67-.81,1.43-2.09,2.65-1.53,1.17.53.48,1.86.32,2.77-.48,2.82-1.15,5.6-1.7,8.4-.24,1.21.12,2.23,1.33,2.74,1.2.51,2.36.38,3.35-.53.78-.71,1.17-1.64,1.41-2.65.72-3.07.99-6.19,1.17-9.33.07-1.13-.31-2.63,1.16-3.13,1.45-.49,2.08.9,2.87,1.74,2.33,2.46,4.82,4.64,8.39,4.94,1.43.12,3.26.44,3.64-1.52.34-1.8-1.17-2.55-2.66-2.99-1.59-.47-3.26-.69-4.82-1.26-4.56-1.68-6.55-6.43-4.75-10.86,4.94-12.16,7.26-24.73,6.23-37.91-.5-6.38-1.91-12.52-4.1-19.28,2.02,2.36,2.78,4.51,3.5,6.65,5.77,17.29,3.17,34.06-3.19,50.6-.42,1.09-1.72,2.47-.98,3.22,1.02,1.04,2.35-.39,3.4-.93,17.81-9.25,31.02-23.03,40.12-40.84.96-1.88,1.92-3.76,2.88-5.64-2.83,11.04-8.43,20.51-16.03,28.9-7.58,8.37-16.73,14.66-26.89,20.35,15.75,4.59,31.18,7.6,47.18,6.62-5.23-1-10.51-1.78-15.63-3.48,10.5-1.38,21.19-1.2,31.53-3.7-6.45-.17-12.85.72-19.32-.28,6.01-.89,12.01-1.78,18.02-2.67-13.33-.44-26.58,1.36-40.57.63,1.59-2.03,3.05-2.99,4.42-4.02,13.37-10.04,23.56-22.6,30.05-38.05,3.6-8.58,6.2-17.41,5.41-26.89-.58-6.98-4.76-11.15-11.69-11.76-5.07-.45-9.93.51-14.71,2.06-10.03,3.26-18.6,8.93-26.4,15.89-2.34,2.09-2.31,2.11-3.32-.96-.4-1.23-.82-2.45-1.26-3.67-1.29-3.56-1.28-3.52-4.67-2.05-15.15,6.56-30.9,10.56-47.46,11.01-20.18.56-39.21-4.01-57.14-13.18-1.43-.73-2.05-.49-2.77.83-2.12,3.89-4.35,7.75-5.78,11.96-.83,2.44-1.5,2.47-3.44.81-10.78-9.19-22.81-15.99-36.96-18.5-10.92-1.94-16.28,2.19-17.45,13.19-.94,8.86,1.29,17.04,5.08,24.9,7.08,14.69,17.86,26.16,31.06,35.51,1.02.72,2.27,1.24,2.99,2.85-13.79,1.61-27.49,2.32-41.15,3.37,0,.27-.01.55-.02.82h29.36c0,.27,0,.53,0,.8-7.46,2.7-15.37,3.45-23.04,5.32,9.84-.37,19.46-2.93,29.39-2.75-3.75,1.13-7.5,2.27-11.25,3.4Zm77.53-159.65c-1.11-1.7-2.19-3.42-3.35-5.08-6.02-8.63-15.82-12.37-25.15-9.61-11.54,3.4-18.43,15.58-15.46,27.6.56,2.26.36,3.66-1.69,5.06-2.03,1.39-3.8,3.24-5.47,5.08-9.55,10.55-10.23,24.01-1.9,35.52,2.62,3.63,5.71,6.81,9.29,9.46,15.33,11.36,32.86,17.03,51.53,19.35,19.38,2.41,38.11-.84,56.27-7.7,10.08-3.81,19.7-8.53,27.51-16.17,7.01-6.87,10.46-15.17,8.7-25.09-1.47-8.32-6.25-14.68-12.63-19.92-1.47-1.2-2.07-2.2-1.37-4.18.97-2.78,1.42-5.75,1.1-8.74-1.08-10.07-7.44-17.87-16.59-20.43-8.49-2.37-17.6.97-23.74,8.8-1.48,1.89-2.75,3.94-4.11,5.92.37-1.82-.58-2.37-2.06-2.62-12.87-2.13-25.74-2.29-38.61.03-1.54.28-2.66.82-2.25,2.69Zm-40.67,155.45c-3.97,1.01-7.7,2.04-11.48,2.89-8.02,1.8-16.05,3.55-24.26,4.25-1.73.15-3.92.59-4.97-.9-1.22-1.74-2.45-1.45-3.99-1.17-3.92.7-7.86,1.21-11.85.84-1.33-.12-2.66-.51-2.8-2.14-.14-1.67,1.07-2.17,2.44-2.46,1.97-.41,3.93-.84,5.9-1.26-3.31-.51-6.62-.35-9.91-.57-1.73-.11-4.31-.18-4.27-2.56.04-2.55,2.69-2.43,4.53-2.61,3.86-.37,7.75-.5,11.62-.76,1.47-.1,2.94-.29,4.42-.4,1.44-.11,2.88-.17,4.31-.26-12.2-2.85-24.55-4.31-36.45-7.89,12.22,1.89,24.39,3.99,36.56,6.1,4.64.81,9.28,1.17,14.13.38-.32-.4-.45-.66-.66-.81-7.19-5.14-13.56-11.15-19.04-18.08-.95-1.2-1.92-1.06-3.17-.8-10.5,2.18-20.78,5.13-30.9,8.64-10.08,3.49-19.78,7.79-27.82,15.08-9.89,8.97-10.35,19.42-.66,28.54,12.19,11.48,26.57,16.15,43.32,12.59,19.05-4.05,37.09-11.05,55.09-18.28,9.27-3.72,17.88-8.83,27.25-12.27,2.18-.8,2.7-1.74,1.87-3.88-3.92,1.78-7.65,3.87-11.87,4.65-5.77,1.06-8.23-1.2-7.33-6.87Zm-18.41,32.27c-4.74,4.91-8.03,10.55-8.6,17.46-.61,7.46,2.42,13.07,8.87,16.86,3.61,2.12,7.5,3.55,11.5,4.71,13.76,3.99,27.94,5.26,42.15,5.91,41.3,1.91,82.14-1.54,122.32-11.56,19.29-4.81,38.18-10.82,55.63-20.64,6.55-3.68,12.77-7.82,17.66-13.66,4.59-5.47,6.7-12.12,5.43-17.64-2.82,10.93-10.7,17.3-19.53,22.83-5.17,3.24-10.66,5.89-16.27,8.27-26.14,11.12-53.67,16.74-81.65,20.43-22.67,2.99-45.47,3.93-68.33,3.32-14.05-.38-28.05-1.38-41.82-4.41-7.59-1.67-15.05-3.79-21.56-8.3-5.18-3.59-7.83-8.4-7.37-14.86.21-2.97,1.19-5.75,1.57-8.73Zm7.06-10.8c-.42.13-.84.24-1.25.4-9.65,3.95-19.29,7.93-29.28,10.96-11.39,3.46-22.73,7.19-34.8,7.47-1.13.03-1.64.55-1.98,1.53-.49,1.43-.64,2.89-.5,4.37.32,3.54,1.67,4.79,5.17,4.54,1.83-.13,3.66-.49,5.45-.92,13.07-3.17,25.26-8.75,37.61-13.89,3.06-1.28,6.79-1.82,9.07-3.93,3.6-3.34,7.09-6.86,10.51-10.54Zm-144.46-68.88c.63,3.89,2.55,6.21,5.36,7.94,3.74,2.31,7.84,3.71,12.06,4.73,18.65,4.53,37.48,4.79,56.4,2.08,8.77-1.26,17.4-3.24,25.93-5.68,2.51-.72,1.85-1.82,1-3.28-.49-.84-1.12-.76-1.89-.49-1.48.51-2.97,1.04-4.49,1.4-22.31,5.37-44.84,7.14-67.61,3.8-9.51-1.39-19.02-3.11-26.75-10.5Zm39.49,64.92c-.39,7.05,2.69,13.81,8.49,19.06,5.21,4.71,11.2,8.13,17.73,10.63,3.06,1.17,6.12,2.38,9.51,2.74-1.05-4.11-1.24-4.79-.4-7.76.56-1.98-.12-2.32-1.89-2.67-13.97-2.75-25.63-9.12-33.44-22Zm190.84-10.97c1.5,1.6,2.7,2.85,3.86,4.14.63.7,1.18.67,1.85.04,1.85-1.72,3.8-3.33,5.31-5.88-3.74,1.21-7.07,2.68-11.02,1.69Zm-64.6-9.48c0-.16-.01-.32-.02-.49-1.16-.18-2.32-.39-3.49-.53-.61-.07-1.41-.23-1.19.85.15.74.1,1.81,1.43,1.34,1.09-.39,2.19-.78,3.28-1.17Z"/>
    <path class="cls-2" d="m542.88,123.7c3.49-1.37,6.72-2.02,10.11-1.76,4.67.37,6.98,2.98,6.72,7.66-.15,2.74-1.21,5.2-2.43,7.59-3.17,6.21-7.75,11.22-13.19,15.51-.7.55-1.49.94-1.57,2.09-.42,6.19-3.9,10.76-8.55,14.3-8.82,6.73-18.53,11.11-30.05,9.59-.34-.04-.68,0-1.12,0,.32,1.25,1.33,1.66,2.05,2.3,11.83,10.58,25.94,16.43,41.25,19.74,1.17.25,2.33.58,3.45.99,2.97,1.07,4.16,2.9,3.75,5.65-.39,2.62-2.25,4.11-5.38,4.07-8.83-.09-17.48-1.39-25.86-4.21-12.21-4.11-14.64-5.54-31.08-17.69-.14,4.28-.28,8.39-1.21,12.4-1.37,5.93-3.73,11.39-7.32,16.31-1.76,2.4-3.78,4.56-6.38,6.09-3.64,2.15-7.11,2.13-10-.5-1.58-1.44-2.24-.94-3.42.31-3.69,3.92-7.84,7.31-12.6,9.89-2.28,1.23-4.66,2.22-7.28,2.53-5.3.64-8.63-1.82-9.81-7.07-.67-2.98-.35-5.9.19-8.8.31-1.68-.15-1.82-1.64-1.67-5.04.51-9.97-.15-14.69-1.99-9.58-3.73-11.82-12.21-5.31-20.18,4.4-5.4,10.45-8.43,16.69-11.07,12.17-5.16,24.85-8.86,37.45-12.75.79-.24,1.58-.45,2.48-.7-1.92-2.27-3.56-3.25-6.66-1.49-4.47,2.54-9.85,1.11-13.08-2.62-3.22-3.71-3.74-9.31-1.25-13.44,2.61-4.32,7.73-6.42,12.68-5.19.8.2,1.59.42,2.41.64.23-1.53.34-3.01.68-4.43,1.54-6.44,7.72-10.17,13.96-8.48,6.45,1.75,10.41,8.23,7.93,14.43-1.38,3.44-.84,6,.74,9.15,1.39-2.77,2.71-5.37,4-7.99,6.48-13.18,12.87-26.41,21.25-38.53,3.18-4.59,6.85-8.73,11.49-11.91,2.22-1.52,4.59-2.73,7.22-3.42,6.25-1.64,10.93.84,13.09,6.98,1.74,4.95,1.43,10,.73,15.07-.1.72-.23,1.43-.42,2.63Zm-63,53.89c-.06,1.89-.81,3.59-1.58,5.27-8.1,17.87-21.48,29.69-40.42,35.05-1.13.32-2.14.5-2.36,1.87-.52,3.2-1.05,6.37-.2,9.61,1.04,3.98,3.59,5.65,7.63,4.84,4.27-.86,7.9-3.05,11.28-5.65,10.47-8.07,18.07-18.4,23.37-30.43,2.31-5.24,4.17-10.67,4.3-16.5.04-1.72.09-3.55-1.7-4.65-.92-1.91-1.49-4.49-4.2-4.27-2.63.22-5.26.97-7.8,1.78-10.63,3.39-21.26,6.78-31.81,10.39-6.45,2.21-12.84,4.7-18.39,8.83-2.85,2.12-5.38,4.53-6.91,7.8-2.13,4.53-.93,8.83,3.2,11.63,1.78,1.2,3.75,1.98,5.8,2.56,8.52,2.4,16.68.77,24.59-2.49,14.49-5.97,24.57-16.67,31.89-30.26,1-1.85,1.67-3.92,3.3-5.38Zm11.53-9.05c.14,2.42,1.94,1.82,3.24,1.59,15.88-2.82,30.89-8.03,44.54-16.74,6.32-4.03,11.54-9.24,15.31-15.77,1.52-2.64,2.88-5.39,2.98-8.55.1-2.94-1.22-4.48-4.17-4.78-2.89-.3-5.69.15-8.44,1.14-1.85.67-2.94,1.69-3.61,3.7-2.99,8.98-7.99,16.61-15.74,22.26-9.7,7.07-20.38,12.27-31.5,16.64-.83.33-1.69.79-2.67.58,1.13-1.12,2.62-1.65,3.98-2.38,8.39-4.47,16.88-8.75,24.92-13.86,9.35-5.94,15.87-14,19.04-24.65,1.99-6.69,3.36-13.48,1.31-20.43-1.68-5.71-5.7-7.74-11.32-5.82-5.33,1.82-9.42,5.37-13.02,9.55-3.63,4.22-6.53,8.94-9.38,13.7-7.54,12.61-13.44,26.09-20.45,38.98-.26.47-.76.98-.17,1.45,1.6,1.28,2.73,3.32,5.14,3.38Zm-7.17,13.67c-1.8,13.87-7.91,25.69-16.54,36.34-1.79,2.21-1.62,3.03.93,4.33,1.98,1.02,3.94.77,5.84-.21,2.1-1.08,3.71-2.75,5.16-4.56,5.92-7.41,8.52-15.97,9.11-25.36.27-4.29-.51-7.82-4.5-10.54Zm55.75-26.22c-7.05,3.99-14.31,7.36-21.84,10.17-7.46,2.78-15.16,4.69-23.73,6,9.58,6.85,18.82,5.34,27.92,1.31,7.99-3.54,15.27-8.08,17.65-17.47Zm-39.85,25.09c.11-1.42-.91-1.92-1.64-2.55-3.51-3-7.13-5.86-10.56-8.95-4.36-3.92-4.29-3.99-8.03.35-.06.07-.12.15-.19.2-.85.66-.74,1.29-.09,2.08,4.05,5.03,7.75,10.35,12.55,14.73.53.49.97,1.08,1.87.96,2.22-.29,6.07-4.68,6.09-6.83Zm-35.55-32.43c-.13,4.6,4.53,9.06,9.63,9.2,4.72.13,9.07-4.29,9.16-9.3.09-4.95-4.05-9.26-9.01-9.41-5.4-.16-9.61,3.93-9.78,9.5Zm-7.57,2.8c-5.32.02-9.43,4.03-9.41,9.19.02,5.11,4.24,9.26,9.42,9.27,5.08.01,9.33-4.31,9.25-9.41-.08-5.07-4.16-9.07-9.26-9.05Zm11.31,6.71c.02,3.21-.27,5.94-1.59,8.44-.28.53-.46,1.04.05,1.5,1.5,1.35,2.97,2.95,5.05,3.19,4.63.53,12.4-6.48,10.56-12.86-.33-1.15-.79-1.23-1.73-.6-3.88,2.63-7.92,2.59-12.34.33Zm26.38,31.39c1.66,1.34,3.19,2.51,4.64,3.77,1.87,1.62,3.45.64,4.92-.55,1.99-1.61,3.28-3.68,3.43-6.3.01-.24-.46-.54-.74-.77-1.77-1.43-3.54-2.85-5.5-4.42-.77,4.06-3.34,6.41-6.75,8.28Zm8.2,6.14c1.74,1.07,3.19,2.01,4.69,2.86,2.93,1.65,4.41,1.08,6.48-2.4,1.73-2.91,1.46-4.41-1.14-6.14-1.19-.79-2.37-1.58-3.73-2.49-.9,3.71-2.96,6.28-6.31,8.17Zm9.05,5.36c2.45.94,4.4,1.74,6.39,2.44.64.23,1.32.73,2.09.18,2.24-1.59,2.88-3.87,3.1-6.47.19-2.25-1.71-2.07-2.84-2.75-1.16-.7-2.44-1.18-4.03-1.92-.15,3.5-1.82,6.07-4.71,8.52Zm20.18,1.02c-.02-2.82-1.86-4.62-5.98-4.95-2.12-.17-.92,2.2-1.51,3.29-.26.48-.41,1.03-.58,1.55-.33,1.04-1.88,1.98-1.32,2.79.54.78,2.11.86,3.23,1.23.35.12.71.2,1.07.29,3.69.9,5.11-.28,5.09-4.21Zm1.55-2.1c-.29,1.81.46,3.71-.44,5.27-1.26,2.18-.31,2.66,1.66,2.79,1.29.09,2.56.34,3.84.53.95.14,1.55-.27,2.04-1.07,1.56-2.56.37-5.73-2.48-6.45-1.51-.38-3.04-.7-4.61-1.06Zm9.14,2.47c.11,1.19.09,2.12.29,2.99.29,1.21-1.37,2.63-.09,3.42.95.6,2.5.25,3.78.31.55.03,1.1.02,1.65.02,1.47.01,2.51-.55,2.73-2.11.21-1.46-.36-2.49-1.8-3-2.07-.74-4.16-1.39-6.56-1.64Z"/>
    <path class="cls-2" d="m90.37,133.64c-2.55-7.46-4.79-14.49-6.06-21.78-1.91-10.99-2.44-21.92,2.62-32.3,4.06-8.31,10.5-13.72,19.92-15.01,5.09-.7,9.67.91,13.99,3.43,5.55,3.25,9.77,7.87,13.27,13.16,1.06,1.6,1.77,1.86,3.33.47,3.7-3.28,7.96-5.71,12.72-7.11,7.59-2.23,13.61-.12,18.19,6.34,3.57,5.02,5,10.87,6.18,16.77,1.86,9.28,2.47,18.67,2.31,28.13-.02.94-.77,2.62.77,2.76,1.64.15,3.7.84,4.78-1.54,1.66-3.66,2.68-7.47,3.13-11.43.53-4.6.64-9.22.49-13.85-.08-2.33.12-4.54-2.39-6.23-1.77-1.19-1.43-3.48.06-5.17,1.38-1.56,3.95-1.7,5.54-.41,1.72,1.4,2.24,4.18.51,5.64-1.94,1.63-1.6,3.39-1.53,5.39.32,8.99.33,17.94-3.46,26.41-.24.53-1.14,1.4-.03,1.86,1.11.46,2.19,1.73,3.54.73,6.86-5.09,14.38-9.03,21.94-12.92.86-.44,1.02-.99,1.04-1.96.05-2.65,2.14-4.41,4.52-4.03,2.28.36,3.68,2.36,3.25,4.66-.44,2.36-2.44,3.64-5,2.99-.85-.22-1.51-.36-2.33.07-6.98,3.61-13.89,7.33-20.37,11.79-1.02.71-2,1.22-.58,2.68,7.5,7.69,2.27,19.9-8.13,22.15-6.21,1.34-6.1,1.43-10.66,6.3-8.9,9.52-19.52,16.94-30.3,24.12-3.69,2.45-7.52,4.71-11.53,6.61-2.59,1.23-5.23,2.33-8.15,2.53-5.58.39-8.77-3.1-7.81-8.61.78-4.49,2.93-8.31,5.82-11.78,2.74-3.28,6.09-5.89,9.19-8.87-7.04,2.55-14.17,4.64-21.48,6.13-10.37,2.12-20.79,3.22-31.39,1.95-8.93-1.07-13-4.73-14.58-13.58-.93-5.17-.79-10.32.68-15.37,2.15-7.4,8.24-12.08,15.92-12.38,3.88-.15,7.71.32,12.07,1.24Zm99.14,14.42c4.25-5.29,2.82-12.09-3.31-15.74-5.18-3.09-12.16-1.63-15.28,3.19-3.49,5.39-2.19,12.89,2.84,16.34,4.6,3.15,11.56,1.69,15.21-3.21.18-.19.36-.38.53-.58Zm-40.65.16c.7,1.23,1.15,1.61,2.84.75,3.37-1.7,3.16-4.14,2.66-7.09-3.12-18.35-8.84-35.82-17.73-52.19-3.59-6.61-7.81-12.79-13.81-17.51-11.09-8.74-24.34-6.54-31.99,5.35-4.75,7.38-5.88,15.6-5.32,24.18.67,10.42,3.43,20.34,6.81,30.15.64,1.87,1.53,2.86,3.43,3.42,3.44,1.01,6.79,2.34,9.85,4.3-1.95-.2-3.81-.66-5.67-1.13-6.79-1.73-13.5-3.88-20.63-3.77-7.46.11-12.94,4.18-14.84,11.35-1.4,5.27-1.29,10.61.06,15.9,1.29,5.05,4.37,8.18,9.67,9,2.65.41,5.29.86,7.97.93,14.97.38,29.36-2.59,43.38-7.63,5.73-2.06,11.33-4.39,16.18-8.56-4.18-2.11-8.41-3.72-12.15-6.3,4.11,1.32,8.1,2.92,12.15,4.36,3.05,1.09,7.4-2.35,7.19-5.56l-.05.05Zm19.55-15.9c-.18-1.07-.44-2.14-.53-3.22-.69-7.93-2.02-15.75-4.01-23.45-1.48-5.73-3.12-11.43-7.03-16.11-2.57-3.08-5.34-3.81-9.18-2.6-1.97.62-3.66,1.72-5.35,2.86-1.6,1.08-1.77,2.18-.88,3.92,4.46,8.74,7.94,17.88,10.66,27.3,2.05,7.1,3.65,14.3,4.75,21.62.11.72.08,2.55,1.16,1.66,3.44-2.86,8.65-3.62,10.3-8.64.66-1.99,2.25-3.45,3.99-4.48,1.56-.92,2.07-2,2.12-3.76.29-10.02-.37-19.96-2.31-29.79-1.07-5.44-2.45-10.83-5.76-15.45-3-4.18-6.85-6.78-12.22-6.1-6.38.81-11.58,4.09-16.34,8.2-.51.44-.78.83-.48,1.64,1.27,3.46,2.25,3.83,5.15,1.82.83-.58,1.69-1.13,2.59-1.6,5.63-2.91,10.02-1.94,13.88,3.09.78,1.02,1.55,2.1,2.1,3.25,5.98,12.62,7.52,26.12,7.38,39.84Zm-24.64,25.51c-.22.12-.48.23-.69.39-2.86,2.17-5.71,4.37-8.59,6.52-1.02.76-.4,1.39-.02,2.12,2.44,4.54,4.95,9.05,7.25,13.67.79,1.59,1.45,1.48,2.65.6,2.45-1.8,4.91-3.6,7.46-5.25,1.52-.99,1.49-1.91.64-3.36-2.61-4.45-5.09-8.97-7.64-13.46-.26-.46-.4-1.06-1.06-1.22Zm20.9,7.15c-.12-.25-.22-.51-.35-.75-2.74-4.7-5.5-9.4-8.21-14.12-.61-1.06-1.16-.52-1.75-.1-2.86,2.03-5.7,4.09-8.58,6.1-.94.66-1.03,1.18-.33,2.18,3.04,4.41,5.62,9.11,8.04,13.88.65,1.28,1.15,1.69,2.39.63,2.52-2.16,5.15-4.21,7.71-6.33.48-.4,1.1-.73,1.09-1.5Zm-33.21,23.99c.27-.14.52-.25.76-.39,2.71-1.58,5.39-3.22,8.14-4.74,1.41-.78,1.04-1.67.47-2.74-2.39-4.48-4.78-8.96-7.12-13.47-.54-1.03-.99-1.44-2.03-.54-2.45,2.11-4.96,4.15-7.44,6.23-.82.69-1.31,1.34-.61,2.56,2.27,3.91,4.39,7.91,6.57,11.87.29.53.41,1.28,1.26,1.22Zm35.26-47.5c-3.27,2.23-6.16,4.18-9.03,6.15-.71.49-1.3.94-.67,2,2.74,4.58,5.43,9.19,8.11,13.81.52.89,1.04.88,1.73.23,2.43-2.28,4.7-4.68,6.38-7.59.45-.78.65-1.41-.34-2.06-4.28-2.83-6.07-7-6.19-12.53Zm-50.39,45.54c-.14,4.28,2.15,6.3,5.76,5.71,2.29-.38,4.39-1.3,6.51-2.2,1.11-.47,1.35-1.11.81-2.13-2.07-3.9-4.13-7.8-6.19-11.7-.55-1.04-1.14-1.02-1.85-.15-2.65,3.27-4.64,6.84-5.04,10.48Zm70.23-95.84c-1.07.23-1.63.83-1.57,1.9.05.98.7,1.53,1.58,1.52,1.02,0,1.71-.68,1.72-1.72,0-1.09-.8-1.53-1.73-1.7Zm30.43,23.76c-.24-.89-.72-1.65-1.81-1.68-.96-.03-1.62.53-1.67,1.47-.05,1.08.61,1.69,1.71,1.74,1,.04,1.5-.55,1.77-1.53Z"/>
    <path class="cls-2" d="m86.54,456.5c1.99-7.31,4.31-13.92,7.73-20.08,2.03-3.65,4.33-7.12,7.79-9.61,2.67-1.92,3.87-1.69,5.58,1.15,6.41,10.65,10.24,22.25,12.54,34.4.15.81.33,1.61.51,2.47,1.06-.32,1.09-1.26,1.44-1.92,4.7-8.76,10.51-16.54,19.3-21.62,5.64-3.26,6.41-2.72,7.14,3.81.98,8.79.09,17.52-.59,26.7,1.28-.99,2.32-1.8,3.35-2.6,3.89-3.03,8-5.64,12.87-6.82,7.84-1.9,13.72,2.66,13.63,10.73-.06,5.63-2.21,10.61-5.31,15.21-4.46,6.61-10.4,11.73-16.73,16.43-6.53,4.86-12.97,9.82-18.44,15.92-5.17,5.77-9.19,12.28-12.12,19.42-1.47,3.58-3.88,5.1-7.69,5.7-2.81.44-5.5,1.8-8.45,2.06-2.63.24-5.29,1.22-7.59-1.05-.61-.6-1.4.04-2.11.12-7.25.8-10.2-.33-12.81-6.23-3.93-8.91-10.29-15.9-18.17-21.59-3.97-2.86-7.9-5.78-11.46-9.18-7.95-7.62-12.28-16.96-13.27-27.87-.12-1.37-.04-2.78.15-4.14.78-5.42,3.04-6.84,8.47-5.51,4.66,1.14,8.61,3.67,12.89,6.69-2.4-7.48-3.69-14.69-4.23-22.05-.49-6.69-.15-13.31,1.96-19.72,1.29-3.9,2.45-4.2,5.7-1.66,6.49,5.07,11.43,11.52,16.07,18.23.51.74,1.03,1.47,1.83,2.6Zm26.74,39.1c1.14-8.19,2.29-16.13,5.1-23.72.28-.76.47-1.64.37-2.43-1.66-14-5.75-27.22-12.61-39.57-1.11-1.99-2.18-1.84-3.64-.48-2.81,2.62-4.94,5.73-6.69,9.12-8.88,17.26-11.35,35.34-6.92,54.29.86,3.68,1.55,7.43,3.05,11.28,3.91-9.04,12.11-14.58,21.34-8.5Zm4.49,47.67c2.85-.21,4.25-1.41,5.17-3.65,3.7-8.98,8.95-16.96,15.85-23.83,4.47-4.45,9.46-8.26,14.46-12.06,5.96-4.53,11.91-9.09,16.35-15.26,2.96-4.11,5.07-8.58,5.8-13.62,1.11-7.66-4.07-12.12-11.48-9.94-2.59.76-5,1.92-7.24,3.39-8.49,5.56-14.97,13.11-20.82,21.26-3.93,5.48-7.17,11.46-11.57,16.58-2.5,2.91-3.57,5.65-3.09,9.64,1.11,9.25-.02,18.4-3.43,27.48Zm-71.83-61.89c.52,9.45,4.3,18.33,11.51,25.72,3.63,3.72,7.78,6.82,11.97,9.86,8.37,6.09,15.03,13.59,19.46,23.03,2.11,4.5,3.63,5.16,8.51,4.88,2.11-.12,2.61-.63,1.4-2.62-3.49-5.7-6.15-11.81-7.49-18.37-.69-3.38-1.66-6.54-3.3-9.58-5.09-9.44-10.21-18.85-17.48-26.87-4.83-5.33-10.29-9.84-17.19-12.26-5.69-2-7.41-.71-7.39,6.22Zm73.23,38.28c.15-4.84-.84-11.73-4.45-18.02-4.72-8.21-13.08-8.5-18.45-.69-2.54,3.69-3.62,7.87-3.77,12.28-.32,9.34,2.61,17.86,7.07,25.87,4.92,8.82,3.59,6.98,12.44,6.03,2.04-.22,3-1.3,3.73-3.09,2.61-6.45,3.4-13.19,3.44-22.37Zm.79-11.95c3.62-4.13,6.59-8.22,9.34-12.49,4.4-6.85,9.01-13.54,14.77-19.34.71-.71.94-1.5,1.08-2.44,1.51-9.81,2.02-19.64,1.02-29.54-.21-2.11-.91-2.19-2.59-1.28-5.99,3.26-10.53,8.06-14.48,13.48-8.94,12.3-12.14,26.51-13.7,41.26-.07.71.12,1.26.49,1.81,1.72,2.54,2.72,5.42,4.06,8.54Zm-30.15,4.87c1.74-3.88-.14-7.2-1.11-10.59-3.81-13.29-5.64-26.71-3.16-40.48.18-.99-.05-1.79-.54-2.62-4.25-7.09-9.12-13.68-15.3-19.21-1.19-1.07-2.45-3.11-3.91-2.54-1.32.52-1.32,2.87-1.62,4.48-2.56,13.66-.19,26.8,4.31,39.7.29.82.79,1.42,1.38,2.02,4.47,4.57,8.48,9.51,11.73,15.03,2.75,4.68,5.45,9.39,8.23,14.21Z"/>
    <path class="cls-2" d="m469.39,441.04c22.4.25,44.7,1.51,66.51,7.18,7.89,2.05,15.38,5.01,22.6,8.9,12.78,6.9,12.52,22.85,2.85,31.22-5.68,4.92-12.13,8.39-19.08,11.03-12.43,4.71-25.4,7.1-38.51,8.86-18.09,2.43-36.26,3.22-54.5,2.24-18.03-.97-35.89-3.03-53.1-8.9-6.14-2.09-12.05-4.68-17.05-8.99-4.31-3.72-6.61-8.34-6.49-14.09.02-1.2.14-2.42,0-3.6-.93-8.31,3.33-13.68,9.96-17.69,9.54-5.76,20.04-8.91,30.83-11.17,18.45-3.87,37.17-4.77,55.96-4.98Zm-3.18,2.24c-3.54-.12-10.37.28-17.2.62-15.16.75-30.19,2.52-44.82,6.71-8.79,2.52-17.37,5.61-24.57,11.63-5.72,4.78-6.35,11.79-1.34,17.28,1.57,1.72,3.43,3.08,5.4,4.31,4.65,2.91,9.71,4.89,14.92,6.54,14.45,4.57,29.34,6.42,44.39,7.45,20.52,1.41,40.97.69,61.39-1.59,8.8-.98,17.49-2.61,26.12-4.61,9.5-2.2,18.69-5.11,26.97-10.39,3.07-1.96,5.64-4.46,7.22-7.85,1.57-3.38,1.14-6.44-1.25-9.27-2-2.37-4.48-4.12-7.14-5.63-8.44-4.79-17.61-7.53-27.02-9.59-19.68-4.3-39.67-5.42-63.05-5.6Zm99.45,33.19c-6.96,8.66-16.52,12.13-26.24,15.13-13.72,4.24-27.9,6.33-42.15,7.64-24.36,2.24-48.76,2.46-72.99-1.12-17.58-2.59-35.32-5.36-49.37-18.39.11,5.36,2.89,8.98,6.72,11.98,5.85,4.58,12.69,7.14,19.69,9.23,18.29,5.46,37.13,7.12,56.09,7.64,16,.44,31.95-.49,47.81-2.77,13.08-1.88,26.05-4.32,38.35-9.35,7.5-3.06,14.56-6.87,19.51-13.6,1.3-1.77,2.47-3.64,2.58-6.4Z"/>
    <path class="cls-2" d="m467.88,316.5c-3.53-6.35-6.64-12.73-7.24-20-.05-.64-.11-1.29-.1-1.94.09-3.87,1.68-4.98,5.35-3.55,5.11,1.98,9.77,4.79,14.14,8.08.5.38.91.95,1.89.84-.83-4.06-2.07-8.01-2.58-12.11-.33-2.67-.58-5.33-.42-8.01.15-2.57.86-2.97,3.13-1.8,6.91,3.57,11.97,9.17,16.56,15.27.77,1.02,1.5,2.08,2.51,3.49.83-4.57,1.51-8.76,2.36-12.92.83-4.08,2.11-8.04,4.21-11.66,3.03-5.22,6.9-5.36,10.2-.26,4.2,6.48,5.89,13.87,7.32,21.32.33,1.69.53,3.41.85,5.47,1.89-1.98,3.5-3.84,5.6-5.15,1.99-1.24,4.09-2.18,6.44-2.31,5.87-.32,9.73,4.51,8.59,10.76-.62,3.39-1.97,6.54-3.57,9.56-3.19,6.04-6.42,12.06-9.7,18.05-4.47,8.18-6.97,16.87-6.81,26.22.03,1.98-.65,3.17-2.55,3.66-1.16.29-2.33.81-3.49.8-5.94-.03-11.85,1.5-17.81.19-1.38-.3-2.91.12-4.37.08-3.12-.08-5.77-1.06-7.47-3.92-6.69-11.25-16.79-17.88-29.14-21.48-2.83-.82-5.63-1.78-8.38-2.84-2.71-1.05-5.06-2.68-6.73-5.14-2.95-4.35-1.79-9.1,2.95-11.34,5.29-2.5,10.63-1.53,15.92.15.61.19,1.21.44,1.81.65.07.02.16-.05.5-.16Zm50.94,19.36c2.47-8.08,4.23-15.87,4.88-23.92.95-11.82-.77-23.2-5.28-34.15-.91-2.22-2.04-4.35-3.71-6.14-1.36-1.45-2.71-1.4-3.99.11-1.27,1.5-2.04,3.28-2.72,5.11-1.64,4.43-2.69,9.01-3.5,13.65-.94,5.39-1.82,10.74,1.27,15.84.7,1.15.98,2.59,1.24,3.94.73,3.79,1.69,7.26,4.93,9.97,2.3,1.93,3.44,4.99,4.46,7.88.82,2.34,1.5,4.74,2.42,7.69Zm-19.14,22.09c-3.25-5.16-4.47-10.7-5.05-16.41-.07-.71-.39-1.13-.89-1.61-2.88-2.73-5.61-5.63-8.57-8.27-6.41-5.75-13.06-11.19-21.47-13.83-4.31-1.35-8.68-1.93-12.98.02-3.41,1.55-4.28,4.62-2.32,7.77,1.05,1.69,2.55,2.9,4.29,3.82,2.38,1.26,4.93,2.05,7.48,2.85,4.93,1.54,9.85,3.08,14.42,5.56,7.49,4.06,13.35,9.83,17.86,16.99,1.66,2.64,3.89,3.64,7.22,3.11Zm14.9.2c2.77.33,5.16.09,7.5-.48,1.4-.34,2.44-.97,2.39-2.83-.25-9.29,2.49-17.82,6.75-25.97,3.76-7.2,8.17-14.05,11.38-21.54,1.05-2.46,2.03-4.96,1.99-7.72-.05-3.31-2.09-5.64-5.31-6.02-5.22-.62-12.99,6.2-12.98,11.48.02,8.65-1.39,17.09-3.55,25.44-.92,3.56-3.01,6.91-3.45,10.39-.75,5.93-1.85,11.61-4.72,17.23Zm2.26-16.94c-.36-6.94-2.11-13.85-6.75-19.7-4.25-5.36-8.67-4.64-11.05,1.73-2.47,6.63-2.71,13.51-1.82,20.45.53,4.13,1.72,8.07,3.57,11.84,1.5,3.05,4.1,2.89,6.79,3.06,2.68.17,4.6-.6,5.8-3.14,2.08-4.4,3.28-8.98,3.45-14.24Zm-22.65-4.01c.92-5.22.9-9.61-2.07-14-3.34-4.94-5.58-10.58-7.61-16.23-.28-.77-.49-1.58-1.16-2.16-5.42-4.65-11.15-8.8-17.88-11.37-2.46-.94-2.89-.58-2.63,2.14.84,8.6,4.36,16.11,9.43,22.97.27.37.56.77.93,1.01,7.7,4.83,14.46,10.79,20.99,17.65Zm1.73-12.46c.7-1.6,1.31-3.21,2.09-4.73,1.21-2.34,3.1-4.09,5.76-4.25,2.24-.14,1.98-1.09,1.62-2.64-2.9-12.27-9.95-21.85-19.38-29.86-1.38-1.17-2.9-2.2-4.67-2.87-1.27,9.44,7.42,35.77,14.59,44.35Z"/>
    <path class="cls-2" d="m368.93,512.97c.23,1.17-.54,1.93-1.07,2.73-4.96,7.44-16.53,11.91-25.2,9.78-2.94-.72-5.39-2.37-7.76-4.15-2.21-1.67-4.32-3.51-6.65-4.98-4.7-2.98-9.17-2.71-13.64.62-2.44,1.82-4.7,3.89-7.37,5.4-6.97,3.92-14.53,3.18-19.28-2.92-5.52-7.08-13.02-6.21-19.13-3.16-2.37,1.18-4.44,2.97-6.66,4.47-7.55,5.09-19.91,3.53-25.93-3.28-1.3-1.47-1.61-2.1-2.13-4.68,3.09,3.93,6.55,6.45,10.78,7.73,6.35,1.93,12.37,1.66,17.81-2.71,4.58-3.67,9.65-6.08,15.73-5.88,3.85.13,7.14,1.4,9.39,4.51,5.52,7.62,13.83,7.81,21.12,2.28,1.62-1.23,3.2-2.51,4.83-3.72,4.83-3.6,9.85-3.73,15.03-.8,2.27,1.28,4.27,2.92,6.21,4.63,6.68,5.89,14.07,6.28,21.95,2.88,3.78-1.63,7.04-4.03,9.89-7,.6-.63.97-1.58,2.07-1.75Z"/>
    <path class="cls-2" d="m194.22,239.03c-.02.4.03.59-.04.73-5.83,12.26-24.75,17.09-35.58,9.06-2.45-1.81-4.71-3.88-7.21-5.62-5.27-3.66-9.58-3.62-14.84.01-2.66,1.84-5.16,3.92-7.88,5.65-6.88,4.36-13.94,3.86-20.25-1.28-.79-.64-1.55-1.32-2.32-1.98-9.08-7.67-19.38-7.1-27.59,1.55-.8.84-1.58,1.71-2.64,2.86-.29-2.05.69-3.1,1.48-4.17,5.91-8.07,17.75-10.25,26.28-4.79,1.93,1.24,3.69,2.77,5.44,4.27,5.87,5.06,12.29,5.63,18.83,1.42,2.56-1.65,4.89-3.64,7.4-5.37,5.89-4.08,11.28-4.12,17.2-.04,2.13,1.46,4.11,3.15,6.09,4.81,6.22,5.23,13.14,5.81,20.54,3.1,4.94-1.81,9.18-4.7,12.83-8.48.61-.63.99-1.59,2.28-1.74Z"/>
    <path class="cls-2" d="m185.23,491.75c-.19-1.93.69-2.92,1.43-3.94,6.17-8.43,17.92-10.26,26.64-4.13,1.43,1.01,2.73,2.2,4.08,3.32,5.01,4.19,11.05,4.8,16.7,1.51,1.9-1.11,3.66-2.5,5.38-3.88,7.46-5.96,13.19-5.99,20.7-.01.51.4,1.04.78,1.5,1.23,9.25,8.96,19.98,6.05,27.46.53,2.19-1.62,4.11-3.6,6.38-5.62.26,1.65-.7,2.48-1.36,3.35-8.34,10.86-22.66,12.49-33.18,3.83-1.5-1.23-3.02-2.45-4.64-3.5-4.39-2.86-8.84-2.96-13.19.11-2.03,1.44-3.93,3.08-5.94,4.54-7.21,5.25-14.97,5.19-21.44-.86-10.34-9.68-22.16-6.6-29.08,1.97-.34.42-.73.79-1.44,1.55Z"/>
    <path class="cls-2" d="m412.6,88.33c-.09,1.36-.97,2.38-1.8,3.29-6.89,7.59-15.25,11.53-25.67,9.95-5.34-.81-9-4.46-12.78-7.87-5.35-4.81-11.39-5.76-18.02-3.2-2.78,1.07-5.18,2.85-7.52,4.66-3.19,2.47-6.76,3.78-10.76,3.88-6.89.17-12.91-1.92-17.73-7.01-1.13-1.19-2.02-2.52-2.43-4.31,1.34.21,1.65,1.2,2.23,1.83,7.32,8.12,19.48,9.54,28.29,3.18,4.33-3.12,8.79-5.75,14.37-5.85,4.26-.07,8,1.2,11.29,3.83,1.3,1.04,2.59,2.1,3.79,3.25,6.75,6.53,14.47,7.05,22.83,3.76,4.37-1.72,8.13-4.36,11.35-7.76.68-.72,1.17-1.63,1.75-2.45.27.26.54.53.82.79Z"/>
    <path class="cls-2" d="m120.68,205.29c1.16.22,1.46,1.08,1.99,1.68,7.65,8.65,20.13,10.01,29.43,3.19,2.84-2.08,5.72-4.04,9.14-5.08,5.27-1.61,10.24-1,14.84,2,1.85,1.21,3.62,2.58,5.23,4.09,7.07,6.63,15.01,7.2,23.59,3.54,4.22-1.8,7.78-4.57,11.01-7.79.59-.59.91-1.64,2.06-1.57.4.64-.07,1.09-.32,1.52-4.9,8.41-17.89,13.98-27.4,11.81-3.81-.87-6.91-2.97-9.82-5.45-2.74-2.33-5.39-4.8-8.91-5.96-4.58-1.51-8.96-.85-13.1,1.39-2.1,1.14-4.16,2.44-5.99,3.97-8.3,6.99-22.36,4.56-29.05-2.67-1.22-1.31-2.43-2.67-2.7-4.68Z"/>
    <path class="cls-2" d="m424.33,246.55c3.96,5.16,8.86,8.21,14.9,9.35,4.83.91,9.36.21,13.49-2.6,2.37-1.61,4.67-3.36,7.19-4.68,7.26-3.78,14.22-3.28,20.66,1.96,1.36,1.11,2.7,2.25,4.02,3.41,5.6,4.92,11.98,5.75,18.92,3.61,5.05-1.56,9.35-4.33,13.09-8.04.83-.82,1.43-1.95,2.71-2.33.62,1.12-.3,1.78-.79,2.39-6.44,8.11-14.79,12.04-25.18,11.1-2.98-.27-5.68-1.63-8.04-3.48-1.74-1.37-3.38-2.87-5.09-4.28-6.4-5.27-13.32-5.91-20.53-1.77-2.32,1.33-4.42,3.02-6.68,4.46-8.61,5.5-22.67,2.32-28.05-6.35-.42-.67-1.07-1.3-.63-2.76Z"/>
    <path class="cls-2" d="m201.41,161.75c4.9,4.51,9.89,6.85,15.82,6.79,3.63-.03,6.85-1.1,9.55-3.71,3.5-3.38,7.72-5.34,12.61-5.69,3.96-.28,7.46.89,9.62,4.32,4.08,6.5,12.36,8.28,19.67,2.11,1.55-1.31,3.17-2.54,4.79-3.77,3.89-2.97,8.02-2.89,12.25-.84,2.52,1.22,4.63,3.05,6.7,4.89,5.61,4.97,11.81,5.54,18.57,2.83,3.47-1.39,6.57-3.35,9.38-5.79.81-.7,1.61-1.4,2.54-2.2.07.48.17.69.11.79-4.67,6.92-15.67,11.67-23.22,10.07-3.17-.67-5.76-2.39-8.22-4.39-2.08-1.69-4.1-3.45-6.5-4.7-3.91-2.04-7.62-1.87-11.13.89-2.1,1.66-4.1,3.48-6.31,4.97-6.52,4.42-14.19,3.62-18.69-2.72-3.86-5.43-9.81-5.47-14.79-3.64-2.93,1.08-5.27,3-7.55,5.04-7.2,6.46-22.15,1.8-25.23-5.24Z"/>
    <path class="cls-2" d="m133.09,281.17c-4.11.24-8.23.37-12.32.74-17.23,1.58-34.3,3.96-50.51,10.49-3.87,1.56-7.59,3.41-10.8,6.12-4.96,4.18-5.03,9.69-.27,14.09,2.31,2.13,5.17,3.17,8.1,4.06.85.26,1.69.54,3.14,1-8.3.64-15.29-3.89-16.45-10.12-.81-4.36.85-7.8,4.07-10.57,4.05-3.48,8.82-5.71,13.77-7.55,19.44-7.2,39.63-9.32,60.21-8.74.36,0,.71.12,1.06.18,0,.1,0,.2,0,.3Z"/>
    <path class="cls-2" d="m424.3,523.34c3.2,3.86,7.24,6.19,12.14,7.16,5.17,1.02,9.89.31,14.1-3.08,1.65-1.33,3.39-2.6,5.25-3.59,5.69-3,11.18-2.53,16.36,1.34,2.66,1.99,4.94,4.47,8.03,5.87,6.23,2.83,11.91,1.01,17.41-2.06,3.23-1.8,5.88-4.36,8.6-7.27.47,1.47-.32,2.21-.9,2.9-5.4,6.44-12.07,10.22-20.72,9.71-3.25-.19-6.01-1.67-8.57-3.56-.82-.6-1.58-1.28-2.36-1.93-7.92-6.59-13.27-6.98-21.18-.31-7.93,6.67-18.27,4.75-23.89.69-2.02-1.46-3.8-3.14-4.26-5.9Z"/>
    <path class="cls-2" d="m280.63,460.04c32.03-1.12,63.21-2.76,94.26-6.29-10.34,4.66-80.44,9.4-94.26,6.29Z"/>
    <path class="cls-2" d="m262.1,459.83c-29.82-.63-59.08-4.73-87.5-14.1,28.91,6.33,58.11,10.82,87.5,14.1Z"/>
    <path class="cls-2" d="m448.88,67.81c1.68.91,2.75,1.53,3.86,2.09,6.12,3.12,11.48,2.52,16.59-1.96,2.51-2.2,5.38-3.56,8.64-4.06,3.52-.54,6.71.22,8.91,3.19,5.15,6.93,12.25,7.01,18.61,1.22,3.08-2.8,6.32-5.18,10.89-4.03,2.39.6,4.54,1.72,6.27,3.39,8.52,8.23,16.24,5.46,23.06.24.42-.32.88-.59,1.51-1-1.89,3.99-9.06,7.46-14.36,7.16-2.76-.15-5.24-1.01-7.43-2.69-1.25-.96-2.45-1.96-3.7-2.91-5.62-4.24-9.46-4.12-14.81.46-2.83,2.42-5.73,4.68-9.67,4.92-3.85.23-7.01-1.17-9.62-3.98-5.57-5.98-11.47-6.5-17.41-.73-5.59,5.43-13.73,4.55-18.88,1.24-.8-.51-1.65-1.02-2.45-2.55Z"/>
    <path class="cls-2" d="m106.03,380.55c-2.08-4.17-1.13-8.06,1.14-11.75,3.29-5.35,8.15-9.03,13.5-12.07,10.01-5.67,21.01-8.4,32.2-10.49.15-.03.32.12.57.21-4.87,1.61-9.7,3.09-14.46,4.8-8.28,2.97-16.28,6.58-23.39,11.83-4.42,3.27-8.38,7-9.45,12.84-.29,1.58.15,3.09-.1,4.62Z"/>
    <path class="cls-2" d="m410.32,517.61c-13.73-.55-27.36-2.1-40.02-8.18-3.19-1.54-6.14-3.46-8.21-6.43-3.07-4.39-2.22-9.67,1.86-11.95.37.2.17.45.04.66-2.95,4.37-2.54,8.26,1.33,11.83,3.33,3.08,7.44,4.77,11.63,6.26,9.96,3.55,20.36,5.24,30.7,7.19.9.17,1.78.41,2.67.61Z"/>
    <path class="cls-2" d="m298.17,139.19c2.28,1.12,4.23,2.3,6.34,3.08,6.6,2.44,12.58,1.8,17.8-3.51,4.67-4.75,12.19-5.39,17.84-1.78,1.47.94,2.85,2.05,4.14,3.24,5.77,5.33,12.17,5.49,19.01,2.46,3.65-1.62,6.69-4.12,9.74-6.82.39,1.17-.44,1.52-.88,2.01-2.84,3.14-6.29,5.43-10.24,6.91-6.96,2.61-13.24,1.43-18.74-3.62-2.42-2.21-5-4.1-8.35-4.61-4.87-.74-9.13.25-12.52,4.15-6.16,7.09-19.54,4.56-24.13-1.52Z"/>
    <path class="cls-2" d="m479.03,421.5c22.76-16.6,28.76-25.11,28.51-40.13,1.09,1.42,1.64,4.69,1.38,7.65-.43,4.8-2.1,9.13-4.76,13.14-5.23,7.86-17.16,17.18-25.13,19.34Z"/>
    <path class="cls-2" d="m117.64,346.19c-11.58-.43-22.91-1.79-33.41-6.83-3.19-1.53-6.06-3.57-7.74-6.86-1.66-3.25-1.37-6.74.74-9.17-.7,7.7,1.14,11.01,8.47,14.43,7.59,3.53,15.8,4.95,23.91,6.7,2.68.58,5.35,1.16,8.03,1.74Z"/>
    <path class="cls-2" d="m516.63,375.13c3.11,5.17,7.72,7.55,13.58,7.79,3.42.14,6.34-.95,8.88-3.2,1.94-1.72,3.92-3.38,6.3-4.48,6.81-3.15,15.94.17,18.39,6.72-.8.12-1.06-.59-1.47-.99-7.15-6.91-14.41-7.32-21.45-.43-6.04,5.91-15.6,4.68-20.61.81-2.28-1.76-3.37-3.46-3.61-6.22Z"/>
    <path class="cls-2" d="m179.64,427.51c12.52,3.3,25.04,6.59,37.55,9.89-.07.25-.13.51-.2.76-12.88-1.92-25.86-3.44-37.56-9.86.07-.26.14-.53.21-.79Z"/>
    <path class="cls-2" d="m118.54,401.63c3.21,8.49,9.82,13.39,17.04,17.66,4.37,2.58,9,4.66,13.63,6.74.88.39,1.72.85,3.24,1.6-16.71-2.13-34.38-15.79-33.9-26Z"/>
    <path class="cls-2" d="m508.31,426.25c2.81,1.26,5.53,2.54,8.64,2.74,3.48.22,6.44-.54,9.05-3.12,5.22-5.18,11.32-5.67,16.74-.63,7.22,6.73,14.6,4.62,20.45.11.69-.53,1.23-1.35,2.28-1.43-3.75,5.7-14.27,9.77-21,3.93-2.64-2.3-5.37-4.46-9.18-4.66-3.17-.17-5.74.75-8.03,2.92-5.65,5.33-12.92,5.41-18.94.14Z"/>
    <path class="cls-2" d="m103.65,357.29c-4.01,6.09-13.32,10.27-20.19,3.74-5.34-5.07-9.39-4.83-14.63.18-3.7,3.54-9.56,3.65-14.61.17,1.06-.44,1.75.31,2.51.55,4.6,1.46,8.71,1.4,12.44-2.44,4.05-4.17,9.01-4.23,13.42-.7,7.63,6.11,11.72,6.06,19.44-.28.39-.32.82-.62,1.63-1.22Z"/>
    <path class="cls-2" d="m108.1,403.4c-5.93,6.53-12.96,7.32-19.25,1.95-4.72-4.03-10.94-4.44-15.2.44-3.4,3.9-10.05,3.64-15.05.05,1.04-.5,1.68.31,2.41.57,4.9,1.72,9.31,1.5,13.24-2.48,3.96-4,9.19-4.01,13.99-.26,2.78,2.17,5.39,4.48,9.33,4.12,2.97-.27,5.47-1.49,7.89-3.07.73-.47,1.25-1.33,2.63-1.33Z"/>
    <path class="cls-2" d="m568.12,395.78c-1.98,5.99-9.44,10.36-16.11,9.75-5.98-.54-10.72-4.5-11.44-9.86,3.06,5.19,7.34,8.37,13.51,8.08,5.98-.28,10.19-3.84,14.05-7.98Z"/>
    <path class="cls-2" d="m188.98,148.64c-3.43.3-5.01-1.05-4.06-3.44.53-1.33,1.42-2.26,2.89-2.05,1.43.21,1.75,1.48,1.82,2.72.04.73-.07,1.46-.12,2.19-.18.19-.36.38-.53.58Z"/>
    <path class="cls-2" d="m358.06,249.02c3.96,3.58,9.26,4.73,14.1,7.81-2.46.03-4.24-.54-5.92-1.17-1.66-.63-2.42-.16-3.33,1.23-6.16,9.35-13.8,17.34-22.8,23.99-20.71,15.32-49.14,13.74-68-3.81-7.51-6.99-13.62-15.07-17.82-24.49-.72-1.62-1.39-2.19-3.04-1.18-1.09.66-2.35,1.04-3.54,1.54-.06.02-.16-.05-.25-.09,1.65-2.43,7.3-5.82,11.62-6.96,0,.16.07.37,0,.45-3.32,3.4-3.34,3.43,1.28,5.46,16.83,7.39,34.53,10.49,52.83,10.66,15.53.15,30.76-1.68,45.54-6.68.61-.21,1.22-.43,1.82-.67,1.24-.48,1.28-1.09.3-1.97-1.24-1.1-2.41-2.28-2.79-4.11Zm.65,9.47c-34.63,9.65-68.29,8.69-101.55-5.32,5.45,10.25,12.17,18.91,20.99,25.95,3,2.39,5.26,3.04,8.92.88,7.55-4.45,12.24-3.56,18.34,2.51.94.93,1.25.76,2.07-.05,4.86-4.8,10.44-5.97,16.71-3.01,2,.95,4.02,1.88,5.89,3.04,1.3.81,2.22.67,3.49-.09,4.71-2.81,8.98-6.18,12.96-9.91,4.43-4.16,8.51-8.62,12.19-14Zm-73.1,24.88c10.72,6.84,30.83,7.76,43.43,1.09-4-2.23-7.68-4.89-12.37-4.45-4.49.42-7.79,2.97-10.03,6.91-7.61-8.77-13.53-9.73-21.03-3.55Z"/>
    <path class="cls-2" d="m265.61,232.57c-8.44-.05-15.21-7.15-15.09-15.84.11-8.4,7.08-15.14,15.59-15.09,8.4.05,15.15,7,15.09,15.54-.06,8.53-7.06,15.44-15.59,15.39Zm7.03-4.57c5.4-3.64,7.46-9.82,5.4-15.5-2-5.53-7.28-8.9-13.22-8.43-6,.48-10.68,4.88-11.76,11.06-.84,4.82,1.66,10.27,5.51,11.99-2.04-7.04-1.22-10.89,2.9-13.66,3.18-2.13,6.92-1.95,9.74.46,3.63,3.11,4.16,7.6,1.42,14.08Zm-3.89-10.79c-.29-1.34-1.12-2.03-2.5-1.99-1.18.04-1.92.65-1.9,1.86.02,1.41.88,2.19,2.26,2.19,1.26,0,1.97-.79,2.14-2.05Z"/>
    <path class="cls-2" d="m357.35,201.74c8.54-.02,15.31,6.75,15.3,15.29-.01,8.44-6.92,15.47-15.22,15.51-8.45.04-15.48-7.19-15.46-15.9.02-8.28,6.84-14.89,15.39-14.9Zm6.85,26.16c5.48-4.19,7.34-9.77,5.29-15.29-2.12-5.72-7.25-8.93-13.5-8.46-5.5.41-10.17,4.56-11.4,10.14-1.13,5.11,1.28,10.7,5.65,13.09-2.58-6.24-2.11-10.25,1.59-13.4,2.85-2.44,6.22-2.72,9.2-.78,4.31,2.8,5.3,7.18,3.17,14.71Zm-7.03-12.67c-1.31.05-2.24.6-2.18,1.96.05,1.23.88,2.16,2.1,2.17,1.21,0,2.03-.89,2.14-2.13.12-1.42-.83-1.91-2.05-2.01Z"/>
    <path class="cls-2" d="m300.88,236.81c.76.06,1.52-.16,1.87.56.42.88-.31,1.37-.86,1.81-1.77,1.42-3.86,2.1-6.06,2.52-.57.11-1.14.01-1.43-.57-.3-.6.07-1.07.47-1.45,1.73-1.64,3.79-2.57,6.01-2.88Z"/>
    <path class="cls-2" d="m321.03,236.89c2.26.35,4.36,1.37,6.15,3.04.35.32.6.74.42,1.21-.22.61-.78.78-1.35.68-2.38-.4-4.6-1.2-6.46-2.8-.43-.37-.77-.85-.56-1.44.28-.76.98-.7,1.8-.69Z"/>
    <path class="cls-2" d="m145.33,310.25c-11.6-2.09-23.2-4.18-35.21-6.34,3.56-.83,30.23,3.77,35.21,6.34Z"/>
    <path class="cls-2" d="m158.41,313.15c9.49,2.44,18.8,5.49,27.78,9.51-9.41-2.69-18.74-5.6-27.78-9.51Z"/>
    <path class="cls-2" d="m146.27,313.09c-8.74,4.44-17.69,8.37-27.05,11.3,8.83-4.22,17.77-8.16,27.05-11.3Z"/>
    <path class="cls-2" d="m186.27,303.56c-8.73,2.72-17.75,4.12-26.73,5.74,4.32-1.83,8.93-2.64,13.47-3.61,4.38-.93,8.7-2.48,13.3-2.09,0,0-.04-.05-.04-.05Z"/>
    <path class="cls-2" d="m141.05,328.28c2.14-4.73,5.18-8.88,8.37-12.95-2.04,4.8-4.97,9.06-8.05,13.24-.11-.1-.22-.19-.32-.29Z"/>
    <path class="cls-2" d="m161.87,323.95c-2.54-3.03-4.98-6.13-7.05-9.5.18-.14.37-.28.55-.42,2.37,3.17,4.74,6.33,7.11,9.5-.21.14-.41.28-.62.43Z"/>
    <path class="cls-2" d="m138.9,298.37c3.19,2.46,6.23,5.08,8.95,8.06-.15.18-.31.35-.46.53-3.01-2.68-6.02-5.36-9.03-8.04.18-.18.36-.37.55-.55Z"/>
    <path class="cls-2" d="m158.59,304.93c1.73-2.81,4.08-5.05,6.66-7.09-1.74,2.8-4.19,4.94-6.66,7.09Z"/>
    <path class="cls-2" d="m528.35,111.71c-12.2,18.02-23.09,36.9-36.78,53.89,11.76-18.3,23.28-36.77,36.78-53.89Z"/>
    <path class="cls-2" d="m420.64,202.34c18.37-9.3,36.92-18.21,56.27-25.32-18.5,9.01-37.23,17.51-56.27,25.32Z"/>
    <path class="cls-2" d="m471.33,145.89c2.02-2.21,4.65-2.43,6.65-.57,1.77,1.65,1.93,4.86.33,6.77-1.67,2-4.63,2.2-6.63.46-2.04-1.78-2.15-4.4-.28-6.73-.21,1.37-1.81,2.97.56,3.91.68.27,1.48.1,2-.58.55-.72.65-1.46.25-2.32-.64-1.4-1.83-.91-2.88-.94Z"/>
    <path class="cls-2" d="m454.12,158.17c1.82-2.11,4.1-2.5,6.22-1.05,2.18,1.49,2.8,4.38,1.41,6.59-1.19,1.9-3.53,2.6-5.52,1.66-2.59-1.22-3.58-3.66-2.57-6.29.02,1.28-.15,2.84,1.73,2.73,1.31-.08,2.17-1.16,1.89-2.52-.38-1.9-1.74-1.74-3.15-1.13Z"/>
    <path class="cls-2" d="m148.91,148.19c-3.43-10.71-6.95-21.38-11.56-31.66-3.9-8.69-8.21-17.15-13.88-24.86-1.7-2.31-3.55-4.5-5.74-6.37-7.33-6.27-16.32-4.63-20.91,3.9-3.6,6.68-3.22,13.69-1.29,20.75,1.81,6.66,5.03,12.67,8.68,18.48.52.82,1.3,1.53,1.44,3.15-4.59-5.18-7.92-10.57-10.21-16.59-2.76-7.29-4.34-14.72-1.96-22.46,2.56-8.3,8.57-13.07,15.99-12.77,3.28.13,6.07,1.48,8.56,3.51,4.71,3.86,8.22,8.74,11.31,13.91,8.96,15.01,15.44,31.02,19.37,48.06.23,1,.56,1.96.16,2.98,0,0,.05-.04.05-.04Z"/>
    <path class="cls-2" d="m70.09,153.99c.04-6.55,5.3-11.74,11.89-11.71,6.61.03,11.71,5.19,11.72,11.85.01,6.69-5.1,11.99-11.58,12-6.89.01-12.07-5.21-12.03-12.15Zm12.21-10.34c-6.06-.11-10.74,4.25-10.89,10.15-.15,5.94,4.36,10.82,10.14,10.96,5.97.15,10.75-4.34,10.86-10.19.12-6.06-4.28-10.81-10.11-10.92Z"/>
    <path class="cls-2" d="m182.11,139.83c-.19,1.53-.76,2.75-2.51,2.73-1.86-.02-2.55-1.23-2.56-2.92-.01-1.98,1.44-2.89,2.98-2.89,1.69,0,1.92,1.69,2.09,3.08Z"/>
    <path class="cls-2" d="m480.56,469.34c24.31-1.21,48.63-1.64,72.97-1.12-24.31,1.11-48.64,1.44-72.97,1.12Z"/>
    <path class="cls-2" d="m457.12,469.05c-23.79-1.67-47.53-3.89-71.21-6.72,23.83,1.28,47.59,3.25,71.21,6.72Z"/>
    <path class="cls-2" d="m458.45,471.48c-20.76,3.07-41.52,6.15-62.51,7.43,20.8-2.74,41.61-5.48,62.41-8.21.03.26.07.52.1.78Z"/>
    <path class="cls-2" d="m475.82,472.4c16.93,5.22,33.55,11.41,50.06,17.87-16.94-5.21-33.67-11.04-50.06-17.87Z"/>
    <path class="cls-2" d="m521.79,452.9c-14.54,4.86-29.1,9.71-44.14,12.91,14.54-4.89,29.23-9.25,44.14-12.91Z"/>
    <path class="cls-2" d="m434.39,493.02c9.38-7.06,18.82-14.08,28.97-20.1-9.05,7.54-18.87,13.99-28.97,20.1Z"/>
    <path class="cls-2" d="m430.33,449.76c10.54,4.81,20.97,9.81,30.77,16-10.53-4.81-20.83-10.07-30.77-16Z"/>
    <path class="cls-2" d="m483.96,495.09c-5.01-6.52-9.51-13.38-13.4-20.63,5.27,6.36,9.47,13.4,13.4,20.63Z"/>
  </g>
</svg>