<?xml version="1.0" encoding="UTF-8"?>
<svg width="612" height="792" id="Layer_1" data-name="Layer 1" xmlns="http://www.w3.org/2000/svg" viewBox="0 0 612 792">
  <defs>
    <style>
      .cls-1, .cls-2 {
        stroke-width: 0px;
      }

      .cls-2 {
        fill: #221f1f;
      }
    </style>
  </defs>
  <path class="cls-2" d="m580.35,761.28l-552.1-2.57L31.65,30.72l552.1,2.57-3.39,727.98Zm-549.08-5.55l546.1,2.54,3.36-721.98-546.1-2.54-3.36,721.98Z"/>
  <g>
    <path class="cls-1" d="m188.7,34.05c-2.53,15.55-3.54,31.25-4.98,46.91-.15,1.64.39,2.42,1.9,3.07,2.32,1,4.61,2.14,6.71,3.52,1.8,1.19,2.79.81,4.19-.67,15.19-15.95,32.19-29.65,51.54-40.37,1.01-.56,2.03-1.09,3.07-1.65.64,1.11-.34,1.59-.76,2.18-12.33,17.29-24.65,34.58-37.07,51.8-1.45,2.01-1.78,3.16.22,5.17,7.05,7.08,12.32,15.43,16.37,24.51.88,1.96,1.69,2.26,3.74,1.56,18.89-6.45,38.13-11.64,57.79-15.25,1.09-.2,2.21-.61,3.77-.04-2.36,1.79-4.45,3.47-6.65,5.02-16.13,11.3-32.01,22.99-49.24,32.65-1.68.94-2.01,2.03-1.75,3.8,1.16,8.17.92,16.33-.65,24.42-.46,2.36.3,3.19,2.41,4.07,23.28,9.69,44.99,22.15,65.55,36.64.48.34,1.18.53,1.29,1.69-6.29-1.23-12.46-2.39-18.61-3.64-18.83-3.85-37.51-8.31-55.75-14.37-1.98-.66-2.73-.2-3.62,1.52-1.68,3.26-3.53,6.46-5.59,9.5-1.16,1.72-.84,2.58.6,3.87,17.14,15.35,32.39,32.49,47.44,49.8.65.75,1.56,1.37,1.74,2.73-8.18-3.5-15.73-7.84-23.3-12.14-13.76-7.81-27.25-16.05-40.34-24.91-1.55-1.05-2.5-1.16-3.99.17-2.43,2.16-5.12,4.05-7.83,5.87-1.26.85-1.65,1.49-1.05,2.99,7.92,19.69,11.76,40.19,12.25,61.36.12,5-.11,9.96-.47,15.08-1.11-.65-1.28-1.64-1.64-2.45-9.7-22.1-22.41-42.5-35.48-62.72-.9-1.39-1.64-1.95-3.49-1.52-7.34,1.67-14.82,2.4-22.34,1.93-2.32-.15-3.04.69-3.64,2.7-5.72,19.03-13.29,37.34-22.34,55.04-.51.99-1.1,1.95-2.18,2.78.22-4.11.51-8.21.66-12.32.6-16.67,1.12-33.33,1.79-50,.09-2.17-.57-3.1-2.6-3.84-6.56-2.39-12.89-5.32-18.48-9.55-1.61-1.22-2.53-.96-4.03.15-14.38,10.75-27.55,22.86-40.56,35.16-5.11,4.83-10.2,9.7-15.88,14.08-.56-1.4.37-2.18.83-3.03,11.47-21.51,23.63-42.6,37.55-62.66,1.2-1.73,1.41-2.84.02-4.6-3.39-4.3-6.29-8.94-8.72-13.84-.69-1.4-1.42-1.81-2.94-1.37-10.34,3.02-20.87,5.26-31.44,7.32v-3.15c10.36-1.36,20.43-4.02,30.51-6.63,1.67-.43,1.52-1.3,1.04-2.54-1.01-2.64-1.98-5.29-2.89-7.97-1.97-5.78-1.98-5.88-7.84-3.93-6.97,2.31-13.88,4.8-20.82,7.22,0-.84,0-1.68,0-2.52,7.76-3.6,15.91-6.12,24.09-8.57,1.24-.37,2.41-.44,2.04-2.36-1.8-9.34-1.89-18.74-.61-28.16.15-1.09.02-1.77-1.22-2.07-8.31-2-16.24-5.17-24.3-7.94v-3.15c7.89,2.94,15.78,5.86,23.89,8.17,1.78.5,2.52.37,2.9-1.73.89-4.95,2.36-9.78,4.33-14.42.7-1.65.48-2.31-1.39-2.77-9.77-2.4-19.66-3.78-29.74-3.73v-2.52c10.31-.46,20.41,1.02,30.35,3.59,2.09.54,3.1.3,4.09-1.82,3.25-6.97,7.45-13.39,12.65-19.1,1.32-1.45,1.2-2.23-.06-3.58-8.47-9.12-15.74-19.14-22.29-29.7-4.67-7.53-8.53-15.48-12.2-23.59,1.57.78,2.92,1.74,4.25,2.71,16.11,11.67,32.26,23.31,48.29,35.08,1.88,1.38,3.12,1.31,4.99.2,2.62-1.55,5.37-2.95,8.22-4.02,2.33-.87,2.83-1.79,2.03-4.26-4.76-14.6-8.2-29.47-8.66-44.9.85,0,1.69,0,2.54,0,.16,1.03.38,2.05.45,3.09.95,13.99,3.98,27.55,8.23,40.89.72,2.24,1.39,3.07,3.9,2.1,5.63-2.17,11.56-3.36,17.57-3.82,2.96-.23,2.61-1.15,1.56-3.2-6.69-12.95-13.81-25.7-19.67-39.06h3.17c6.14,13.66,13.41,26.76,20.17,40.11.54,1.07,1.15,1.61,2.4,1.54,4.75-.24,9.48.23,14.2.65,1.25.11,1.89-.06,2.19-1.44,3.04-14.03,7.58-27.59,13.04-40.87h3.17c-5.65,13.14-9.86,26.75-13.35,40.59-.46,1.84-.14,2.54,1.86,2.93,4.35.85,8.64,1.99,12.78,3.61,1.75.69,2.32.41,2.48-1.56.77-9.51,1.6-19.02,2.61-28.5.61-5.71.82-11.5,2.5-17.07h2.54Zm-41.12,44.35c-53.38.09-87.43,43.15-87.45,87.52-.02,48.06,39.87,87.69,87.83,87.64,46.77-.05,87-38.48,87.41-87.12.41-48.88-39.17-88.17-87.79-88.04Zm57.24,230.73c.29-1,.44-1.27.43-1.54-.3-21.24-4.18-41.82-11.65-61.73-.56-1.49-1.18-1.59-2.51-.85-5.35,2.97-10.93,5.46-16.79,7.23-1.95.59-1.96,1.14-.96,2.71,11.13,17.41,22.35,34.77,31.48,54.18Zm88.57-92.08c-1.73-1.14-3.44-2.3-5.19-3.41-15.85-10.05-32.38-18.83-49.6-26.33-2.26-.98-3-.62-3.63,1.7-.98,3.63-2.2,7.22-3.63,10.7-.73,1.77-.27,2.23,1.35,2.77,19.73,6.54,39.93,11.19,60.7,14.57Zm-246.67,60.28c.21.17.43.35.64.52,14.34-13.6,28.77-27.1,44.74-38.83,1.59-1.17.75-1.69-.26-2.47-3.93-3.02-7.63-6.31-10.8-10.12-1.46-1.75-2.18-1.57-3.32.22-4.1,6.46-8.47,12.77-12.45,19.31-6.31,10.38-12.38,20.91-18.56,31.38Zm50.88-187.11c-14.82-10.6-29.43-21.06-44.04-31.51,4.83,10.55,10.73,20.21,17.67,29.21,3.4,4.41,7.04,8.63,10.61,12.9.61.73,1.21,1.9,2.45.55,3.86-4.18,8.47-7.5,13.3-11.16Zm162.16,172.72c-.33-1.79-1.28-2.5-2.01-3.31-5.27-5.87-10.51-11.77-15.91-17.53-6.55-6.98-13.43-13.66-20.58-20.04-.66-.59-1.35-2.35-2.62-.53-2.72,3.9-6.2,7.12-9.81,10.78,16.55,10.85,33.18,21.21,50.93,30.62Zm23.02-143.01c-4.76.33-9.29,1.56-13.83,2.69-11.57,2.88-23.04,6.12-34.34,9.95-1.05.36-2.8.31-2.03,2.34,1.89,5.01,3.08,10.22,4.42,15.75,16.15-9.26,30.99-19.91,45.78-30.73Zm-73.43-20.23c10.74-15.08,21.4-30.05,32.06-45.01-8.38,4.22-15.68,9.69-22.77,15.44-6.96,5.64-13.49,11.74-19.63,18.24-.68.72-2.53,1.56-.47,2.86,3.84,2.41,7.2,5.44,10.81,8.48Zm-89.07,202.92c7.58-14.55,13.52-29.7,18.43-45.26.52-1.66-.38-1.64-1.52-1.79-4.5-.56-8.99-1.26-13.33-2.57-1.78-.54-2.18-.1-2.22,1.6-.42,16.01-.9,32.01-1.35,48.02Z"/>
    <path class="cls-1" d="m580.55,636.46c-13.74.14-23.07,6.91-28.9,18.94-.22.46-.48.91-.97,1.83-.74-1.59-1.27-2.85-1.91-4.06-7.62-14.51-18.59-25.24-35-29.18-22.31-5.35-43.43,5.94-52.5,27.63-1.49,3.56-1.46,3.53-4.62,1.23-10.08-7.32-21.07-9.87-32.82-4.82-12.35,5.31-18.51,15.36-20.19,28.39-.26,2,.72,4.83-1.05,5.74-1.03.53-3.41-1.56-5.19-2.46-8.84-4.47-18.07-7.12-28.09-5.65-15.25,2.23-26.06,13.9-27.19,29.18-.42,5.67.19,11.25,1.73,17.27-5.76-2.11-11.07-3.74-16.6-4.42-11.21-1.37-22.13-.82-32.33,4.79-2.23,1.23-3.3,2.38-2.31,5.11,1.34,3.73,1.8,7.71,2.25,12.1,8.04-8.84,18.16-11.99,29.41-12.02,11.12-.02,21.42,3.1,31.39,8.92-1.67.44-2.47-.49-3.37-.91-12.29-5.75-25.02-8.16-38.49-5.07-3.94.9-7.62,2.48-11.01,4.67-5.1,3.28-8.2,7.63-8.31,13.95-.07,3.86-.75,7.72-1.16,11.58h-3.8c.03-4.2.73-8.31,1.59-12.41,1.51-7.24.27-14.26-1.87-21.91-9.05,10.44-11.12,21.77-7.96,34.32h-3.17c-2.81-13.42-.68-25.67,8.88-36.05,1.26-1.37.75-2.35.2-3.62-4.72-10.93-12.23-19.77-20.91-27.76-.8-.74-2.05-1.17-2.15-2.87,1.53.18,2.4,1.26,3.36,2.02,9.33,7.35,16.68,16.3,22.05,26.86.45.89.36,2.69,2.51,1.45,12.61-7.27,26.06-7.72,39.87-4.42,2.96.71,5.83,1.77,8.95,2.73-.43-2.5-1.02-4.92-1.24-7.37-2.47-27.42,20.56-45.62,47.46-37.53,4.85,1.46,9.38,3.62,13.92,6.42.22-3.66.5-6.97,1.32-10.22,1.6-6.36,4.62-11.97,9.35-16.51,1.79-1.72,1.57-2.65.03-4.24-10.58-10.97-23.62-16.77-38.74-17.83-13.02-.92-25.41,1.81-37.2,7.31-1.12.52-2.26.99-3.29,1.45-.63-.48-.19-.71-.02-.81,22.24-13.9,52.38-15.99,75.26,2.41,2.55,2.05,4.88,4.34,6.99,6.83.74.87,1.17,1.32,2.52.53,14.18-8.34,28.19-7.25,41.15,3.02.16.12.38.16.68.28,7.86-20.3,22.65-31.74,44.67-31.54,22.25.2,37.09,12.52,46.77,32.17,6.27-12.24,16.21-18.59,30.04-18.59v3.15Z"/>
    <path class="cls-1" d="m580.55,260.03c-1.04-.09-2.08-.27-3.13-.27-56.32,0-112.63-.08-168.94-1.08-11.51-.2-23.04-.28-34.48-1.74-3.9-.5-7.7-1.4-11.11-3.43-5.36-3.19-7.58-8.92-5.46-13.94,1.99-4.72,7.79-7.12,13.72-5.7,3.23.77,6.06,2.33,8.9,4.9-1.1-11.31,3.13-19.43,13.25-23.6,11.32-4.66,20.8-.65,29.19,8.01.1-1.92-.64-3.13-1.06-4.41-1.45-4.4-2.67-8.85-2.47-13.54.51-11.89,9.19-18.22,20.83-15.24,6.55,1.68,11.39,5.7,15.64,11.52.27-3.96.41-7.34.77-10.7.26-2.39.65-4.79,1.26-7.11,3.88-14.64,16.28-21.2,30.78-16.35,5.08,1.7,9.38,4.63,13.43,8.55.32-1.21.56-2.08.78-2.95,4.86-19.39,20.89-28.24,40.04-22.06,12.72,4.11,21.64,12.77,28.37,23.86,3.53,5.82,6.27,12.02,7.33,18.87-.71-1.79-1.4-3.6-2.14-5.38-5.04-12.06-12.21-22.52-23.32-29.89-6.46-4.29-13.58-6.71-21.44-6.72-11.26-.02-19.34,5.05-24.38,15-2.04,4.03-3.23,8.36-4.39,13.04-2.82-2.77-5.58-5.03-8.65-6.88-3.38-2.04-6.99-3.47-10.91-4.03-11.25-1.6-19.63,3.69-23.01,14.55-1.95,6.28-2.28,12.77-2.6,19.27-.07,1.32.27,2.72-.6,4.11-1.87-2.36-3.54-4.77-5.51-6.9-4.79-5.18-10.59-8.29-17.9-7.88-6.26.35-10.18,3.72-11.5,9.79-1.25,5.74-.12,11.28,1.68,16.7,1.31,3.95,2.87,7.81,4.31,11.71l-.65.53c-1.5-1.64-2.93-3.35-4.53-4.9-4.42-4.28-9.11-8.31-15.32-9.64-7.77-1.66-14.77.14-20.25,6.04-5.45,5.86-6.32,12.79-4.01,20.25.27.87.58,1.73,1.06,3.14-2.6-2.38-4.64-4.48-6.92-6.27-3.33-2.62-7.11-4.15-11.48-3.33-3.1.58-5.51,2.15-6.54,5.27-1.04,3.14.11,5.83,2.19,8.1,2.92,3.18,6.89,4.37,11,5.07,8.37,1.42,16.84,1.46,25.28,1.63,60.32,1.21,120.66.89,180.99,1.04.63,0,1.26-.11,1.88-.17v3.15Z"/>
    <path class="cls-1" d="m580.55,572.26c-7.44,1.53-13.96,4.82-19.07,10.46-1.46,1.61-2.21,1.41-3.67.09-9.18-8.28-19.87-13.29-32.33-14.41-15.33-1.38-32.91,5-37.64,24.98-1.21-.06-2-.97-2.96-1.49-7.45-4.09-15.31-5.33-23.55-3.08-6.66,1.82-11.65,5.41-12.11,13.25-11.63-6.82-23.35-7.48-35.21-2.14-11.58,5.21-19.12,14.08-22.6,26.33.3-9.64,4.34-17.57,11.63-23.51,12.6-10.26,26.67-12.93,42.02-6.48.76.32,1.68,1.42,2.28-.16,3.34-8.87,11-10.94,19.22-11.87,6.8-.77,13.21.84,19.15,4.28,6.78-23.16,29.53-26.95,46.4-23.54,10,2.03,18.66,6.51,25.86,13.73.59.59,1.22,1.14,1.94,1.81,5.31-6.87,12.31-10.84,20.63-12.66v4.41Z"/>
    <path class="cls-1" d="m32.72,661.64c38.36-41.67,102.6-33.63,132.94-3.75.24-1.71.41-3.19.65-4.65,2.95-18.42,12.69-31.82,30.62-37.9,17.85-6.06,33.75-1.7,46.9,11.8,1.47,1.51,1.95.63,2.87-.29,24.04-24.02,58.6-15.05,73.7,7.25,2.58,3.81,4.62,7.88,5.96,13.06-2.06-2.02-2.81-4.01-3.85-5.77-5.42-9.19-12.62-16.49-22.37-21.16-18.08-8.67-37.83-5.33-52.47,9.11-2.05,2.02-2.99,1.92-4.99-.05-12.42-12.21-27.17-16.97-44.08-11.51-17.32,5.59-26.58,18.47-30.12,35.77-.58,2.86-.86,5.78-1.36,9.28-1.68-1.61-3.06-2.92-4.44-4.26-29.56-28.59-83.37-34.17-118.3-4.48-4.27,3.63-8.04,7.71-11.65,11.97v-4.41Z"/>
    <path class="cls-1" d="m580.55,160.57c-6.63-7.93-13.65-15.45-22.52-21.02-13.24-8.31-27.52-11.66-42.98-8.32-11.93,2.58-20.72,9.61-26.53,20.2-1.3,2.36-2.75,3.19-5.42,3.12-4.64-.12-9.27.42-13.86,1.25-14.2,2.58-24.4,10.42-30.92,23.1-.8,1.55-1.57,2.85-3.62,3.01-13.03,1.02-23.84,8.15-25.1,25.68-8.86-5.93-18.36-7.94-28.17-3.52-10.7,4.81-12.22,14.57-11.86,25.3-3.69-2.34-7.05-4.25-10.96-4.9-2.74-.46-5.46-.48-8.16.24-5.45,1.45-8.53,5.42-8.48,11.05.05,5.16,2.29,9.51,5.24,13.57.79,1.09,1.64,2.13,2.74,3.55-5.74-3.66-10.36-13.3-9.55-19.34,1.01-7.52,8.12-12.22,16.77-11.09,3.91.51,7.49,1.93,11.11,4.41-.4-10.68,2.03-19.77,12.28-24.47,9.52-4.37,18.89-3.17,27.82,2.41.43-2.22.68-4.18,1.18-6.08,2.68-10,10.6-16.75,21.61-18.01,3.56-.41,5.47-1.56,7.2-4.96,7.31-14.36,19.88-21.11,35.61-22.73,3.9-.4,8.28.87,11.57-.37,3.25-1.22,3.89-6.27,6.4-9.22,9.52-11.2,21.91-15.63,36.28-15.21,20.45.59,35.97,10.67,48.95,25.5,1.09,1.25,1.86,2.8,3.35,3.69v3.15Z"/>
    <path class="cls-1" d="m163.97,759.21c2.62-9.38,4.09-18.85,2.26-28.58-2.8-14.83-12.03-24.88-24.65-32.25-16.24-9.47-34.02-12.72-52.63-12.38-6.01.11-11.99.66-18.76,1.66,2.27-1.54,4.12-1.55,5.84-1.81,22.92-3.49,45.12-1.46,65.97,9.26,12.04,6.19,21.78,14.79,26.61,27.87,3.76,10.18,3.57,20.55,1.39,31-.36,1.73-.64,3.49-.96,5.23h-5.07Z"/>
    <path class="cls-1" d="m196.94,759.21c5.81-12.88,7.93-26.09,3.18-39.75-4.42-12.71-13.21-22.01-24.13-29.54-10.49-7.24-22.3-11.36-34.58-14.34-1.06-.26-2.12-.57-3.07-1.1,23.76,3.54,44.62,12.51,59.21,32.45,10.79,14.74,11.99,30.92,6.12,47.88-.51,1.48-1.11,2.94-1.66,4.41h-5.07Z"/>
    <path class="cls-1" d="m580.55,251.22c-5.28-.04-10.56-.11-15.83-.11-46.39.03-92.72-1.82-139-4.98-1.57-.11-3.12-.45-4.66-.39,5.57,0,11.14-.21,16.69.03,46.13,1.98,92.27,3.17,138.45,2.78,1.45-.01,2.97.26,4.35-.49v3.15Z"/>
    <path class="cls-1" d="m261.62,759.21c5.32-22.42-2.5-41.54-15.52-59.67,13.31,7.66,23.65,41.26,18.69,59.67h-3.17Z"/>
    <path class="cls-1" d="m580.55,653.46c-10.29.8-15.91,7.6-20.55,15.87.88-8.17,11.1-16.62,20.55-17.13v1.26Z"/>
    <path class="cls-1" d="m104.99,592.5c-10.29-.51-19.91-.99-29.52-1.47,1.96-1.46,4.19-1.35,6.3-1.56,9.05-.92,18.13-1.15,27.23-.83,1.17.04,2.22.04,3.32-.61,19.49-11.37,39.73-21.36,59.77-31.72,16.95-8.76,33.98-17.36,50.98-26.04.65-.33,1.29-.69,2.01-1.07-.83-1.32-2.18-1.35-3.3-1.72-19.43-6.43-39.14-12.15-57.72-20.78-6.06-2.82-10.52-2.59-16.07.82-8.79,5.39-18.04,10.05-27.52,14.22-8.68,3.81-17.71,5.43-27.18,4.69-1.71-.13-3.32-.56-4.88-1.24-6.57-2.87-8.06-8.71-3.63-14.31,2.39-3.02,5.53-5.16,8.68-7.29,13.79-9.34,28.05-17.95,42.3-26.58,1.18-.72,3.51-.84,2.38-3.52-.94-2.23-1.71-3.61-4.68-3.22-13.09,1.71-26.27,2.7-39.3,4.9-.66.11-1.38.49-2.24-.22,3.53-1.72,7.21-2.54,10.88-3.37,9.8-2.21,19.73-3.65,29.74-4.46,1.99-.16,2.59-.5,1.75-2.58-1.8-4.47-3.5-9-4.92-13.61-.73-2.38-1.95-2.63-4.16-2.43-11.68,1.05-23.37,1.93-35.06,2.87-.41.03-.83,0-1.27-.2,4.97-1.93,10.23-2.66,15.43-3.5,6.67-1.07,13.37-1.97,20.09-2.7,2.5-.27,2.82-.99,2.14-3.28-2.45-8.29-3.78-16.77-3.67-25.44.02-1.78.19-3.57.49-5.32,1.5-8.94,8.52-12.8,17.08-9.47,4.47,1.74,7.84,4.9,10.96,8.35,9.33,10.32,17.95,21.2,25.68,32.74,1.61,2.4,2.41,3,5.04.99,8.31-6.34,17.35-11.57,27-15.7,2.22-.95,4.53-1.77,6.87-2.35,6.42-1.59,8.7.2,8.66,7,6.34-3.24,12.52-6.35,18.64-9.59.86-.46,1.49-1.47,2.07-2.33,3.41-5.08,7.19-9.86,11.56-14.16,1.57-1.55,1.42-2.31-.37-3.43-6.96-4.37-13.85-8.85-20.78-13.29-1.05-.67-2.11-1.33-3.58-2.26,1.74-.36,2.79.36,3.83.76,8.31,3.2,16.18,7.22,23.31,12.57,1.47,1.1,2.27,1.08,3.68-.18,7.74-6.92,16.38-12.57,25.84-16.88,2.07-.94,2.34-1.86,1.41-3.8-1.18-2.45-2.15-5.02-3.01-7.6-1.35-4.07-.72-5.58,2.91-7.89,2.94-1.87,6.23-3.04,9.29-4.74-14.99,2.69-29.04,8.55-43.59,13.12-.13-.86.49-.97.83-1.13,13.53-6.5,27.43-12.01,42.22-15.01,2.06-.42,4.18-.6,6.29-.71,1.1-.06,2.47-.09,2.79,1.44.35,1.65-.83,2.22-2.11,2.61-4.55,1.39-8.95,3.13-13.31,5.03-2.51,1.09-2.77,2.34-1.51,4.53,1.47,2.54,2.92,5.13,4.06,7.82.93,2.21,1.9,2.66,4.24,1.71,7.49-3.04,15.37-4.49,23.42-5.11,17.04-1.32,31.49,4.49,44.05,15.63,4.09,3.63,4.08,3.51,7.85-.37,7.11-7.33,14.29-14.59,21.49-21.83,1.03-1.03,2.34-1.78,3.84-2.9-7.7-5.13-15.17-8.53-22.83-11.5-29.39-11.37-59.83-19.25-90.51-26.22-9.34-2.12-18.74-4-28.09-6.14,2.75-.37,5.36.48,7.99.97,34.39,6.36,68.45,14.05,101.63,25.2,11.11,3.73,22.07,7.89,31.83,14.55,1.56,1.07,2.25.2,3.16-.69,7.7-7.49,15.45-14.92,23.08-22.48,13.91-13.79,27.81-27.59,42.49-40.58,9.57-8.46,21.28-12.11,33.74-13.7,2.63-.34,5.27.04,7.79.98,5.23,1.95,7.87,5.84,7.69,11.36-.13,3.96-1.37,7.64-3.07,11.15-.94,1.93-.73,2.76,1.38,3.64,6.35,2.64,12.21,6.13,17.51,10.85-1.11.71-1.71-.05-2.35-.35-5.53-2.62-11.06-5.23-16.54-7.92-1.6-.79-2.5-.73-3.45,1.04-6.01,11.22-13.17,21.74-20.41,32.2-.65.94-1.96,1.78.12,2.84,16.72,8.58,28.32,22.18,36.55,38.53,19.37,38.5,21.03,77.44,1.22,116.37-5.77,11.33-13.6,21.22-23.84,29.04-22.34,17.04-50.06,17.54-73.03,1.31-5.27-3.72-10.11-7.94-14.35-12.8-1.1-1.26-2.09-1.6-3.81-1.24-26.3,5.52-52.94,8.61-79.68,10.95-1.94.17-3.67.68-5.41,1.54-3.87,1.93-7.79,3.73-11.75,5.48-1.45.64-1.97,1.18-1,2.75,2.94,4.79,6.57,8.97,10.63,12.85,1.32,1.26,2.75.77,4.18.7,15.58-.77,25.92,7.79,28.12,23.29,2.22,15.64-6.29,29.06-20.52,32.45-6.5,1.55-12.87.33-19.13-1.11-10.69-2.46-21.3-5.3-31.93-8.01-1.22-.31-2.42-.76-3.57-1.28-5.14-2.33-6.64-6.03-4.63-11.31,1.02-2.67,2.55-5.06,4.34-7.28,4.76-5.91,9.79-11.58,15.97-16.09,1.24-.91.96-1.45.27-2.45-2.48-3.59-5.79-6.38-8.88-9.39-1.2-1.17-2.19-.33-3.15.1-10.38,4.68-20.71,9.48-31.1,14.14-38.1,17.08-75.73,35.22-114.73,50.25-9.89,3.81-19.94,6.98-30.75,6.6-3.6-.13-7.17-.49-10.58-1.76-10.63-3.98-13.15-15.75-4.91-23.55,2.65-2.51,5.75-4.56,9.3-7.33Zm145.72-116.86c-.55-3.58-.51-6.49.13-9.39,1.9-8.66,9.87-13.52,18.16-10.95,6.11,1.9,9.63,6.57,12.32,11.96.72,1.43,1.34,2.33,3.21,2.32,21.56-.08,43.11-.43,64.58-2.68,4.62-.48,9.27-.92,13.72-2.32,4.58-1.44,5.86-3.93,4.96-8.54-.6-3.08-1.06-6.22-1.22-9.34-.78-15.71,2.28-30.46,11.45-43.6,1.05-1.51,2.23-2.94,3.68-4.85-5.89.93-11.18,1.93-16.5,2.57-5.93.71-11.22,2.82-16.04,6.23-6.15,4.36-11.44,9.63-16.32,15.31-4.45,5.17-9.7,9.29-15.73,12.51-12.38,6.6-25.65,10.11-39.54,11.58-10.19,1.08-20.28.88-30.04-2.61-6.47-2.31-7.47-4.49-5.67-11.01.12-.45.5-.95-.24-1.51-6.92,3.39-13.91,6.81-20.9,10.25-10.99,5.41-22.08,10.56-34.11,13.32-6.79,1.56-8.52.78-12.46-4.95-3.75-5.46-7.52-10.91-11.47-16.22-5.59-7.52-11.52-14.76-18.13-21.43-2.8-2.83-5.94-5.02-10.13-5.29-1.92-.12-2.46.49-1.87,2.36,1.47,4.62,3.47,9.01,5.91,13.19,7.63,13.07,15.39,26.05,24.42,38.23,1.71,2.3,1.34,3.98-1.2,5.37-.91.5-1.95.79-2.96,1.03-4.32,1.03-8.73,1.58-13.15,1.91-1.76.13-2.15.63-1.33,2.33,2.35,4.87,2.28,4.91,7.72,3.79.41-.08.82-.21,1.23-.3,8.38-1.78,16.76-3.49,25.41-2.89,2.12.15,4.2.45,6.18,1.26,4.13,1.69,4.77,4.16,1.86,7.47-2.1,2.39-4.74,4.16-7.37,5.92-2.93,1.97-5.87,3.92-9.31,6.22,8.57.96,16.46,1.3,24.39,1.16,3.02-.06,3.63-.77,2.87-3.74-1.41-5.43.39-9.75,4.41-12.07,4.09-2.37,8.97-1.65,13.1,2.06,1.45,1.3,2.67,2.85,4.28,4.59,0-2.01-.12-3.66.02-5.28.72-8.31,8.38-13.63,16.53-11.5,5.36,1.4,10.02,4.29,15.15,7.54Zm170.81,43.72c-.21.35-.43.71-.64,1.06,1.7,1.4,3.43,2.75,5.09,4.2,15.89,13.94,33.89,20.84,55.16,15.44,15.01-3.81,26.33-13.28,35.11-25.5,18.5-25.76,24.76-54.47,19.62-85.66-.41-2.48-.96-4.94-1.57-7.38-.61-2.41-.98-4.92-2.42-7.68,0,.91-.05,1.23,0,1.52,3.89,21.98,2.69,43.65-3.97,64.99-4.93,15.8-12.48,30.08-25.24,41.08-11.12,9.57-23.99,13.92-38.75,11.12-7.32-1.39-13.96-4.38-19.47-9.52,4.15,1.44,8.15,3.23,12.26,4.72,14.79,5.35,28.45,3.04,40.97-6.29,8.8-6.55,15.48-14.95,20.21-24.69,15.84-32.65,17.78-66.37,6.15-100.57-5.79-17.02-16.62-30.76-31.89-40.77-5.02-3.29-4.96-3.15-8.62,1.6-1.51,1.96-1.15,2.77.81,4.05,8.1,5.31,14.31,12.36,18.59,21.03,1.11,2.26,2.34,4.52,2.76,7.96-1.32-2.29-2.21-3.82-3.09-5.36-4.88-8.55-11.38-15.56-19.65-21.01-2.11-1.39-3.25-1.72-4.86.8-4.3,6.73-8.96,13.22-13.46,19.82-1.24,1.82-3.59,3.83-3.37,5.47.29,2.14,3.67,2.03,5.65,3.01,5.99,2.97,11.36,6.78,16.61,11.76.18-2.75,1.13-4.66,2.59-6.33,3.52-4.04,8.04-4.31,12.78-3.1,5.64,1.44,7.66,5.96,8.56,11.01.83,4.65.31,9.26-4.08,12.06-2.4,1.53-1.9,2.3-.46,4.08,11.35,13.97,8.7,32.8-6.27,42.91-3.4,2.29-5.45,4.87-7.06,8.57-7.83,18.07-22.1,29.5-39.93,37.02-9.06,3.82-18.57,6.24-28.11,8.56Zm61.53-103.94c-7.26-10.53-16.52-17.07-28.55-19.75-13.03-2.91-21.49.68-28.19,12.19-.68,1.18-1.29,2.41-1.86,3.64-6.07,13.23-6.79,27.03-3.51,40.93,4.11,17.43,11.99,32.48,29.34,40.63.05.03,0,.3-.01.45-4.48-.64-10.31-3.8-14.5-7.83-9.01-8.67-14.58-19.34-17.16-31.33-4.95-23.07-2.14-44.11,17.59-60.23-10.17-.35-20.45.6-30.74,1.32-2.84.2-4.24,1.2-5.08,3.96-6.75,22.07-9.98,44.37-5.2,67.32,3.42,16.43,9.86,31.57,19.13,45.57.96,1.46,1.98,1.56,3.45,1.19,6.45-1.62,12.93-3.11,19.23-5.24,2.65-.9,5.27-1.89,8.26-2.97-11.09-3.69-20.72-12.3-21.56-19.18,4.03,5.81,8.57,10.9,14.76,14.19,5.52,2.93,11.06,3.47,16.9.33,8.05-4.32,14.81-10,20.37-17.15.43-.56,1.23-1.03.97-2.03-1.25.98-2.35,1.97-3.57,2.79-8.74,5.93-19.2,5.26-27.83-1.79-6.29-5.13-10.58-11.63-13.32-19.18-5.23-14.4-5.93-28.91-.43-43.37,3-7.89,8.14-14.02,16.75-16.29,9.11-2.4,19.88,1.86,25.96,10,.59.79.84,1.94,2.27,1.86,1.97-.1,3.96-.03,6.53-.03Zm-73.51,99.7c-.47-.57-.61-.85-.84-1.01-15.54-10.71-27.29-24.6-35.27-41.61-.67-1.44-1.43-1.45-2.71-1.19-3.93.78-7.88,1.54-11.84,2.17-24.29,3.86-48.59,7.69-72.88,11.53-1.46.23-2.79.34-3.31,2.22-2.7,9.91-14.22,15.06-24.35,4.34-.65-.69-.99-1.83-2.26-2.02,0,.88,0,1.6,0,2.32.03,9.58-6.62,15.49-16.21,14.28-4.87-.62-8.94-2.96-12.6-6.15-2.71-2.36-5.28-1.9-7.07,1.07-2.8,4.64-7.39,5.95-12.24,3.45-3.26-1.68-5.87-4.13-7.88-7.13-.88-1.32-1.85-1.72-3.4-1.61-8.66.62-17.35.64-25.94-.45-4.18-.53-6.49,1.69-9.73,4.12,17.26,3.64,34.25,5.67,50.74,10.05-12.22-1-24.22-3.27-36.63-5.22,1.32,1.25,2.7,1.48,3.96,1.92,8.77,3.03,17.45,6.4,26.37,8.92,11.02,3.12,21.27,9.05,33.16,9.15,1.84.01,3.43-.07,5.14-.85,21.66-9.93,43.4-19.68,66.38-26.33,7.31-2.12,14.73-3.73,22.31-4.56,9.86-1.08,18.47,1.3,24.89,9.3,3.24,4.03,3.07,6.84-.63,10.48-3.17,3.12-6.92,5.49-10.75,7.73-2.36,1.39-4.7,2.79-7.06,4.18,23.79-1.42,47.23-4.06,70.63-9.07Zm-264.2,85.41c-1.04,0-2.09.07-3.12-.01-9.29-.71-18.44-2.25-27.43-4.73-.96-.26-1.94-.96-3.02-.23-4.52,3.09-9.39,5.77-12.76,10.22-3.32,4.38-2.03,9.09,3.01,11.36,2.54,1.14,5.24,1.55,8,1.72,9.52.57,18.42-1.98,27.14-5.32,22.37-8.56,44.24-18.3,66.06-28.14,3.09-1.4,3.29-2.72.7-5-3.18-2.8-7.13-4.03-11.14-5.02-9.55-2.35-19.27-2.16-29-1.8-7.98.29-15.8,1.12-22.59,5.94-1.36.96-3,1.53-4.49,2.33-4.95,2.68-9.88,5.38-15.29,8.33,6.86,1.74,13.23,2.77,18.98,5.73-7.9-.83-15.55-3.51-23.59-2.91,9.27,3.44,19.04,4.59,28.53,7.5Zm74.61-61.11c.02.18.04.36.06.54,3.12-.48,6.23-1.03,9.36-1.42,9.95-1.23,19.92-2.68,29.97-1.59,10.19,1.1,15.86,8.03,13.86,16.73.65-.23,1.24-.39,1.79-.64,19.31-8.71,38.59-17.47,56.94-28.11,3.02-1.75,3.47-4.11,1.22-6.85-2.15-2.61-5.16-3.93-8.28-5-7.48-2.58-15.2-2.46-22.88-1.59-20.15,2.29-39.31,8.57-58.47,14.8-.49.16-1.06.32-1.4.67-3.08,3.17-7.08,4.86-10.92,6.81-3.74,1.9-7.51,3.77-11.26,5.65Zm124.08,61.57c1.07-.16,1.64-.96,2.2-1.63,6.56-7.83,8.29-16.6,4.69-26.17-2.6-6.89-7.66-10.87-15.21-11.46-21.45-1.68-40.17,12.15-50.28,29.31-1.37,2.32-.02,3.28,1.91,3.88,13.81,4.3,27.77,8.05,42.18,9.76,3.99.47,7.82-.48,10.86-3.38,4.44-4.23,7.1-9.21,5.59-15.49-1.6-6.6-5.59-11.2-12.34-13.09-5.96-1.67-10.09,1.42-10.21,7.52-.04,2.37.34,3.92,3.3,2.47.98-.48,2.27-.44,3.41-.44,3.15,0,5.21,1.6,6,4.6.7,2.65.09,5.12-2.16,6.77-2.56,1.89-5.19,1.25-7.63-.47-1.31-.93-2.62-2.11-2.95-3.61-.67-3.03-2.47-3.4-5.04-2.79-.82.19-1.67.23-2.51.31-7.31.68-14.61,1.57-21.97,1.34,8.02-1.27,16.04-2.52,24.09-3.51,2.48-.31,3.23-.96,3.01-3.64-.71-8.67,5.36-13.38,13.77-11.01,4,1.13,7.26,3.33,9.79,6.59,6.05,7.77,5.91,14.61-.52,24.12Zm128.48-185.14c-4.74-7.27-14.6-11.59-22.76-9.69-8.18,1.91-13.02,7.68-15.68,15.1-5.97,16.6-4.48,32.8,3.89,48.29,2.82,5.23,6.76,9.63,11.94,12.77,11.43,6.91,26.13,2.29,30.81-14.42-10.99,1.22-19.22-3.06-24.73-12.62-3.62,5.93-9.6,7.76-15.6,4.98-4.84-2.24-7.14-9.09-4.92-14.75.96-2.45,2.68-4.25,5.05-5.4,4.24-2.05,8.36-.94,12.42.69,3.69-16.27,5.85-19.01,19.57-24.95Zm1.53-56.64c-29.03-10.42-54.71,1.83-69,29.75.48,0,.88.03,1.28,0,15.14-1.36,30.29-2.49,45.46-.38,1.08.15,1.72-.11,2.36-1.02,6.54-9.38,13.13-18.72,19.9-28.34Zm-73.93,36.86c-4.51.46-8.38.93-12.26,1.22-2.4.18-4.07,1.22-5.47,3.16-14.74,20.31-17.02,42.29-9.14,65.69.48,1.42,1.12,1.71,2.54,1.37,4.3-1.03,8.61-2.13,12.98-2.79,2.72-.41,3.13-1.53,2.73-3.96-2.28-13.81-1.48-27.57,1.08-41.26,1.48-7.94,4.01-15.58,7.54-23.42Zm102.69,45.18c.05-12.13-11.2-23.1-23.73-23.12-13-.03-22.74,9.83-22.84,23.11-.1,13.93,8.45,23.89,20.54,23.9,14.01.01,25.98-10.98,26.03-23.89Zm-281.13,135.96c13.82-6.33,27.48-12.59,41.16-18.82,1.8-.82,1.38-1.77.39-2.86-1.07-1.18-2.36-2.08-3.74-2.86-5.17-2.95-10.87-3.96-16.7-4.27-16.79-.9-33.26,1.4-49.56,5.15-3.88.89-11.83,5.11-13.66,7.06.9,0,1.74-.01,2.58,0,9.32.15,18.59.75,27.41,4.02,5.91,2.19,11.05,5.35,12.12,12.58Zm90.69-195.14c-7.89,1.57-14.75,4.43-21.5,7.66-2.13,1.02-3.47,2.53-4.39,4.66-5.81,13.55-6.34,27.59-4.19,41.93.34,2.23,1.5,2.09,3.06,1.72,6.27-1.48,12.37-3.38,18.24-6.09,2.84-1.31,3.85-2.56,3.16-6.03-3-15.02-.93-29.55,5.62-43.86Zm187.82-61.5c-4.11.06-7.96.67-11.78,1.46-18.27,3.78-35.48,10.77-52.81,17.37-.48.18-1.01.42-1.36.78-5.81,6.21-11.59,12.45-16.42,17.64,3.7-1.29,9.41-1.64,14.52-4.92,15.15-9.73,31.53-12.62,49.02-7.22,1.59.49,2.41.29,3.33-1.1,4.65-7,9.42-13.92,14.12-20.88.57-.85,1.32-1.64,1.38-3.12Zm-162.79,201.03c4.46-1.54,15.49-8.76,18.27-11.8,1.87-2.03,2.03-3.89.23-6.1-4.43-5.43-10-8.59-17.1-8.92-4.14-.2-8.22.35-12.29,1.02-16.8,2.75-32.51,8.9-48.2,15.14-4.83,1.92-9.59,3.99-14.39,5.99,1.4.23,2.59-.08,3.78-.43,14.73-4.27,29.55-8.01,45.06-7.83,5.98.07,11.79,1.12,17.14,3.89,3.74,1.94,6.92,4.48,7.49,9.05Zm22.28-128.33c-.57-1.47-1.65-1.99-2.52-2.71-9.85-8.22-21.42-10.75-33.97-10.24-2.53.1-3.38,1.16-3.87,3.43-2.28,10.49-2,21.02-.88,31.58.21,1.98.08,4.08,1.54,7.22,1.75-2.21,2.94-3.97,4.38-5.48,5.67-5.93,11.42-11.76,18.11-16.61,5.11-3.7,10.62-6.4,17.21-7.19Zm-78.25,85.21c-.23-7.07-2.87-13.72-9.09-18.56-7.18-5.59-15.8-2.85-18.63,5.75-3.01,9.13,2.69,23.25,11.23,27.83,4.9,2.63,9.81,1.59,13.19-2.81,2.63-3.42,3.19-7.43,3.3-12.21Zm-27.84,12.44c.16-2.94-.84-6.11-2.81-8.94-3.7-5.32-8.51-9.21-14.87-11.1-8.07-2.39-14.76,2.59-14.6,10.98.18,9.47,8.26,19.39,17.52,21.52,8.5,1.96,14.95-3.25,14.76-12.47Zm-102.59,8.36c-12.71-6.65-25.21-6.05-37.21-.87-8.06,3.48-15.14,9.1-22.08,14.59-1.46,1.15-3.29,2.43-2.47,4.64.76,2.05,2.88,2.29,4.78,2.44,7.05.53,13.95-.37,20.52-2.9,12.5-4.82,24.13-11.41,36.45-17.89Zm-30.21-5.54c7.73-1.46,15.25-2.13,22.95-.11,4.04,1.06,7.66,4.77,11.99,3.27,4.02-1.39,7.63-3.99,11.35-6.17,5.72-3.36,11.55-6.55,16.77-10.68.97-.76,2.18-1.64,1.75-3.08-.36-1.21-1.66-1.52-2.78-1.82-2.98-.79-6.04-.85-9.1-.85-9.9.01-19.22,3.88-29.05,4.36-.66.03-1.33.6-1.94,1-3.17,2.07-6.31,4.19-9.5,6.23-4.13,2.64-8.29,5.23-12.44,7.83Zm14.11-45.81c1.8,6.01,4.22,11.78,6.78,17.5.44.98,1.08,1.13,1.99,1.08,5.06-.26,10.09-.74,15.03-2,2.54-.65,2.82-1.53,1.28-3.8-11.15-16.5-22.56-32.88-29.32-51.88-1.16,1.59-1.22,3.51-1.32,5.34-.53,9.64,1.31,18.96,3.92,28.19.44,1.55,1.39,1.49,2.61,1.5,3.95.04,7.96-.5,12.72.96-4.8,2.23-9.35,1.82-13.68,3.11Zm142.1-49.53c-13.04,9.24-24.23,20.1-31.93,34.2-.93,1.71-.51,2.71,1.16,3.47,7.29,3.29,15.05,3.9,22.91,3.93,1.7,0,1.43-1.14,1.39-2.17-.15-4.3-.11-8.59.31-12.88.88-9.1,2.94-17.91,6.16-26.55Zm180.81-81.66c.08.15.17.3.25.46,3.99-1.55,7.95-3.2,11.98-4.64,9.88-3.53,19.93-6.04,30.6-5.44,2.39.13,5.25,2.17,7.1.05,1.62-1.87,2.09-4.73,3.06-7.16.08-.19.09-.41.15-.61,1.64-6.12-.62-9.31-6.95-8.96-10.22.58-19.76,3.83-27.87,9.95-6.52,4.91-12.24,10.86-18.32,16.36Zm-88.17,146.07c-2.52,3.49-6.24,4.48-10.15,5.16-15.02,2.61-30.21,3.15-45.41,3.49-9.29.21-18.58.06-27.86-.49-2.31-.14-3.57.03-2.69,2.89.74,2.4.79,5.01.36,7.49-.47,2.7.44,3.17,2.92,2.66,26.45-5.43,53.1-9.78,79.69-14.43q5.72-1,3.12-6.77Zm68.83-126.89c1.33.52,2.07-.28,2.89-.62,8.16-3.41,16.38-6.68,24.76-9.5,9.89-3.32,19.87-6.78,30.36-7.07,4.75-.13,7.09-1.76,8.53-5.74.04-.1.08-.2.14-.28,1.09-1.55.75-2.37-1.2-2.66-3.25-.47-6.5-.69-9.77-.48-10.76.67-20.71,4.44-30.89,7.57-10.74,3.31-17.22,11.49-24.81,18.78Zm-26.88,177.83c-.09-.57-.07-.78-.16-.92-8.87-13.85-15.18-28.74-18.61-44.8-.39-1.83-1.4-1.71-2.77-1.37-4.09,1.03-8.16,2.21-12.31,2.92-2.65.46-2.64,1.3-1.63,3.41,6.5,13.59,15.9,24.92,27.29,34.7,2.5,2.15,5.01,4.33,8.19,6.05Zm-255.36,58.23c6.14-.3,11.4-.69,16.66-.77,8.47-.14,16.88.53,25.01,3.13,3.24,1.04,6.94,2.18,8.44,5.17,2.14,4.28,4.4,2.9,7.16,1.31.64-.37,1.33-.63,2-.93,3.91-1.77,4.44-4.09,1.61-7.44-2.37-2.81-5.52-4.51-8.92-5.77-10.71-3.97-21.92-3.96-33.11-4.04-.51,0-1.06.15-1.52.38-5.51,2.82-11.01,5.68-17.34,8.96Zm44.04-22.17c1.67-.26,2.59-.38,3.51-.55,14.37-2.61,28.8-4.54,43.42-2.79,7.29.88,14.42,2.53,19.08,9.03.94,1.31,1.58.44,2.27-.09,3.65-2.79,4.09-7.33.99-10.73-3.88-4.25-8.93-5.73-14.52-5.82-10.6-.19-21.03,1.34-31.5,2.68-8.12,1.04-15.91,2.83-23.25,8.27Zm43.64-111.35c1.98,2.59,4.93,3.32,7.82,4.03,15.79,3.85,31.26,1.75,46.54-2.74,13.82-4.06,26.21-10.41,35.41-21.94,3.21-4.03,7.18-7.39,11.21-10.63,5.68-4.56,11.91-7.93,19.26-8.92.47-.06,1.05-.07,1.26-.69-1.27-1.88-3.02-2.29-5.22-1.99-5.35.72-10.15,2.73-14.59,5.71-6.79,4.56-12.51,10.32-18.07,16.2-15.64,16.57-35.34,23.84-57.67,25.01-8.87.47-17.62-.45-25.95-4.04Zm180.94-80.01q-11.54,1.61-18.92,8.89c-1.95,1.92-3.98,3.76-5.91,5.7-5.98,6-11.94,12.03-17.9,18.05,7.03-.13,13.68-.92,20.34-1.74.84-.1,1.15-.81,1.45-1.51,4.75-10.98,10.73-21.14,20.95-29.38Zm-205.43,135.04c-.57-5.15-3.71-9.56-8.58-12.78-2.41-1.6-5.18-1.95-7.8-.37-2.77,1.68-3.98,4.25-3.67,7.47.5,5.19,3.05,9.3,6.95,12.64,2.49,2.13,5.29,3.85,8.63,2.29,3.47-1.62,4.36-4.89,4.46-9.25Zm275.28-96.17c-5.23,0-8.67,3.12-8.66,7.86,0,8.07,3.43,12.62,9.52,12.66,5.77.03,9.39-3.34,9.36-8.72-.05-7.27-3.97-11.81-10.22-11.81Zm-172.41,162.42c-5.26-5.3-9.49-10.98-13.38-16.91-.55-.84-1.19-1.13-2.12-.71-4.03,1.85-8.07,3.7-12.18,5.59,4.93,5.45,10.25,10.04,12.77,16.71.42,1.11.92.82,1.65.45,4.1-2.09,8.45-3.59,13.26-5.14Zm-4.45-178.49c-1.83-.28-2.8.38-3.44,1.8-6.24,14-7.83,28.53-5.12,43.56.12.65.28,1.88,1.18,1.4,2.12-1.13,4.18-2.45,6.01-4,1.05-.88.27-2.4.1-3.59-1.83-13.04-2.28-26.03,1.26-39.17Zm117.22-25.23c13.14-3.87,26.16-4.37,39.17.24.82.29,1.65.53,2.23-.42,1.3-2.1,3.2-3.81,4.23-6.26-16.42-5.22-31.47-2.18-45.64,6.44Zm10.93,102.56c5.05.14,7.62-2.29,7.8-7.36.22-6.33-2.24-9.25-7.9-9.42-5-.14-8.29,3-8.48,8.1-.2,5.24,3.05,8.53,8.59,8.68Zm-161.7-64.94c-1.57,1.01-3.55,1.35-4.24,3.22-4.79,13.02-7.38,26.41-7.12,40.33.06,3.41,2.19,2.24,3.86,2.13,1.88-.13,3.74-.03,3.11-3.13-1.59-7.87-1.55-15.82-.6-23.79.76-6.47,2.55-12.65,4.99-18.76Zm-66.45,37.87c-10.74,3.31-19.56,9.17-28.89,15.27.93.11,1.26.24,1.53.16,8.47-2.6,16.61-5.97,24.33-10.3,1.75-.98,2.58-2.59,3.03-5.12Zm111.74,153.22c-2.46-.02-4.3.85-4.4,2.08-.16,1.99,2.91,5.2,5.1,5.23,2.19.03,3.22-1.27,3.35-3.31.16-2.56-1.31-3.97-4.04-4Z"/>
    <path class="cls-1" d="m389.87,83.17c4.02-4.4,8.78-7.14,14.64-7.57,9.55-.7,17.92,5.96,19.99,16.11.52,2.56,1.59,4.28,3.59,5.88,5.63,4.51,9.6,10.34,12.2,16.96,1,2.55,2.4,3.31,4.88,3.26,1.3-.03,2.73-.23,4.37.92-1.97.99-3.81.85-5.56.87-23.98.28-47.96.06-71.92-.92-14.14-.58-28.28-1.2-42.29-3.42-5.14-.81-6.89-2.54-6.72-6.62.17-4.12,2.71-6.7,7.39-6.95,1.76-.09,1.82-.93,1.9-2.12.27-3.84,1.38-7.42,3.57-10.61,3.47-5.07,8.17-7.74,14.5-7.25.97.08,2.05.79,2.69-1.06,3.18-9.15,10.69-12.96,20.24-10.44,6.28,1.66,11.2,5.27,14.89,10.55.53.76,1.04,1.53,1.63,2.4Zm-49.7,27.27c-1.53-1.43-2.65-2.53-3.82-3.56-1.36-1.19-2.84-2.17-4.67-2.52-2.94-.57-5.48.94-6.05,3.63-.63,2.95.73,5.03,3.98,5.58,2.91.5,5.86.82,8.81.98,32.61,1.78,65.28,1.42,97.9,2.83,2.52.11,2.29-.75,1.49-2.46-3.55-7.6-8.7-13.85-15.74-18.51-5.08-3.37-10.72-4.8-16.81-4.64-5.02.13-9.1,2.24-12.51,5.97-.85-1.35-1.51-2.53-2.28-3.63-6.75-9.6-21.05-11.26-29.18-3.39-3.51,3.4-3.53,3.65-.82,7.52.06.09-.09.34-.15.51-12.3-8.53-20.44-3.92-20.14,11.68Zm-2.03-5.15c.08-.27.16-.46.18-.67,1.06-10.5,7.3-14.61,17.16-11.09,1.8.64,1.93-.39,2.47-1.35,2.69-4.79,6.74-7.74,12.21-8.55,8.86-1.3,16.25,1.27,21.71,8.56.64.86.93,2.14,2.53.9,5.44-4.2,11.65-4.32,18.09-3.15,3.26.59,6.23,2.04,9.74,3.41-1.89-6.54-4.86-11.63-10.99-13.93-8.93-3.35-15.56,1.44-21.86,6.82-4.71-7.45-10.32-11.72-17.41-13.36-8.76-2.02-15.31,2.19-16.71,10.94-.26,1.6-1.01,1.2-1.91,1.11-10.16-1.03-16.03,3.27-18.05,13.08-.62,2.99-.58,5.61,2.83,7.29Z"/>
    <path class="cls-1" d="m307.68,298.37c7.82-4.43,16.3-6.92,25.05-8.43,20.13-3.48,40.16-3.47,59.93,2.29,6.53,1.9,12.66,4.73,17.8,9.29,1.12.99,1.73.89,2.9.09,12.35-8.48,25.86-7.53,39.58-4.62,1.12.24,2.17.8,3.6,2.26-5.99-2.33-11.53-2.75-17.15-2.63-9.17.18-18.17,1.08-26.08,6.34-1.13.75-2.01.7-3.12-.11-11.62-8.39-25.13-11.21-39.02-12.43-21.41-1.88-42.41,0-62.61,7.89-.26.1-.59.05-.88.07Z"/>
    <path class="cls-1" d="m74.08,393.97c37.2-2.57,73.64-8.99,109.82-17.1,6.99-1.57,14.04-1.29,21.08-.13-.04.56-.41.75-.84.73-12.94-.42-25.28,3.2-37.78,5.64-27.69,5.41-55.59,9.16-83.76,10.83-2.83.17-5.67.02-8.51.02Z"/>
    <path class="cls-1" d="m246.6,398.37c-25.57-.29-50.37,4.41-75.07,11.45,12.83-9.56,62.32-17.19,75.07-11.45Z"/>
    <path class="cls-1" d="m110.6,527.41c26.38,1.75,52.77,3.08,79.19.97-26.46,5.63-52.85,4.35-79.19-.97Z"/>
    <path class="cls-1" d="m556.32,94.88c-8.49-7.99-18.33-5.99-28.14-3.8-4.44,1-8.55,2.98-12.62,4.98-1.08.53-1.81.7-3.05-.15-18.22-12.51-37.45-15.34-57.88-5.61-.28.13-.57.25-.86.35-.07.02-.18-.07-.53-.23,4.03-3.13,8.46-5.07,13.29-6.02,13.49-2.65,26.46-.75,38.9,4.88,1.81.82,3.83,1.72,5.04,3.17,2.5,2.99,4.62,2.4,7.66.75,8.12-4.41,16.9-6.49,26.22-5.68,5.18.45,9.36,2.7,11.98,7.36Z"/>
    <path class="cls-1" d="m45.47,366.18c17.49-20.88,65.94-24.23,81.7-6.45-27.98-14.56-55.29-12.23-81.7,6.45Z"/>
    <path class="cls-1" d="m223.93,359.52c-7.91-8.08-17.87-8.93-28.25-7.88-13.62,1.38-26.64,5.38-39.61,9.53-1.05.34-2.04,1.17-3.51.65,1.67-1.38,3.61-1.86,5.4-2.59,11.86-4.81,24.03-8.56,36.8-10.1,5.51-.66,10.98-.45,16.34.96,5.48,1.44,9.89,4.46,12.83,9.43Z"/>
    <path class="cls-1" d="m324.77,662.36c-6.54-13.59-16.66-22.89-31.99-25.4-15.17-2.49-27.7,2.77-38.19,14.4,3.07-7.96,17.59-18.21,34.29-17,16.97,1.23,33.02,13.48,35.88,28Z"/>
    <path class="cls-1" d="m195.21,658.67c.63-4.25,3.2-7.19,6.43-9.63,8.19-6.17,17.62-7.17,27.41-6.04,7.58.87,14.71,3.26,21.03,7.78-9.39-4.38-19.14-6.95-29.58-6.22-10.63.75-19.57,4.55-25.29,14.11Z"/>
    <path class="cls-1" d="m251.16,307.62c2.49-3.78,6.65-6.02,11.39-7.22,9.02-2.29,18.18-2.47,27.35-1.06,4.76.73,9.22,2.22,12.45,5.29-17.31-5.19-34.71-7.26-51.19,3Z"/>
    <path class="cls-1" d="m330.06,662.28c12.39-10.35,25.47-16.99,41.27-16.88,7.44.05,12.47,2.98,15.48,9.26-8.05-10.34-18.07-8.5-27.9-6.49-9.23,1.89-17.37,6.31-24.81,11.99-.84.64-1.68,1.26-2.54,1.87-.14.1-.37.07-1.49.24Z"/>
    <path class="cls-1" d="m56.03,712.43c20.27-7.96,41.37,4.57,43.62,18.33-9.17-18.12-24.53-22.48-43.62-18.33Z"/>
    <path class="cls-1" d="m468.65,671.29c1.59-24.25,18.8-39.53,44.52-33.91,13.09,2.86,22.69,10.74,29.74,21.84,3.36,5.3,5.89,11.01,7.43,17.15-.7-1.54-1.41-3.08-2.1-4.62-4.64-10.31-10.79-19.45-20.36-25.95-9.1-6.18-19.17-8.63-30.07-7.3-10.22,1.25-17.86,6.51-22.97,15.4-3.12,5.43-4.92,11.31-6.19,17.38Z"/>
    <path class="cls-1" d="m357.72,729.7c-2.98-6.87-4.41-13.96-2.76-21.4,2.66-12,13.22-18.79,26.01-16.87,6.01.9,11.65,2.89,17.04,5.61,7.37,3.72,14.05,8.44,20.68,14.24-1.77-.11-2.47-1.04-3.29-1.68-8.71-6.76-17.99-12.46-28.76-15.42-3.38-.93-6.81-1.53-10.31-1.38-13.6.61-21.96,11.01-20.6,25.52.36,3.85,1.31,7.58,2,11.36Z"/>
    <path class="cls-1" d="m423.32,705c-3.65-9.65-5.87-19.51-3.21-29.75,3.17-12.22,13.45-17.85,25.6-14.16,7.42,2.26,13.55,6.53,18.43,12.62-1.07-.88-2.13-1.77-3.21-2.63-5.23-4.19-10.85-7.64-17.57-8.95-10.22-2-18.17,2.49-21.56,12.37-2.77,8.04-1.78,16.14.02,24.21.47,2.11,1,4.2,1.51,6.3Z"/>
    <path class="cls-1" d="m103.78,113.66c-20.69,24.14-19.63,57.92-2.84,81.48,10.13,14.21,23.65,23.4,40.75,27.35,17.14,3.96,33.24.69,48.67-7.12-8.89,8.11-31.49,15.87-54.85,8.04-27.5-9.21-43.83-28.49-48.54-56.76-3.37-20.22,2.07-38.27,16.81-53Z"/>
    <path class="cls-1" d="m144.34,242.09c36.35-.05,63.47-15.01,79.78-47.9-3.96,13.19-11.96,23.57-22.64,32.01-16.79,13.28-35.97,18.3-57.14,15.88Z"/>
    <path class="cls-1" d="m74.57,150.87c-3.04,31.58,8.37,56.99,31.41,78.23-21.55-8.71-40.07-54.87-31.41-78.23Z"/>
    <path class="cls-1" d="m482.75,438.6c-.07-2.98.39-5.85,1.95-8.46,2.78-4.63,7.75-5.39,11.76-1.79,5.55,4.97,7.07,13.79,3.47,20.16-3.39,6.01-9.67,6.51-13.86,1.01-2.44-3.2-3.4-6.93-3.33-10.92Zm17.88,2.38c.01-4.52-1.75-8.63-4.91-11.46-3.44-3.08-7.11-2.45-9.35,1.6-2.73,4.94-1.81,13.56,1.91,17.76,3.02,3.42,6.77,3.41,9.69-.07,1.9-2.26,2.69-4.92,2.67-7.83Z"/>
  </g>
</svg>