<?xml version="1.0" encoding="UTF-8"?>
<svg width="612" height="612" id="Layer_1" data-name="Layer 1" xmlns="http://www.w3.org/2000/svg" viewBox="0 0 612 612">
  <defs>
    <style>
      .cls-1 {
        fill: #010101;
      }

      .cls-1, .cls-2 {
        stroke-width: 0px;
      }
    </style>
  </defs>
  <path class="cls-1" d="m580.7,580.72H31.3V31.28h549.4v549.44Zm-546.4-3.01h543.4V34.29H34.3v543.43Z"/>
  <g>
    <path class="cls-2" d="m421.63,232.85c3.36-7.05,9.54-10.27,16.14-12.84,10.51-4.09,21.54-5.95,32.73-6.55,18.07-.96,35.95.16,53.15,6.53,5,1.85,9.79,4.13,13.74,7.84,7.03,6.6,7.41,14.82.97,22.01-5.17,5.77-12.01,8.8-19.2,10.89-23.96,6.97-48.12,7.07-72.34,1.35-2.41-.57-4.73-1.48-7.46-2.35,4.21,8.53,7.78,16.89,11.12,25.34.42,1.06,1.27,1.26,2.16,1.51,2.61.74,5.15,1.64,7.49,3.03,5.14,3.05,6.88,7.1,5.72,12.99-.42,2.12-.95,4.27-2.13,6.02-1.71,2.53-.86,3.67,1.52,5,4.23,2.36,8.11,5.25,11.73,8.53,15.7,14.18,16.88,33.62,9.56,50.38-4.93,11.29-13.41,19.61-23.25,26.62-17.64,12.57-37.45,20.6-57.9,27.21-22.06,7.12-44.77,11.11-67.76,13.67-25.81,2.87-51.69,3.52-77.61,2.12-33.71-1.83-66.87-6.68-98.6-18.91-12.32-4.75-24.05-10.52-34.04-19.38-14.37-12.75-19.58-28.8-17.05-47.55.94-6.98,4.64-12.72,9.28-17.83,8.99-9.92,20.27-16.57,32.16-22.33,5.54-2.68,11.29-4.83,17.01-7.05.98-.38,2.06-.49,1.28-2.01-5.97-11.61-2.93-22.71,3-32.98,11.45-19.87,29.04-29.25,52-28.24,2.25.1,3.5-.59,4.81-2.32,8.87-11.69,18.43-22.74,30.35-31.51,22.6-16.62,47.88-23.82,75.89-21.87,18.77,1.31,36.55,5.83,52.88,15.35,11.5,6.71,21.85,14.9,30.59,25.02.61.7,1.23,1.39,2.07,2.32Zm73.56,8.97c.87-.18,1.36.49,1.95.9,7.03,4.9,14.06,9.8,21.04,14.77,1.08.77,1.94,1.05,3.24.57,5.1-1.89,9.97-4.18,14.05-7.85,2.6-2.34,4.64-5.06,5.47-8.65-.98-.21-1.87-.47-2.78-.6-8.67-1.17-17.35-2.3-26.02-3.49-7.84-1.08-15.66-2.25-23.5-3.34-.78-.11-1.86-.52-2.28.45-.48,1.12.83,1.21,1.4,1.68,2.42,1.97,5.45,3.13,7.48,5.62-.64.25-1.05-.2-1.5-.5-2.54-1.72-5.13-3.38-7.61-5.18-1.15-.83-2.31-.83-3.41-.33-1.16.53-.44,1.68-.35,2.5.91,8.03,1.92,16.06,2.8,24.09.17,1.57.98,1.8,2.24,1.68,3.79-.36,7.6-.63,11.38-1.09,6.61-.81,13.15-1.97,19.54-3.99-.28-.98-1.06-1.21-1.64-1.62-6.54-4.6-13.1-9.17-19.63-13.79-.71-.5-1.78-.69-1.9-1.83Zm-131.11,141.84c1.8-5.53,4.71-7.09,9.71-5.22.8.3,1.16.24,1.58-.4,1.5-2.25,3.75-2.39,5.97-1.71,1.86.58,2.08-.15,2.05-1.65-.05-2.21-.84-4.19-1.81-6.11-6.95-13.66-17.6-23.65-30.8-31.13-.78-.44-1.6-.45-2.42-.57-15.49-2.19-29.67-7.7-42.46-16.73-6.63-4.68-12.37-10.56-18.92-15.22-4.2-2.99-5.16-6.72-6.65-10.82-9.29-25.65-26.41-42.24-54.31-45.55-23.87-2.84-46.96,12.36-54.57,35.15-3.9,11.67-1.62,21.82,6.85,30.64,6.85,7.14,15.02,12.55,24.45,15.14,12.87,3.53,25.06,8.36,37.04,14.25,13.7,6.73,28.83,8.54,43.97,9.4,10.43.59,20.87.71,31.3,0,.79-.05,1.81-.34,1.88.97.06,1.12-.95,1.02-1.59,1.13-1.61.26-3.23.39-4.85.58,7.53,2.3,15.16,3.21,23.17,3.84-1.08-2.8-2.7-4.83-4.12-6.98-.29-.44-.84-.95-.32-1.47.66-.67,1.18-.02,1.64.41.54.51,1.06,1.05,1.52,1.63,4.94,6.26,7.6,13.4,7.94,21.36.18,4.29.11,8.6-.66,13.56,4.28-6.56,8.62-7.33,12.7-2.85,4.09-4.49,6.88-4.91,11.71-1.65Zm-4.2,38.92c-.37-.67-.52-1-.73-1.29-4.07-5.79-8.3-11.47-12.19-17.39-3.85-5.85-8.6-11.01-12.3-16.97-2.65-4.26-5.92-8.13-8.77-12.27-1.01-1.47-2.14-2.03-3.9-2.08-11.65-.35-23.25-1.28-34.74-3.23-1.94-.33-2.38.32-2.77,1.88-4.53,17.94-9.06,35.88-13.72,53.79-.64,2.47-.32,3.12,2.38,3.16,22.57.31,45.09-.3,67.53-2.95,6.34-.75,12.65-1.73,19.21-2.64Zm-97.43-59.08c-2.73-.95-5.1-1.7-7.41-2.59-2.43-.93-5.01-1.67-7.17-3.06-5.21-3.34-10.36-3.3-16.04-1.21-7.88,2.9-16.6,3.38-23.77,8.4-.93.65-2.27.86-3.45.98-2.33.23-4.59.73-6.82,1.4-16.2,4.87-32.4,9.76-48.6,14.64-7.35,2.21-14.71,4.42-22.37,6.72,1.96,2.41,4.22,3.85,6.41,5.35,14.13,9.7,29.94,15.63,46.21,20.55,2.06.62,3.62.37,5.43-.8,19.09-12.47,38.24-24.85,57.37-37.26,6.62-4.3,13.25-8.59,20.21-13.11Zm-149.28,13.03c1.28,5.89,3.67,11.17,7.05,16.03,7.98,11.52,19.35,18.68,31.79,24.33,28.86,13.1,59.49,18.93,90.8,21.82,22.13,2.04,44.29,2.27,66.49,1.27,31.39-1.41,62.3-5.76,92.44-14.8,18.77-5.63,36.9-12.91,53.63-23.29,9.59-5.95,18.19-13.01,24.72-22.34,3.59-5.13,6.13-10.71,7.39-17.4-.55.62-.79.79-.9,1.02-4.53,8.9-11.17,15.96-18.99,22.06-14.82,11.56-31.81,18.88-49.32,25.1-39.22,13.94-79.95,19-121.3,20.1-25.48.68-50.87-.64-76.1-4.43-23.09-3.47-45.69-8.86-67.17-18.22-15.97-6.96-30.9-15.4-40.11-31.14-.03-.05-.15-.05-.42-.11Zm70.92,38.99c.48.43.59.61.75.65,27.01,7.37,54.61,10.58,82.49,11.88,1.56.07,1.86-.72,2.15-1.88,4.65-18.29,9.31-36.58,14.01-54.86.46-1.79.24-2.66-1.86-3.02-5.31-.93-10.59-2.13-15.71-3.84-1.58-.53-2.74-.29-4.1.6-17.26,11.22-34.56,22.36-51.83,33.56-8.59,5.57-17.14,11.19-25.9,16.93Zm268.36-76.88c-.06,1.14.62,1.58,1.1,2.09,2.74,2.99,6.01,5.25,9.65,7.02,1.74.85,3.36,1.89,1.55,4.24-6.66,8.7-14.98,14.98-25.69,17.74-4.81,1.24-9.7,1.87-14.61.35-2.66-.83-4.51-2.26-4.97-5.34-.41-2.74-1.35-5.41-2.13-8.08-.22-.75-.38-1.85-1.51-1.67-2.93.46-6.04-.15-8.81.99-7.4,3.05-14.83,6.02-22.49,8.33-1.64.5-1.54,1.03-.86,2.28,1.33,2.46,2.64,5.01,2.68,7.85.03,1.96.96,2.73,2.57,3.42,16.04,6.97,32.05,13.99,48.05,21.03,1.3.57,2.38.57,3.67-.05,5.62-2.71,11.14-5.61,16.42-8.94,10.01-6.32,19.13-13.64,25.37-23.95,4.03-6.67,6.57-13.76,5.25-21.76-.3-1.82-1.03-2.63-3.06-2.74-5.48-.3-10.94-.92-16.41-1.41-5.24-.47-10.48-.93-15.76-1.4Zm-110.81-6.45c2.2-4.16,3.32-8.62,3.6-13.27.15-2.46,1.26-3.61,3.72-3.35,1.66.18,3.32.43,4.98.65,7.11.95,14.21,1.9,21.32,2.84,5.67.75,6.9,1.87,8.14,7.46.41,1.85.86,3.7,1.29,5.55-.04-2.92-.5-5.77-.79-8.63-.42-4.12.02-4.85,3.96-6.09,6.66-2.1,13.47-3.6,20.28-5.15,2.6-.59,5.09-1.1,7.67,1.5-.83-6.35,2.56-9.03,7.37-10.82,5.76-2.14,11.22-5.05,16.94-7.19,4.04-1.5,5.64-4.14,6.57-7.84.49-1.93.44-2.46-1.35-4.52.57,6.96-3.49,10.4-8.95,12.93-3.73,1.73-7.53,3.22-11.48,4.29-6.34,1.72-6.6,1.56-9.22-4.41-5.76-13.12-10.85-26.53-17.19-39.4-2.27-4.62-1.12-8.01,3.56-10.22,1.61-.76,3.32-1.16,5.09-1.4,6.18-.81,12.37-.93,18.65-.45-1.05-.54-2.17-.89-3.3-1.09-3.39-.61-6.8-1.09-10.18-1.75-3.88-.76-7.45-1.97-10.12-5.31-6.73-8.46-13.68-16.74-20.49-25.14-1.42-1.76-3.27-3.52-1.96-6.21.19-.39.01-.74-.36-.93-1.64-.81-3.16-1.94-5.23-1.38-3.32.9-6.69,1.6-10.02,2.48-11.1,2.95-22.11,3.74-33.2-.37-6.97-2.58-14.16-4.54-21.25-6.82-1.6-.51-3.22-1.15-2.18-3.57-1.25.24-2.24.42-3.24.63-14.05,2.93-26.78,8.86-38.72,16.73-2.7,1.78-3.92,3.84-4.19,6.93-.14,1.6.46,2.24,1.74,2,5.99-1.13,11.86-2.96,16.28-7.24,4.77-4.63,9.53-9.14,15.39-12.38,3.23-1.79,6.68-2.49,10.25-1.89,9.68,1.63,18.94,4.68,27.88,8.73,2.41,1.1,2.79,2.61,1.49,4.89-2.44,4.29-4.99,8.51-7.65,12.67-1.59,2.49-3.78,3.62-6.65,4.01-5.37.73-10.78.74-16.15,1.24-11.33,1.06-18.11-6.41-25.31-13.07-.86-.8-1.19-1.45-2.28-.68-.15.1-.34.14-.52.21-4.77,1.84-9.05,5.4-14.71,4.11-.88-.2-.97.76-1.26,1.26-2.34,4.03-5.01,7.85-7.7,11.65-3.17,4.5-6.48,8.88-10.05,13.07-1.21,1.42-.74,1.8.73,2.47,2.29,1.04,2.5-.62,2.98-1.97,4.79-13.46,14.61-21.9,27.3-27.55,2.17-.97,3.96-.97,5.91.56,2.79,2.18,5.58,4.35,8.29,6.62,4.27,3.58,5.24,7.48,2.96,12.8-4.91,11.45-9.3,23.13-14,34.68-.62,1.52-.62,2.64.21,4.11,2.99,5.27,5.49,10.79,7.09,16.65.49,1.81,1.42,2.62,3.1,3.06,9.82,2.55,19.71,4.79,29.78,6.17,6.64.9,13.32,1.6,19.81,3.36,3.77,1.02,5.95,3.35,6.47,7.44.7,5.54.34,10.91-1.12,16.31Zm-162.36,10.43c-6.19.4-11.83.76-17.47,1.12-14.59.94-29.18,1.9-43.78,2.81-1.29.08-2.01.68-2.58,1.76-1.95,3.67-3.24,7.53-3.33,11.71-.21,10.49,4.69,18.71,11.57,26.09,1.37,1.47,2.5,1.91,4.55,1.28,18.56-5.74,37.17-11.34,55.77-16.97,4.73-1.43,9.47-2.85,14.21-4.27-.49-.47-.92-.54-1.35-.62-6.88-1.27-13.3-3.63-18.58-8.4-4.59-4.15-4.8-7.25-.97-12.04.52-.65,1.04-1.3,1.96-2.47Zm162.1,51.54c6.36,9.08,12.33,17.49,18.15,26.01,1.19,1.75,2.41,2.12,4.38,1.78,24.38-4.21,48.12-10.61,70.86-20.49.78-.34,1.84-.36,2.2-1.51-16.56-7.25-33.09-14.47-49.59-21.73-.99-.43-1.31-.12-1.67.67-3.55,7.74-10.56,11.03-17.99,13.47-8.32,2.73-16.89,3.72-26.36,1.8Zm73.84-148.62c-1.86.13-3.72.18-5.57.39-2.39.28-4.82.47-7.05,1.53-4.13,1.95-5.11,4.71-3.16,8.77,1.61,3.35,3.21,6.71,4.68,10.12,4.52,10.5,9.01,21.01,13.44,31.55.84,2,1.85,2.83,4.23,2.31,5.97-1.3,11.43-3.74,16.9-6.35,5.87-2.8,6.8-10.83,5.27-15.01-3.13-8.56-7.5-16.56-11.56-24.72-3.82-7.68-9.47-9.73-17.19-8.59Zm-298.06,100.12c11.77-.77,23.09-1.51,34.42-2.27,9.01-.6,18.02-1.23,27.03-1.83,1.16-.08,2.07-.37,2.89-1.34,2.93-3.5,5.74-7.08,8.14-10.99.95-1.56,1.03-2.42-.76-3.45-6.26-3.63-11.83-8.09-15.98-14.13-.76-1.11-1.55-1-2.62-.62-15.66,5.45-30.44,12.55-43.23,23.32-3.77,3.18-7.18,6.71-9.88,11.3Zm157.83-69.95c5.01-13.53,11.17-26.54,15.6-40.25.48-1.49-.19-2.51-.99-3.56-3.04-3.97-7.04-6.86-11-9.81-1.82-1.36-3.38-1.4-5.35-.51-12.27,5.56-21.72,13.82-26.53,26.81-.8,2.17-.5,2.96,1.51,3.94,10.06,4.92,18.34,11.96,24.73,21.2.5.73.84,1.64,2.04,2.17Zm30.13-45.96c3.38-.16,5.8-.19,8.21-.4,2.41-.21,4.79-.65,7.2-.9,2.42-.25,4.15-1.4,5.39-3.48,2.16-3.59,4.45-7.1,6.58-10.7,2.4-4.08,2.36-4.17-1.89-6.02-7.61-3.31-15.51-5.78-23.63-7.48-3-.63-6.14-.93-9.09.33-7.08,3.02-12.8,7.86-17.77,13.66-1.2,1.4-1.05,2.69.39,3.84,2.33,1.86,4.65,3.72,6.97,5.59,5.44,4.38,11.36,7.17,17.64,5.56Zm118.2,136.64c2.37-5.63,4.61-6.45,9.85-3.68.83.44.89-.1,1.23-.48,1.47-1.66,3.29-2.13,5.28-1.19,1.08.51,1.49.45,2.04-.69.91-1.88,2.5-3.15,4.7-2.75,1.54.28,1.99-.06,2.32-1.58.7-3.22,2.91-4.68,6.12-4.35,1.31.13,2.49.66,3.68,1.21,1.83.86,2.12-1.02,2.82-1.89.9-1.12-.39-1.35-1.04-1.69-3.6-1.86-6.72-4.28-9.36-7.38-3.29-3.85-5.85-8.16-8.16-12.63-.84-1.61-1.58-1.84-3.2-1.02-4.39,2.23-9.02,3.94-13.7,5.48-.96.32-1.88.62-2.62,1.47-2.02,2.34-4.49,4.21-7.09,5.82-1.77,1.09-2.09,2.06-1.07,3.94,2.93,5.41,5.1,11.14,6.52,17.15.33,1.39.42,2.95,1.69,4.24Zm-201.07-28.56c.51,1.45,1.37,1.89,2.04,2.49,12.25,10.93,26.96,17.14,42.42,21.71,21.63,6.41,43.88,8.21,66.33,8.01,4.44-.04,4.5,1.08,3.19-4.34-.59-2.43-1.57-3.61-4.42-3.79-7.43-.45-14.78-1.74-22.1-3.16-4.38-.85-8.57-2.63-13.04-2.92-4.55-.3-9.13-.13-13.69-.36-19.49-.98-38.19-4.96-55.28-14.88-1.64-.95-3.39-1.73-5.43-2.76Zm194.3-25.55c.23,1.37.25,2.82.74,4.09,1.62,4.16,3.49,8.22,5.09,12.38.76,1.97,1.71,2.47,3.75,1.75,4.38-1.56,8.79-3.07,12.96-5.14,6.45-3.2,12.54-6.95,17.48-12.32,1.23-1.34,1.36-2.24.11-3.72-3.4-4.08-6.67-8.26-9.82-12.54-1.31-1.78-2.58-2.06-4.48-1.13-6.85,3.37-13.87,6.35-20.96,9.17-3.43,1.36-4.76,3.95-4.89,7.46Zm-237.91,35.84c3.82-.39,6.71.3,7.75,4.17.22.82.86.43,1.37.43,6.14.06,9.7,2.75,11.4,8.63.24.84.08,1.89,1.48,1.92,2.51.04,5.06.34,7.33-1.07,6.64-4.11,11.88-9.5,15.14-16.69.61-1.34.62-2.3-.77-3.28-2.06-1.45-3.77-3.32-5.27-5.36-.53-.72-1.12-1.22-2-1.37-7.11-1.21-13.83-3.61-20.33-6.66-1.41-.66-1.95-.13-2.57,1.01-2,3.7-4.61,6.98-7.21,10.26-2.01,2.53-4.41,4.77-6.33,8Zm108.59-47.83c4.63,5,9.77,9.29,15.09,13.35,10.6,8.09,22.06,14.46,35.07,17.87,2.38.62,3.11-.15,3.64-2.24.91-3.57.99-7.18.84-10.81-.25-6.27-1.78-8.24-8.02-9.48-15.48-3.08-31.33-4.17-46.62-8.68Zm102.31,35.95c9.3-.35,18.41-1.56,27.46-3.33,5.55-1.09,5.53-1.12,3.23-6.43-1.11-2.56-2.18-5.13-3.23-7.71-.7-1.75-1.71-3.29-2.86-4.76-.81-1.03-1.79-1.5-3.17-1.23-7.93,1.56-15.77,3.48-23.52,5.79-1.91.57-2.73,1.74-2.48,3.72.46,3.69.97,7.37,1.29,11.07.19,2.2.77,3.64,3.28,2.88Zm-14.81.13c3,0,5.24-.08,7.47.03,1.59.08,1.97-.59,1.68-1.99-.6-2.91-1.29-5.81-1.76-8.75-.52-3.24-2.43-4.86-5.55-5.31-9.11-1.32-18.3-2.13-27.36-3.82-1.61-.3-2.64.2-2.8,2.12-.35,4.09-1.15,8.1-2.63,11.95-.58,1.52-.44,2.24,1.48,2.56,10.02,1.68,20.06,3.03,29.47,3.21Zm52.91-96.05c2.87,4.51,5.93,8.45,8.02,12.86,1.91,4.02,4.93,5.65,8.85,6.58,1.12.27,1.84.12,2.75-.61,9.28-7.45,18.62-14.83,27.9-22.28.59-.48,2.04-.66,1.33-1.99-.58-1.07-1.59-.58-2.5-.47-5.16.66-10.32,1.28-15.48,1.93-10.21,1.3-20.43,2.62-30.86,3.96Zm19.44,20.08c12.33,2.8,24.02,3.93,35.86,3.81,1.46-.02,1.63-.58,1.45-1.88-1.06-8.01-2.02-16.04-3.07-24.05-.11-.82.41-2.08-.89-2.35-1.25-.26-2.46-.31-3.64.69-3.41,2.88-6.94,5.61-10.43,8.39-6.24,4.98-12.47,9.96-19.28,15.4Zm-73.61-58.25c-.81-1.12-1.82-1.18-2.66-1.51-14.34-5.59-29.29-7.73-44.59-7.67-4.65.02-9.29.54-13.94.91-1.47.12-3.48.29-3.69,1.89-.19,1.4,1.84,1.53,2.99,1.95,7.09,2.56,14.5,4.2,21.54,6.81,13.9,5.15,26.9.37,40.34-2.39Zm46.33,133.1c-20.9,4.58-41.44,5.61-62.22,3.14,6.69,4.73,12.81,9.83,17.88,16.11.82,1.02,1.65.54,2.51.32,11.32-2.92,22.1-7.22,32.28-12.95,3.21-1.81,6.42-3.68,9.55-6.62Zm4.79-92.13c-.27-.61-.33-.89-.49-1.1-.8-1.14-1.61-2.28-2.45-3.39-9.86-13.03-22.03-23.39-36.29-31.3-1.4-.78-3.12-2.96-4.54-1.28-1.39,1.65.66,3.4,1.78,4.78,7.04,8.66,14.16,17.27,21.24,25.9,1.09,1.33,2.38,2.33,4.04,2.85,5.34,1.67,10.84,2.5,16.71,3.54Zm43.17,74.74c.44,2.88-1.18,3.92-2.78,4.91-4.91,3.02-9.91,5.86-15.15,8.27-.7.32-1.74.41-1.9,1.4-.2,1.31,3.28,4.96,4.76,5.1,10.55.96,21.1,1.83,31.63,2.95,2.73.29,2.26-.62,1.5-2.3-3.78-8.42-10.23-14.46-18.05-20.33Zm-39.92-78.4c.09-.02.18-.04.27-.05,14.86-1.9,29.73-3.77,44.59-5.73,1.11-.15,3.13.27,3.15-1.02.02-1.36-2.03-1.15-3.2-1.38-12.6-2.49-25.2-4.92-37.81-7.35-.44-.08-.98-.17-1.34.01-4.24,2.12-8.1,4.68-9.97,9.31-.69,1.71,2.51,6.2,4.31,6.19Zm105.79-12.31c-.69-.54-.95-.8-1.26-.98-11.79-7.05-24.9-9.37-38.3-10.64-1.39-.13-1.7.83-2.15,1.73-1.86,3.64-3.74,7.27-5.56,10.93-.39.79-1.33,1.63-.79,2.49.56.88,1.72.37,2.6.3,3.33-.27,6.66-.63,9.99-.91,11.66-.97,23.32-1.92,35.47-2.92Zm-46.74,4.71c.64,1.47,1.62,1.42,2.5,1.54,16.68,2.32,33.37,4.61,50.04,7.01,1.46.21,1.85-.07,1.79-1.43-.19-4.42-2.39-7.73-5.72-10.43-.63-.51-1.35-.51-2.12-.45-15.4,1.25-30.81,2.49-46.49,3.75Zm-51.98-8.6c6.1,1.12,11.46,2.06,16.81,3.1,7.94,1.54,15.87,3.17,23.81,4.73.81.16,1.76.43,2.4-.25.8-.86-.21-1.51-.57-2.16-2.05-3.76-4.24-7.44-6.23-11.23-.79-1.52-1.61-2.11-3.43-1.95-6.51.57-12.96,1.43-19.28,3.07-4.36,1.13-8.77,2.22-13.51,4.7Zm-203.03,23.32c2.41.67,4.47,1.22,6.52,1.81.99.29,1.69.17,2.41-.73,6.32-7.82,12.31-15.87,17.65-24.39,1.33-2.12,2.3-4.43,2.28-7.46-11.42,8.75-20.32,19.36-28.87,30.76Zm145.86,110.73c.82,1.22,1.7,2.21,2.21,3.37.83,1.87,1.98,1.97,3.77,1.39,9.74-3.16,19.33-6.68,28.55-11.15,1.88-.91,2.64-1.81,1.28-3.67-.33-.45-.6-.95-.79-1.47-.58-1.58-1.4-1.93-2.92-.97-1.48.94-3.13,1.64-4.71,2.42-8.71,4.28-17.84,7.41-27.39,10.08Zm103.81-142.18s0-.02,0-.02c-2.88,0-5.77.03-8.65-.01-1.61-.03-2.01.4-1.13,1.91,2.29,3.93,4.46,7.93,6.72,11.88,1.31,2.3,5.22,2.33,6.48,0,2.11-3.92,4.06-7.93,6.16-11.86.83-1.54.3-1.93-1.21-1.9-2.79.04-5.58.01-8.37.01Zm-18.68,83.59c.26-2.21-1.45-4.21-3.8-5.79-2.57-1.73-5.47-2.76-8.44-3.55-.99-.26-2.31-1.75-3.08-.02-.74,1.66-2.34,3.45-.85,5.42,3.7,4.89,7.51,9.7,11.27,14.56.6.78,1.05.92,1.61-.06,1.73-3.01,3.11-6.13,3.29-10.56Zm-246.38,61.2c7.36-2.01,14.72-4.01,22.35-6.09-4.16-2.75-7.96-5.24-11.73-7.78-.7-.47-1.12-.52-1.48.33-2.11,5.07-5.75,9.06-9.15,13.53Zm120.2,27.7c.88-4.64,1.4-9.02,1.02-13.44-.07-.81-.27-1.46-1.26-1.46-3.37,0-6.75,0-10.77,0,3.95,5.34,7.48,10.12,11,14.9Zm22.34-4.82c-4.08-.06-7.51,4.63-6.17,8.38.3.84.87.82,1.53.77,3.42-.26,6.78-.89,10.08-1.8.57-.16,1.28-.1,1.18-1.13-.26-2.68-3.92-6.18-6.62-6.22Zm6.3,1.55c0,3.79,2.05,5.15,5.46,3.64,1.01-.45,2.03-.9,3-1.43,3.44-1.86,3.4-1.97,1.18-5.28-1.49-2.23-3.38-3.12-5.92-2.24-2.47.86-3.58,2.77-3.72,5.31Zm-13.62,5.54c-.16-4.21-1.05-5.59-3.77-6.08-2.65-.48-5.03.93-6.15,3.63-1.37,3.31-.98,3.94,2.65,4.3,1.57.15,3.14.25,4.7.44,1.95.24,3.18-.17,2.58-2.29Zm112.41-70.1c-6.32.99-12.51,2.28-18.11,5.53-.98.57-2.17.87-1.09,2.36.75,1.04.93,2.73,3.01,1.54,3.53-2.03,7.22-3.76,10.78-5.74,1.89-1.05,3.92-1.96,5.41-3.69Zm-267.18,41.97c-.54-2.39-1.65-4.09-3.3-5.41-2.89-2.31-6.96-2.52-9.31-.54-.89.75-1.53,1.43-.04,2.26,3.61,2.01,7.45,3.37,11.47,4.28.84.19,1.29.06,1.19-.59Zm252.55-4.51c-.02,2.27,1.36,3.84,2.47,3.01,1.99-1.49,3.83-3.18,5.71-4.81.61-.53.63-1.1-.11-1.55-1.74-1.03-3.55-1.59-5.52-.68-1.83.84-2.31,2.5-2.54,4.03Zm-19.85,10.66c1.18-.72,3.43,1,3.71-1.26.31-2.56-1.66-4.5-3.82-4.53-2.16-.02-4.79,1.85-4.57,3.62.37,2.97,3.05,1.45,4.69,2.16Zm-248.33-18.69c-2.23-.03-3.66.92-3.69,2.21-.03,1.03,3.11,4.57,4.1,4.63.95.06,3.44-2.68,3.25-3.76-.39-2.18-2-2.94-3.66-3.09Zm264.71,9.33c-1.68.04-2.7.98-3.31,2.46-.51,1.24-.93,2.69.18,3.61,1.08.9,2.17-.39,3.25-.74.43-.14.88-.34,1.22-.63.76-.66,2.48-.82,2.02-2.15-.47-1.36-1.7-2.38-3.35-2.54Zm-11.42,6.5c.39.77-.3,2.5,1.57,2.18,1.9-.32,4.6-.1,5.15-2.16.39-1.45-1.32-3.24-3.37-3.35-2.15-.12-3.18,1.16-3.35,3.33Zm46.74-129.89c1.68-.54,4.65.17,4.56-2.35-.07-2.01-2.79-1.45-4.49-1.54-.09,0-.19,0-.28,0-1.68.12-4.04.12-3.97,2.1.07,2.1,2.58,1.4,4.18,1.79Zm-101.97,142.01c-1.69-.12-3.01.49-3.37,2.22-.33,1.59.63,3.19,1.66,3.87,1.35.9,1.89-1.19,2.87-1.85.22-.15.41-.39.54-.63.47-.84,1.83-1.45,1.29-2.52-.53-1.04-1.88-1.03-2.98-1.09Zm76.17-58.01c3.74-1.11,7.12-1.54,10.78-2.05q-5.33-3.58-9.39.5c-.37.37-.7.78-1.39,1.55Zm-44.68,35.13c.05.17.09.34.14.51,1.37-.17,2.74-.34,4.11-.5.71-.08,1.35-.18.9-1.16-.3-.65-.61-1.1-1.46-.64-1.2.65-2.46,1.2-3.69,1.79Z"/>
    <path class="cls-2" d="m438.12,90.47c.64-1.95.98-3.07,1.37-4.17,1.02-2.79,2.2-3.26,4.89-1.89,3.25,1.66,5.4,4.42,7.48,8.16.29-2.93.57-5.19,1.4-7.31,1.37-3.5,3.72-4.21,6.79-1.99,3.38,2.45,5.25,5.98,6.65,9.79.5,1.36.9,2.75,1.44,4.45,2.37-4.26,4.49-8.27,6.79-12.17,2.05-3.47,3.19-3.41,5.47,0,1.84,2.74,2.73,5.89,3.84,9.31,3.23-4.51,6.03-8.96,8.45-13.64,1.15-2.23,1.83-2.13,2.94-.07,2.13,3.94,3.66,8.11,4.93,13,1.19-1.97,2.11-3.54,3.08-5.08.94-1.5,1.9-2.99,2.92-4.43,4.28-6.03,7.42-5.83,11.02.72,2.22,4.04,3.2,8.46,3.76,13.55,2.03-2.05,3.64-3.8,5.39-5.4,1.02-.93,2.21-1.72,3.42-2.41,3.99-2.29,5.13-1.65,5.46,3.02.32,4.57.09,9.11-.67,14.27,4.25-3.4,7.85-6.69,11.2-10.26,1.91-2.04,3.7-4.19,5.58-6.27.48-.53.93-1.4,1.75-1.17.92.25.97,1.24,1.14,2.05,1.16,5.62-.4,10.91-2.05,16.16-1.38,4.36-3.31,8.51-5.71,12.4-1.29,2.09-1.55,3.29,1.39,3.83,2.19.4,4.16,1.56,6.13,2.64,15.58,8.54,12.88,23.62,4.73,32.38-5.57,5.99-12.87,8.84-20.46,10.82-12.01,3.14-24.27,3.91-36.59,2.29-6.5-.85-11.75-3.92-14.96-10.25-4.32,6.89-11.07,8.25-18.13,8.42-14.45.35-28.42-1.99-41.29-8.91-6.09-3.27-11.37-7.64-13.1-14.84-1.89-7.88.17-14.55,6.62-19.69,3.01-2.4,6.33-4.3,9.91-5.65,1.91-.72,2.52-1.54,1.42-3.43-.64-1.09-.96-2.37-1.45-3.62-9.96,14.65-25.45,18.58-41.29,21.58-8.26,1.57-16.68,1.82-25.02.11-9.66-1.98-16.46-7.43-20.1-16.71-2.36-6.01-3.46-12.35-4.97-18.58-.81-3.36-1.94-6.61-3.36-9.75-.36-.81-.52-2.03-1.65-2-1.22.02-1.18,1.33-1.42,2.13-1.78,6.19-2.75,12.54-3.55,18.92-.43,3.43-1.05,6.81-1.97,10.13-2.84,10.28-10.86,17.04-22.43,17.98-19.01,1.56-36.85-2.65-53.23-12.41-6.17-3.68-11.14-8.72-13.94-15.56-.81-1.99-1.58-4.04-1.52-6.2.13-4.75-.6-9.38-1.24-14.06-.65-4.75,1.41-8.9,4.61-12.45,4.46-4.95,10.03-8.26,16.03-10.94,13.41-5.99,27.63-8.76,42.08-10.59,17.91-2.28,35.89-2.51,53.86-1.07,20.56,1.65,40.88,4.71,60.26,12.24,5.66,2.2,11.03,4.97,15.84,8.75,4.45,3.5,7.96,7.69,10.06,13.86Zm-19.62,59.75c.86-1.26,2.32-1.38,3.58-1.84,2.65-.96,5.34-1.83,8.1-2.76-.28-.4-.37-.58-.5-.69-2.05-1.82-4.67-3.3-3.42-6.84.35-.99-.74-.82-1.3-.84-2.32-.08-4.64-.08-6.96-.14-1.16-.03-1.95.3-2.11,1.63-.41,3.36-.35,6.66.75,9.9.33.99.82,1.62,1.94,1.52-.96,1.18-.11,1.99.56,2.86,4.06,5.3,9.76,8.21,15.71,10.78.82.35,1.4.16,2.06-.28,4.64-3.09,9.29-6.16,14.09-9.35-.47-.22-.77-.45-1.1-.51-6.2-1.13-12.01-3.33-17.35-6.66-1.18-.73-2.12-.41-3.15-.1-3.64,1.08-7.26,2.21-10.89,3.33Zm-130.26-89.54c-1.02.07-1.86-.67-2.97-.44-10.49,2.19-20.88,4.68-30.55,9.47-5.11,2.53-9.93,5.54-13.72,9.91-.8.92-1.85,1.78-1.92,3.33,1.08,0,2.01,0,2.94,0,22.54,0,45.08-.03,67.62-.02,4.84,0,9.69.07,14.53.1,1.19,0,2.68.29,3.01-1.25.3-1.37-1.27-1.37-2.05-1.77-11.06-5.74-22.16-11.4-33.23-17.11-1.29-.66-2.77-1.05-3.72-2.28.69-.25,1.26.09,1.84.39,4.73,2.39,9.48,4.74,14.19,7.16,7.69,3.94,15.35,7.94,23.05,11.87.87.45,1.99,1.23,2.84.42.79-.75-.17-1.7-.51-2.48-2.78-6.39-5.66-12.74-8.39-19.15-.69-1.61-1.57-2.21-3.34-2.11-9.39.52-18.74,1.39-28.03,2.81-.8.12-1.42.26-1.59,1.15Zm-5.66,23.36v-.28c-13.79,0-27.57.07-41.35-.06-2.64-.03-3.61.97-4.01,3.37-1.02,6.2,1.4,11.1,5.61,15.33,6.34,6.36,14.51,9.21,22.84,11.72.83.25,1.44-.18,2.11-.47,19.32-8.48,38.64-16.98,57.96-25.47,2.46-1.08,2.54-1.57.8-3.57-.7-.8-1.53-.56-2.31-.56-13.88-.02-27.75-.01-41.63-.01Zm153.96,16.69c.23-.05.47-.1.7-.15,0-2.69.49-5.49-.11-8.03-1.02-4.39-3.39-8.23-6.52-11.55-.84-.89-1.71-1.19-2.96-1.07-4.08.37-8.17.68-12.26.83-18.35.66-36.7,1.22-55.04,1.87-5.77.2-11.54.53-17.31.86-.75.04-1.92-.24-2.01.96-.09,1.2,1.14,1.06,1.84,1.22,4.8,1.1,9.61,2.18,14.44,3.16,22.7,4.6,45.34,9.49,68.16,13.46,1.64.28,2.2.2,1.81-1.68-.53-2.54-.76-5.15-1.08-7.74-.09-.72-.27-1.6.52-2.02.75-.4,1.43.15,2.04.56,1.49,1,2.71,2.29,3.77,3.71,1.37,1.85,2.68,3.74,4.02,5.62Zm-168.51,13.92c2.89.81,5.21,1.45,7.53,2.11,8.3,2.37,16.2,6.2,24.84,7.29,12.12,1.54,24.5-1.57,27.51-18.39.93-5.21,2.18-10.36,3.88-15.39.73-2.15-.09-3.05-2.33-2.54-.8.18-1.56.59-2.33.92-14.98,6.56-29.97,13.11-44.95,19.69-4.57,2-9.12,4.06-14.16,6.3Zm70.75-27.39c.79,1.21,2.11,1.74,3.27,2.48,14.41,9.08,29.24,17.47,43.71,26.43,4.53,2.8,8.45,4.07,13.14,1.01.98-.64,2.26-.83,3.39-1.25,8.09-3.01,16.53-5.14,24.15-9.38.76-.42,1.9-.6,1.67-1.89-.21-1.2-1.27-1.24-2.15-1.4-2.84-.51-5.7-.91-8.53-1.45-25.11-4.81-50.2-9.72-75.14-15.35-1.25-.28-2.6-.72-3.52.81Zm-12.04,27.76c-4.38,7.23-10.5,10.19-17.77,11.01-5.05.57-10.04.03-14.93-1.39-9.29-2.68-18.34-6.12-27.73-8.55-10.53-2.72-20.53-6.65-27.96-15.92-.56,4.43.52,8.03,2.19,11.46,3.5,7.18,9.37,11.98,16.25,15.61,8.55,4.51,17.71,7.26,27.22,8.89,7.94,1.37,15.89,2.18,23.88.53,11.29-2.33,18.74-10.57,18.85-21.64Zm15.64-10.64c.78,5.49,2.12,10.79,4.23,15.86,3.03,7.26,8.41,11.93,15.89,14.21,3.31,1.01,6.7,1.54,10.17,1.65,12.55.37,24.68-1.82,36.35-6.33,7.27-2.81,14.03-6.53,18.74-13.1,1.65-2.3,2.54-4.63,1.53-7.55-.48-1.38-.81-1.62-2.05-.93-3.26,1.82-6.71,3.21-10.22,4.45-9.12,3.21-18.28,6.31-27.2,10.09-4.64,1.96-9.53,3.09-14.55,3.74-11.91,1.53-22.73-3.8-28.64-14.27-1.46-2.58-2.84-5.21-4.25-7.82Zm-1.62-22.29c29.02-1.14,58.03-1.09,87-3.3-1.01-1.11-2.04-1.89-3.11-2.62-10.35-7.08-22.21-10.28-34.15-13.27-2.02-.51-3.76-.29-5.63.54-4.42,1.97-8.92,3.75-13.38,5.63-10.25,4.33-20.49,8.67-30.73,13Zm-3.14,5.82c-.06.28-.18.49-.12.62,3.94,8.72,7.43,17.68,12.59,25.8,2.2,3.46,5.26,6.03,8.98,7.74,10.79,4.98,21.2,2.56,32.07-1.74-18.21-10.8-36.12-21.16-53.52-32.42Zm123.58,29.55c-.13,5.42.33,10.79,1.66,16.06,1.06,4.18,3.18,7.74,6.44,10.56.56.48,1.67,1.77,2.23.39,1.73-4.29,5.47-5.6,9.35-6.65,1.41-.38,1.45-1.16,1.41-2.23-.24-6.87-1.5-13.48-4.79-19.62-2.58-4.8-6.71-7.36-11.93-8.29-2.62-.46-4.13.71-4.34,3.36-.17,2.13-.03,4.28-.03,6.42Zm38.17-14.06c-4.37,6.03-9.05,11.22-12.17,17.5-2.02,4.08-2.19,8.61-2.93,13.01-.37,2.2-.49,3.72,2.44,4.33,3.61.75,6.74,3.15,10.53,3.56.94.1,1.8.34,2.43-.72,3.51-5.93,6.18-12.03,5.38-19.24-.7-6.32-3.55-11.91-5.67-18.44Zm16.27-1.87c1.39,7.94-1.41,14.57-5.61,20.69-4.17,6.08-4.74,13.69-9.3,19.95,3.38,0,4.85,1.12,3.51,4.16,9.57-.68,17.84-9.33,19.76-20.78,1.61-9.63-1.93-22.49-8.36-24.02Zm-49.78,41.52c-3.54-4.85-4.98-9.8-5.58-15.05-.14-1.28-.14-2.82-.85-3.75-3.13-4.12-5.23-8.76-7.39-13.4-.97-2.09-2.49-3.96-5.12-3.54-2.51.39-3.75,2.4-4.19,4.7-1.73,9.2-.03,17.71,6.34,24.72,4.22,4.64,9.72,6.93,16.79,6.33Zm-9.94,9.86c5.19-.06,9.57-1.43,13.52-4.1.59-.4,2.11-.99.72-2.03-1.58-1.18-3.03-2.53-5.44-2.2-5.03.7-9.53-.98-13.62-3.88-1.91-1.35-3.54-3.01-5.2-4.64-4.1-4.04-11.15-4.38-15.6-.82-3.39,2.72-3.58,5.29-.23,7.92,7.69,6.05,16.54,9.11,25.86,9.74Zm-69.88-90.98c-10.31-1.94-19.96-3.41-29.71-4.27-1.78-.16-2.71.34-3.64,1.73-4.35,6.51-8.79,12.95-13.15,19.44-.39.58-1.55,1.12-.71,2.05.68.76,1.57.26,2.34-.06,4.55-1.89,9.1-3.79,13.65-5.71,10.19-4.3,20.37-8.6,31.23-13.19Zm-64.44-5.2c-.19.97.32,1.58.61,2.23,2.8,6.28,5.59,12.56,8.45,18.81.44.97.32,2.67,2.13,2.38,1.95-.31,4.11.87,5.72-1.62,3.99-6.17,8.29-12.13,12.44-18.19.6-.88,1.58-1.59,1.55-2.94-10.33-.83-20.61-1.19-30.9-.67Zm204.88,73.7c3.09-.37,5.76-.94,8.44-.94,3.39,0,5.52-1.62,7.36-4.2,4.8-6.75,8.44-14.02,10.4-22.09.83-3.41,1.19-6.86.47-10.87-5.54,6.94-11.78,12.51-18.06,18.03-.56.49-.62,1.12-.8,1.73-1.78,6.28-3.98,12.39-7.81,18.34Zm-41.6,28.07c5.88,0,15.91-7.41,17.94-13.17.5-1.4-.27-1.36-1.17-1.38-4.94-.07-9.47-1.65-13.87-3.73-1.68-.79-3.46-1.31-5.38-1.2-5.55.33-9.79,4.02-9.59,8.42.28,6.3,5.46,11.03,12.08,11.04Zm18.62-9.97c6.99,1.01,13.01,4.03,18.5,8.21,2.82,2.15,5.7,4.23,8.31,6.61,1.81,1.65,3.48,1.97,5.78,1.28,6.12-1.86,12.32-3.44,18.33-6.92-9.3-3.35-18.2-6.45-27.39-8.71-4.31-1.06-8.89-.07-13.01-1.42-3.82-1.25-6.99.4-10.52.95Zm23.91-.65c8.32,2.11,16.39,4.82,24.28,7.96,3.06,1.22,4.98.66,7.01-1.59,2.98-3.3,5.73-6.62,5.34-11.49-.17-2.14-.79-3.39-3.34-3.26-3.9.2-7.81.05-11.71.05-1.22,0-2.39.09-3.5.72-5.68,3.28-11.54,6.16-18.08,7.6Zm-15.29-2.11c4.56.77,8.32,1.06,12.12.7,9.1-.86,16.79-5.25,24.31-9.95,1.48-.92,4.19-1.56,3.75-3.52-.42-1.89-3.08-2.11-4.99-2.42-7.61-1.25-14.98.84-22.42,1.81-.48.06-1.08.49-1.31.92-2.63,4.88-5.97,9.14-11.45,12.46Zm-10.21-39.89c1.88-2.7,3.1-5.59,4.08-8.59.28-.86.62-1.93,1.79-1.85,1.13.07,1.35,1.05,1.57,2.01,1.15,5.09.47,9.78-2.85,13.97-.6.76-1.79,1.45-1.45,2.55.99,3.26,1.37,6.64,1.85,10.76,2.45-4.5,4.95-8.08,6.38-12.23,1.01-2.93,1.42-5.97,1.22-9.07-.24-3.69-.05-3.91,3.27-2.49,1.42.61,2.08.58,2.02-1.15-.22-5.98-1.53-11.63-5.22-16.48-1.87-2.46-3.06-2.47-5.12-.12-2.47,2.81-4.03,6.27-6.26,9.22-3.3,4.36-1.86,8.89-1.28,13.48Zm-30.9,43.75c-5.27,3.51-10.97,5.09-17.22,4.57-.59-.05-1.29.24-1.81.57-4.92,3.15-9.8,6.34-15.12,9.8,7.59,2.57,14.89,4.06,22.39,4.66,1.24.1,1.5-.88,1.93-1.67,2.82-5.23,5.85-10.34,9.24-15.22.46-.67,1.1-1.31.59-2.71Zm60.46,15.95c-8.92-7.36-17.16-15.1-29.22-15.95-.1.35-.17.48-.14.53,4.34,6.34,7.65,13.15,9.37,20.67.2.85.52,1.02,1.35.75,6.07-1.98,12.15-3.92,18.63-6Zm-24.61,6.27c3.9.12,3.99.06,3.13-2.94-1.66-5.74-4.03-11.16-7.34-16.17-1.03-1.56-1.78-1.83-3.1-.32-2.23,2.54-4.93,4.52-7.97,6.01-3.48,1.7-3.77,2.74-1.56,5.93.96,1.39,2.16,2.55,3.51,3.56,4.16,3.11,9.08,3.56,13.33,3.93Zm18.39-42.96c7.13-11.12,9.86-23.31,9-36.38-.1-1.45-.75-1.69-2-1.06-4.81,2.41-8.2,6.33-11.34,10.53-.41.55-.32.95.03,1.48,5.18,7.84,5.94,16.41,4.3,25.43Zm-72.03-19.53c-.32-6.79-.42-13.15-4.2-18.7-1.38-2.03-2.94-3.83-5.14-5.02-1.58-.85-2.57-.58-3.13,1.25-1.23,4.03-1.9,8.14-2.36,12.31-.32,2.94.4,5.5,2.01,7.93,1.02,1.55,1.68,2.34,3.36.42,1.87-2.15,4.45-2.12,6.83-.46.82.57,1.53,1.31,2.64,2.27Zm11.49-3.41c1.87-1.64,2.31-3.5,2.14-5.51-.45-5.13-2.2-9.8-5.4-13.83-1.23-1.55-2.62-3.71-4.86-3.17-2.29.55-2.44,3.1-2.73,5.08-1.16,7.91.98,15.69,1.08,23.56,0,.07.12.14.3.35,2.1-3.8,1.5-8.53,4.27-12.04-.34,2.73-.54,5.34.98,7.78q2.8-2.09.22-7.66c2.58.95,2.85,3.39,3.99,5.45Zm7.15,45.91c-3.86,5.33-6.94,10.81-10.06,16.27-.68,1.18-.12,1.44.95,1.47,5.22.15,10.44.09,15.42-1.66,3.68-1.3,6.6-3.61,8.2-7.63-6.44-.22-11.45-2.44-14.52-8.45Zm-28.49-19.89c-2.27-6.67-3.79-13.3-2.13-20.29.12-.5.07-.91-.26-1.29-3.5-4.04-5.48-9.08-8.75-13.28-1.29-1.66-2.47-3.44-4.99-5.17,2.58,15.07,5.26,29.2,16.13,40.03Zm53-26.61c.95-1.51,3.19-2.19,3.21-4.03.06-6.98-1.82-13.47-5.5-20.02-2.22,4.37-4.56,8.04-6.9,11.7-1.74,2.74-4.33,5.41-.28,8.48.83.63,1.01,2.15,1.43,3.28.35.96.62,1.94,1.07,3.38,1.75-3.67,3.27-6.86,4.96-10.39,1.6,2.64,1.59,5.07,2.01,7.61Zm-14.38,3.89c2.92-5.44.75-19.84-3.51-24.33-1.13-1.19-1.58-.4-2.04.44-2.53,4.55-5.12,9.06-7.13,13.87-.25.6-.7,1.29-.12,1.81,2.14,1.91,2.72,4.68,3.99,7.42,1.09-2.33,2.02-4.34,2.96-6.36.31-.66.49-1.57,1.36-1.57.81,0,1.22.79,1.51,1.48,1,2.38,1.97,4.78,2.99,7.24Zm-42.18,22.04c-1.72-2.65-3.43-5.07-4.9-7.63-.76-1.34-1.48-.98-2.49-.53-3.23,1.44-6.37,3.03-9.23,5.13-2.35,1.73-4.3,3.81-5.76,6.35-.7,1.22-.39,1.64.96,1.62,2.42-.03,4.83,0,7.25.03.88.01,1.57-.22,2.22-.89,3.21-3.29,7.26-4.24,11.96-4.07Zm120.52,23.82c-3.75,3.58-8.18,6.04-13,7.82-4.45,1.63-8.98,3-13.6,4.07-5.11,1.18-10.04,2.88-14.89,4.87,10.19-.43,20.16-1.92,29.49-6.25,4.97-2.3,9.23-5.53,12-10.51Zm-11.67-16.42h14.06c-.06-1.27-.68-2.11-1.25-2.92-3.39-4.86-8.25-7.69-13.68-9.66-3.69-1.34-3.71-1.29-5.51,2.47,3.21.14,6.33.53,9.2,1.96,3.13,1.56,3.34,3.55.61,5.66-1.01.78-2.07,1.51-3.43,2.5Zm-65.36-10.79c.82-3.67,2.03-7.06,3.78-10.27.62-1.13,2.39-2.23,1.47-3.53-.95-1.36-2.92-.91-4.48-.82-.81.04-1.67.26-2.41.6-1.72.79-2.6,1.88-1.59,3.96,1.54,3.19,2.4,6.63,3.22,10.07Zm-150.26-40.96c2-.03,3.61-.03,5.04-.84.96-.55,2.08-1.16,1.92-2.48-.14-1.13-1.16-1.73-2.14-1.99-2.85-.75-5.73-.58-8.55.18-1.04.28-1.74,1.12-1.81,2.25-.08,1.26.88,1.77,1.85,2.16,1.31.52,2.68.78,3.69.72Zm144.56,14.82c-.65,1.32-1.12,2.21-1.54,3.12-2.11,4.53-2.04,4.47,1.24,8.19,1.01,1.14,1.57,1.15,2.56.1.81-.87,1.28-1.63.95-2.93-.72-2.78-1.58-5.48-3.2-8.49Zm26.33,10.15c4.28-4.56,5.22-9.29,3.52-14.66-.94,4.73-5.56,8.5-3.52,14.66Zm-44.36,8.99c-.5-5.23.65-10.14-1-14.91-.64,4.9-4.93,9.92,1,14.91Zm25.87-18.98c-.8,3.4-1.34,6.45-2.56,9.46,1.5.14,2.71.18,3.88.39.89.16,1.16-.15,1.19-.97.09-3.08-.38-6-2.51-8.89Zm8.91-1.33c-4.42,8.61-4.77,9.59-4.16,12.24,3.08-3.59,6.52-6.78,4.16-12.24Zm-25.94,1.49c-.76,1.54-1.4,2.83-2.07,4.17,1.67.58,3.2,1.11,4.82,1.68-.36-2.78-.88-3.88-2.75-5.84Z"/>
    <path class="cls-2" d="m85.77,129.17c-1.27-7.39-2.39-14.62-2.54-21.96-.12-5.97-.04-11.93,1.38-17.78,1.41-5.81,4.15-6.94,9.34-3.84,4.88,2.92,8.58,7.11,12.11,11.47.56.7,1.11,1.41,2.06,2.62-.61-5.93-.96-11.19-.11-16.46,1.1-6.82,5.26-8.94,11.42-5.64,6.34,3.4,9.91,9.14,12.75,15.43,2,4.42,3.07,9.13,4.06,14.22,2.32-4.09,4.42-7.9,6.64-11.64,2.14-3.6,4.44-7.12,7.34-10.18,2.34-2.46,3.86-2.35,5.87.38,2.64,3.58,3.84,7.82,5.32,12.37,1.61-2.23,3-4.22,4.45-6.17,4.09-5.54,8.73-10.69,12.17-16.7.27-.47.45-1.14,1.08-1.16.86-.03.93.82,1.12,1.38,2.03,5.83,3.18,11.85,4.01,17.95.48,3.5.71,7.02.72,11.11,1.86-1.7,2.64-3.56,3.59-5.25,1.73-3.08,3.33-6.24,4.98-9.37.35-.66.64-1.46,1.49-1.5.93-.04,1.13.88,1.42,1.51,1.39,2.96,2.3,6.09,2.86,9.31.23,1.32.2,2.35,2.12,1.65,1.55-.57,2.68.38,3.12,1.97.62,2.22,1.2,4.45,1.84,6.87,2.55-1.7,4.18-4.2,6.13-6.38,1.37-1.52,2.65-3.12,4.02-4.65.61-.68,1.26-1.54,2.34-1.15,1.02.37,1.13,1.4,1.25,2.32.1.82.11,1.66.16,2.51.19,0,.42.07.53-.01,4.49-3.18,5.38-2.89,7.21,2.28,3.9,11.01,1.89,21.67-1.98,32.19-1.45,3.93-3.23,7.74-5.49,11.28-.98,1.53-1.18,2.15,1.03,2.6,6.3,1.29,12.43,3.19,18.25,5.99,3.12,1.51,6.06,3.28,8.66,5.58,5.89,5.22,6.45,11.95,1.5,18.08-2.31,2.86-5.11,5.22-8.33,6.94-16.75,8.94-34.55,12.56-53.41,9.77-8.22-1.22-15.59-4.95-22.49-9.47-1.8-1.18-2.61-1.05-3.94.65-8.3,10.63-18,11.89-28.93,3.88-1.5-1.1-2.93-2.32-4.22-3.65-.9-.93-1.5-1.02-2.56-.24-15.25,11.19-31.98,11.27-49.32,6.43-5.58-1.55-10.91-3.72-15.95-6.6-3.42-1.95-6.56-4.27-9.29-7.11-8.12-8.47-6.68-18.83,3.46-24.79,4.21-2.47,8.78-4.13,13.57-4.92,2.67-.44,2.59-1.2,1.42-3.27-9.24-16.25-13.7-33.7-12.88-52.43.05-1.11.22-2.22.44-3.31.15-.76-.12-1.97,1-2.04,1.03-.06,1.14,1.13,1.4,1.86,3.39,9.44,8.94,17.56,15.33,25.15,3.41,4.04,6.97,7.95,10.46,11.93Zm35.85,50.04c-1.44-6.83-1.12-7.64,4.56-11.55,1.38-.95,2.79-1.9,4.3-2.59,1.43-.65,1.56-1.42,1.11-2.79-1.08-3.27-1.77-6.64-2.32-10.05-1.71-10.79-5.64-20.61-12.83-28.98-3.85-4.48-8.66-7.33-14.48-8.29-3.48-.58-3.97-.18-4.01,3.33-.14,11.2.6,22.34,2.79,33.35,1.47,7.41,4.21,14.27,9.02,20.19,3.03,3.74,6.83,6.24,11.86,7.38Zm69.38-37.52c-.14-8.49-1.45-15.66-4.8-22.37-2.65-5.31-5.64-6.04-10.39-2.37-6.66,5.14-11.37,11.69-13.93,19.75-2.44,7.69-2.87,15.7-3.88,23.62-.37,2.9.25,4.48,3.24,5.48,3.54,1.18,6.98,2.9,7.33,7.45.1,1.29.97.81,1.64.59,3.31-1.08,6.31-2.74,8.91-5.06,8.42-7.5,11.71-17.15,11.88-27.09ZM59,96.05c-.04.43-.12.85-.13,1.28-.11,23.07,6.86,43.75,21.26,61.8,5.5,6.9,11.91,12.83,20.2,16.35,3.57,1.52,7.27,2.26,11.76,1.85-8.38-7.76-11.96-17.21-13.95-27.43-.18-.92-.31-1.79-.9-2.58-4.66-6.28-9.27-12.58-14.51-18.42-9.01-10.05-18.05-20.11-23.74-32.85Zm118.53,77.03c5.41.46,10.14.12,14.54-1.92,15.28-7.09,25.56-18.93,31.84-34.34,3.74-9.19,5.65-18.7,3.33-28.63-.49-2.1-.3-5.31-2.48-5.77-2.14-.45-3.52,2.39-4.78,4.18-4.72,6.7-8.58,13.94-12.71,21-2.49,4.26-4.57,8.7-6.44,13.28-5.07,12.42-12.8,22.98-23.29,32.2Zm-46.59-28.64c-.33,5.22.83,11.04,2.48,16.8.35,1.21.61,2.25,2.41,1.72,5.71-1.7,11.49-1.14,17.14.17,2.55.59,3.02-.12,3.13-2.39.36-7.54.99-15.11,3.03-22.37,1.24-4.4.55-8.22-1.2-12.12-3.64-8.1-13.27-10.25-20-4.5-2.86,2.44-4.65,5.54-5.67,9.12-1.18,4.17-1.29,8.45-1.32,13.57Zm15.34,50.97c3.05-.05,5.47-.98,7.68-2.44,6.13-4.05,9.58-10.03,11.77-16.83,1.4-4.33.72-5.77-3.42-7.75-4.49-2.15-9.26-3.39-14.17-4.05-8.92-1.2-16.75,1.25-23.57,7.12-1.91,1.65-2.37,3.4-1.24,5.67,1.38,2.76,2.9,5.44,4.88,7.8,4.83,5.76,10.7,9.76,18.07,10.49Zm48.29-22.69c11.85,1.96,21.29,7.14,29.07,15.37q3.38,3.58,8,1.82c.17-.07.36-.1.53-.18,6.21-2.62,12.23-5.54,16.58-10.97,2.01-2.51,3.17-5.3,2.42-8.55-.57-2.5-1.56-4.19-4.83-4.17-13.14.1-26.27-.13-39.41-.22-1,0-2.01-.13-2.9.64-2.69,2.31-5.79,4.02-9.46,6.26Zm-83.75-56.71c-1.12-13.33-8.41-22.26-18.68-29.26-.53-.36-1.16-.61-1.78-.78-1.34-.38-2.43.03-2.99,1.34-.43,1.02-.82,2.08-1.02,3.17-2.06,11.24-.99,22.36.82,33.55,1.18,7.32,4.93,12.96,9.89,19.04-.17-2.65-.3-4.56-.42-6.47-.41-6.49-1.23-12.98-.49-19.5.39-3.49,1.37-4.23,4.9-4.11,3.44.12,6.46,1.58,9.77,3.03Zm12.79-.71c1.43-2.27,1.73-4.79,2.49-7.16.32-1,.17-2.48,1.56-2.72,1.49-.25,1.97,1.19,2.61,2.15,1.12,1.68,2.15,3.42,3.28,5.25.97-1.4.88-2.74.73-4.01-.93-7.87-3.21-15.29-7.68-21.92-2.26-3.36-5-6.28-8.76-8.02-4.63-2.14-7.23-.64-8.01,4.42-.76,4.94-.43,9.86.07,14.77.67,6.43,2,12.73,3.48,19.59,1.68-3.47,2.94-6.42,3.1-9.74.04-.89-.28-1.97.97-2.33,1.33-.38,1.88.62,2.32,1.53,1.3,2.65,2.51,5.35,3.83,8.17Zm-27.4,61.35c-5.61-4.8-5.95-4.92-12.54-4.72-1.21.04-2.42.03-3.63.11-8.36.58-16.68,1.44-24.58,4.49-3.92,1.51-3.98,1.93-.73,4.72,6.7,5.74,14.58,9.15,22.99,11.54,1.2.34,1.66-.03,2.16-.96,3.68-6.89,8.62-12.48,16.32-15.17Zm100.79,11.04c-.11-3.75-1.15-8.2-3.79-12.23-.86-1.31-1.72-1.66-3.2-1.15-4.23,1.48-8.66,1.58-12.96.8-2.5-.45-4.51.54-6.75.76-3.33.32-2.83,3.19-3.93,4.99-.39.63-.6,1.37-1,1.99-.77,1.18-.54,1.9.68,2.67,7.23,4.52,14.8,8.17,23.26,9.73,6.86,1.26,7.68.58,7.7-7.56Zm-17.81-110.26c-2.27,3.1-4.16,5.73-6.11,8.33-3.24,4.31-6.7,8.47-9.57,13.06-.59.94-1.54,1.88-1.35,3,.59,3.51.84,7.07,1.35,10.65,1.04-1.72,1.78-3.51,2.64-5.23,1.21-2.39,2.43-2.5,3.69-.2,1.06,1.95,2.05,4.01,2.6,6.14.63,2.44,1.41,2.77,3.36,1.17.89-.73,2.16-1.25,3.31-1.37,2.47-.26,3.22-1.79,3.5-3.9,1.41-10.66-1.08-20.87-3.42-31.64Zm-21.33,43.88c1.69-2.01,2.69-3.87,2.89-6.02.91-9.7-.89-18.88-5.52-27.46-1.6-2.97-2.14-2.99-4.27-.44-4.5,5.39-7.7,11.62-11.25,17.62-.36.6-.44,1.16-.01,1.81,1.7,2.58,2.72,5.49,3.93,8.3.41.95,1.02,1.42,2.13,1.42,1.08,0,1.67-.34,2.13-1.35.81-1.77,1.8-3.46,2.74-5.17.45-.82.98-1.74,2.05-1.64,1,.1,1.05,1.18,1.4,1.91,1.61,3.42,2.56,7.09,3.79,11.03Zm34.98,51.92c4.8,6.4,6.05,13.1,4.75,20.23-.39,2.15-.11,2.64,2.09,2.59,8.04-.2,15.92-1.32,23.69-3.35,2.06-.54,2.13-1.06.8-2.58-8.19-9.33-18.53-14.65-31.33-16.88Zm-104.99-2.53c-3.68-4.91-7.79-7.63-14.05-7.25-6.19.39-12.45-.31-18.68-.63-5.04-.25-6.53,1.06-6.82,6.17-.15,2.63.78,4.91,1.99,7.15.59,1.09,1.2,1.39,2.41.65,2.8-1.71,5.95-2.55,9.13-3.3,8.45-1.98,17.07-2.5,26.02-2.81Zm160.15-5.86c-.23-.3-.39-.63-.65-.85-8.2-6.83-18.05-9.71-28.24-11.79-.8-.16-1.24.14-1.64.69-3.08,4.17-6.63,7.94-11.18,11.95h41.72Zm-56.26-11.93c5.71-8.05,9.26-16.94,11.54-26.4,1.76-7.28,1.76-14.53,0-21.8-.21-.87-.21-2.11-1.43-2.05-1.29.06-1.66,1.1-1.89,2.34-1.45,7.69-3.58,15.16-7.3,22.1-.43.81-.93,1.53-.7,2.59,1.66,7.74,1.65,15.47-.21,23.21Zm-83.74,26.8c-2.34-.81-3.66.78-4.85,2.73-2.06,3.36-3.29,7.01-4.2,10.84-.5,2.1.22,2.37,2,2.25,8.25-.56,15.78-3.16,22.58-7.84.85-.59,2.6-1.05,2.13-2.12-.65-1.49-1.22-3.67-3.13-3.95-4.55-.68-8.79-3.79-13.69-1.9-.16.06-.37,0-.85,0Zm-3.79-.29c-3.65-1.74-6.94-2.77-10.67-.58-5.37,3.16-9.39,7.47-12.42,12.84-.78,1.38-.42,1.92,1.11,2.21,4.29.82,8.59,1.4,12.95,1.69,1.81.12,2.4-.59,2.7-2.21.95-5.08,2.76-9.8,6.33-13.95Zm90.69-88.48c-3.07,7.29-6.95,13.29-10.38,19.54-1.01,1.84-1.03,2.89.78,4.31,2.15,1.67,3,4.4,4.13,6.85.56,1.23.61,2.71,1.81,3.81,2.42-4.14,3.15-8.81,4.97-13.04,3.1-7.18,1.51-13.93-1.31-21.46Zm-66.17,49.04c.76-6.91,1.57-12.92,5.77-17.77.4-.46.52-.98.33-1.55-1.55-4.67-3.88-8.92-6.97-13.31-1.31,6.64-3.72,12.42-5.3,18.44-.2.76-.37,1.39.09,2.11,2.27,3.62,4.15,7.43,6.09,12.09Zm-77.31,21.73c9.69.4,19.01.78,28.78,1.18-2.63-3.52-5.01-6.68-7.37-9.86-.52-.69-1.14-.41-1.77-.29-4.87.88-9.62,2.15-13.98,4.58-2,1.11-3.98,2.25-5.66,4.39Zm110.32-30.84c2.82-4.96,5.61-9.22,9.42-12.7.54-.5.6-1.05.37-1.76-.97-2.95-1.79-5.96-3.6-9.35-1.53,4.64-3.8,8.24-6.2,11.74-1.94,2.82-3.18,5.56-.97,8.83.49.73.55,1.74.98,3.25Zm44.27-5.24c3.97-6.59,8.05-13.12,11.84-19.82.95-1.67.85-3.88.47-6.26-.5.44-.79.64-1.01.89-3.29,3.91-6.26,8.11-10.11,11.53-.86.77-.6,1.7-.56,2.59.15,3.64-.27,7.24-.63,11.06Zm-85.58-1.08c2.79-5.33,1.91-11.58-2.13-15.69-.49,2.87-1.38,5.59-2.4,8.26-.33.88-.76,1.7.05,2.56,1.49,1.59,2.96,3.21,4.48,4.87Zm16.53-4.95c1.37-.75,2.67-1.48,3.97-2.18.67-.36,1.32-.59.93-1.64-.92-2.49-1.78-5.01-3.73-7.74-1.11,4.14-4.5,7.36-1.17,11.56Zm15.3-9.08c-1.39,2.03-2.78,3.87-2.8,5.87,0,.67,2.73,1.37,4.21,2.06.41.19.8.41,1.46.74-.57-3.09-1.48-5.81-2.86-8.68Z"/>
    <path class="cls-2" d="m95.81,501.12c-4.56.53-8.82.81-13.05-.17-.81-.19-1.64-.35-2.43-.64-2.03-.75-4.29-1.52-4.57-3.99-.29-2.59,2.22-3.07,4.03-4.21-4.39-2.64-8.36-5.69-11.69-9.5-1.61-1.83-3.01-3.8-3.87-6.1-.86-2.3-1.06-4.62.74-6.56,1.8-1.94,4.13-1.9,6.48-1.18,2.42.75,4.65,1.91,6.78,3.26,5.18,3.28,10.34,6.61,15.95,10.2-3.25-4.54-5.23-9.15-5.98-14.23-.43-2.97-.56-5.96.35-8.86,1.2-3.86,4.6-4.74,7.57-1.99,1.52,1.41,2.62,3.15,3.68,4.9,4.32,7.08,8.21,14.38,11.51,22,.36.83.39,2.98,2.25,1.68,1.29-.9,4.45.02,3.37-3.53-.82-2.7.29-5.15,2.66-6.81,2.13-1.49,5.19-1.29,7.59.39q1.6,1.12,3.02.38c1.73,2.64.72,5.4-.01,8.03-.97,3.49-4.2,4-7.34,4.56,1.14,1.75,2.73,2.55,4.43,3.01,1.68.45,3.45.4,4.26-1.6,4.41-10.89,13.67-16.01,23.78-20.16,12.53-5.14,25.7-7.55,39.09-8.71,19.43-1.68,38.72-.79,57.66,4.32,8.84,2.38,17.18,5.81,24.88,11.01,13.84,9.34,11.34,28.05,3.77,36.81-6.82,7.9-15.68,12.5-25.19,15.98-19.35,7.07-39.4,9.31-59.9,8.09-14.41-.86-28.46-3.31-41.79-9.08-5.82-2.52-11.44-5.43-16.53-9.26-4.64-3.49-8.24-7.83-10.45-13.21-.87-2.13-1.8-2.15-3.62-1.05-5.15,3.13-6.67,2.95-10.51-1.45-1.24-1.42-2.02-1.22-3.43-.43-9.13,5.14-17.43,11.43-25.51,18.06-3.96,3.25-8.11,6.26-12.22,9.32-1.03.77-2.23,1.33-3.38,1.94-.68.36-1.41.49-2.11-.03-.84-.62-.69-1.51-.48-2.3.54-2.06,1.99-3.55,3.45-5,6.68-6.65,14.01-12.56,21.24-18.58,1.9-1.58,3.98-3,5.53-5.32Zm149.72,23.35c-2.53-2.31-4.7-4.31-6.9-6.28-9.27-8.34-18.54-16.69-27.84-25.01-2.19-1.96-7.58-1.42-8.37.8-4.09,11.56-8.13,23.14-12.26,34.69-.6,1.69-.42,2.31,1.52,2.35,18.05.4,35.85-1.21,53.85-6.55Zm39.26-31.25c-.16-3.75-1.44-6.97-3.71-9.83-3.64-4.55-8.49-7.45-13.56-10.08-.81-.42-1.56-.41-2.41-.19-17.15,4.55-34.3,9.07-51.44,13.64-.9.24-2.46.03-2.43,1.32.03,1.46,1.69,1.22,2.66,1.42,6.37,1.31,12.77,2.47,19.15,3.75,15.57,3.14,31.14,6.31,46.69,9.53,1.3.27,2.07.12,2.68-1.13,1.32-2.71,2.19-5.52,2.38-8.44Zm-144.48.01c-4.32,2.29-4.57,3.32-1.83,7.54.34.52.71,1.48,1.39,1.07,2.14-1.28,1.25.95,1.5,1.39.71,1.27-.74.67-1.15,1.03-1.11.95-3.45.56-3.24,2.9.05.52.56,1.12-.06,1.48-.63.36-1.26-.03-1.77-.48-2.31-2.02-4.79-3.91-6.18-6.76-.66-1.36-1.4-2.16-3-1.3-1.84.99-3.59.72-5.15-.63-2.56-2.22-4.69-1-6.89.69-.99.77-.7,1.27-.1,2.02,2.18,2.76,4.44,3.28,7.54,1.69.99-.51,2.09-.88,2.97-1.54,2.04-1.5,2.94-.79,3.77,1.37,2.68,6.94,7.36,12.22,13.73,16.04,1.12.67,2,.83,3.3.13,11.36-6.19,22.76-12.3,34.18-18.39,6.38-3.41,12.81-6.74,19.08-10.03-.84-2.36-2.38-2.62-4.48-2.46-5.48.41-10.98.57-16.47.78-13.41.51-26.79,1.62-40.22,1.72-.75,0-1.55-.16-1.32,1.12.21,1.2.83,1.21,1.77.91.84-.27,1.66-.92,2.62-.29Zm140.59,10.55c-23.23-4.61-46.04-9.14-68.84-13.69-.81-.16-1.56-.32-1.93.5-.44.97.62,1.23,1.1,1.67,11.34,10.25,22.72,20.46,34.05,30.72.96.87,1.82,1.12,3,.73,9.33-3.07,18.34-6.81,26.17-12.9,2.41-1.87,4.68-3.94,6.46-7.02Zm-136.48,17.38c14.27,5.94,28.36,8.61,42.84,9.57,1.14.08,1.45-.59,1.73-1.39,4.17-11.83,8.3-23.68,12.51-35.5.66-1.84-.46-1.92-1.62-1.82-.69.06-1.37.52-2.02.86-11.63,6.07-23.26,12.13-34.87,18.25-5.98,3.15-11.9,6.42-18.57,10.03Zm1.93-30.39c0-.12,0-.25,0-.37,16.36-.79,32.72-1.6,49.08-2.35,1.21-.06,2.42-.17,2.69-1.42.27-1.23-1.16-1.24-1.89-1.59-10.43-5.11-20.89-10.17-31.33-15.24-.85-.41-1.61-.6-2.62-.28-6.86,2.2-13.38,5.11-19.24,9.33-3.11,2.24-5.91,4.84-7.75,8.29-1.52,2.85-1.02,3.68,2.14,3.65,2.98-.03,5.95,0,8.93,0Zm118.13-18.34c-14.19-6.34-28.97-8.77-44.11-9.56-1.22-.06-1.56.65-1.98,1.52-3.03,6.38-6.09,12.75-9.11,19.14-.32.68-1.2,1.38-.44,2.21.68.75,1.64.81,2.6.57.63-.16,1.26-.31,1.89-.48,10.15-2.69,20.29-5.41,30.44-8.07,6.89-1.81,13.81-3.55,20.71-5.33Zm-159.57,19.84c-2.15-1.52-4.34-3.07-6.52-4.62-6.99-4.94-13.96-9.93-21.32-14.33-2.38-1.42-4.76-2.99-7.63-3.26-3.04-.28-4.76,1.72-4.06,4.69.48,2.03,1.5,3.84,2.86,5.38,7.51,8.52,16.52,14.29,28.08,15.65,3.69.43,6.58-.31,8.6-3.52Zm60.42,38.07c.79.24,1.58.49,2.38.71,10.84,2.98,21.89,4.37,33.12,4.66,19.96.52,39.42-1.97,57.99-9.65,8.53-3.52,16.4-8.08,21.82-15.92,1.06-1.53,2.17-3.07,2.48-5.58-5.52,7.79-12.92,12.26-20.86,15.87-17.27,7.85-35.56,11.46-54.41,12.33-14.18.65-28.31.22-42.5-2.43Zm.14-61.77c.15.7.62.81,1.04,1.01,10.54,5.07,21.07,10.15,31.61,15.22.5.24,1.03.43,1.55.62.75.28,1.58.28,2.1-.26.57-.59-.16-1.22-.41-1.75-2.02-4.28-4.07-8.55-6.17-12.8-1.14-2.31-1.88-5.56-3.77-6.56-1.9-1-5.02.13-7.57.56-6.19,1.04-12.4,2-18.38,3.96Zm27.37-5.04c3.39,7.05,6.65,13.71,9.77,20.44.82,1.76,2.22.86,3.36,1.14,1.28.32,1.78-.5,2.25-1.51,2.1-4.45,4.29-8.86,6.38-13.31,1.12-2.4,2.56-4.68,3.31-7.53-8.39-.14-16.55-.12-25.07.77Zm-100.27-6.42c-2.01.31-2.55,1.88-2.82,3.6-1.73,11.21,5.79,24.91,16.03,29.52,2.34,1.05,2.74-1.28,4.07-1.94,1.15-.57,1.11-1.43.53-2.55-2.64-5.12-5.16-10.29-7.78-15.42-1.95-3.81-4.07-7.52-6.66-10.94-.83-1.1-1.69-2.27-3.38-2.26Zm1.73,53.62c7.43-5.81,15.83-9.55,22.86-15.37,1.15-.95,2.09-2.15,2.59-3.59.61-1.76.72-3.61-.73-4.96-1.46-1.36-2.96-.18-4.37.43-.51.22-.99.52-1.43.86-6.04,4.7-11.75,9.76-16.84,15.47-1.65,1.85-2.56,4.03-2.07,7.14Zm27.7-20.12c-.6,2-1.32,3.5-2.4,4.79-.76.92-.47,1.39.49,1.87,2.45,1.22,4.66,1.61,7.3,0,3.54-2.15,4.76-1.51,6.22,2.26.4,1.04.75,2.1,1.18,3.12,1.02,2.4,1.04,2.39,3.39.61-1.3-.27-1.71-1.36-2.24-2.34-1.16-2.14-1.88-4.45-2.53-6.77-.25-.87-.42-1.61-1.64-1.16-3.61,1.34-6.72.19-9.78-2.4Zm-23.11,6.98c-5.63-.4-10.9-1.33-15.79-3.77-1.98-.99-3.6.06-5.15,1.05-1.21.77-.79,1.73.12,2.5,1.16.99,2.56,1.46,4.02,1.77,4.79,1.02,9.57.96,14.36,0,.9-.18,1.82-.32,2.45-1.56Zm27.91-20.46c-2.37-1.71-4.59-2.06-6.79-.26-1.89,1.55-2.31,4.25-1.18,6.62,1.38,2.89,3.56,4.11,6.2,3.52,2.49-.56,4.01-1.91,4.17-5.14-1.39,1.84-2.68,2.88-4.57,2-1.14-.53-2.22-1.34-1.97-2.74.38-2.15,1.68-3.6,4.15-4.01Zm76.92,14.12c1.26.2,2.59-.28,3.96-.49,1.21-.19,2.08-.89,2.21-2.14.15-1.46-1.1-1.83-2.11-2.18-2.66-.92-5.31-.18-7.93.3-1,.18-1.55,1.01-1.55,2.05,0,.95.66,1.51,1.46,1.85,1.21.51,2.48.75,3.96.62Zm-110.91,15.27c-2.58,2.11-5.16,4.21-7.73,6.31-1.63,1.33-.45,2.7-.01,4.03.27.82.88.49,1.31.13,3.24-2.74,7.59-4.77,6.44-10.47Zm-10.04,8.24c-2.35,2.07-4.62,4.1-6.93,6.09-1.24,1.07-.79,2.16-.04,3.2.91,1.27,1.64.07,2.28-.36,1.16-.76,2.12-1.84,3.32-2.53,2.63-1.52,3.71-3.35,1.37-6.4Zm-15.81,16.34c2.75-1.09,4.39-2.73,6.33-3.85,2.33-1.34,2.59-2.7.35-4.52-2.4,2.37-5.37,4.29-6.68,8.37Z"/>
    <path class="cls-2" d="m434.16,553.34c-20.66-.25-42.24-3.1-62.97-10.97-9.14-3.47-17.63-8.07-24.55-15.1-8.19-8.32-10.59-18.39-8.09-29.6,1.35-6.03,5.24-10.64,9.8-14.62,9.33-8.13,20.49-12.73,32.12-16.3,13.87-4.25,28.16-6.23,42.58-7.2,19.4-1.31,38.75-.61,57.93,2.7,15.03,2.59,29.59,6.66,42.74,14.75,2.94,1.81,5.64,3.94,8.23,6.23,11.72,10.32,11.09,23.67,4.22,35.42-4.57,7.81-11.81,12.82-19.57,17.05-13.89,7.57-28.95,11.64-44.39,14.42-12.13,2.19-24.38,3.12-38.06,3.21Zm101.39-62.31c-.72-1.65-1.73-2.73-2.71-3.81-4.79-5.24-10.61-9.03-16.95-12.08-20.3-9.75-42.08-12.6-64.22-13.76-1.17-.06-1.66.45-2.08,1.39-3.53,7.99-7.1,15.98-10.63,23.97-.23.52-.95,1.18-.11,1.7,1.57.96,2.54,2.54,4.94,2.53,22.08-.11,44.15.01,66.23.06,8.37.02,16.75,0,25.54,0Zm-55.17,49.92c.19-.31.39-.61.58-.92-.92-.65-1.95-1.18-2.73-1.98-12.5-12.81-25.05-25.57-37.37-38.54-2.71-2.85-5.26-4.59-9.33-3.69-1.3.29-1.84.65-2.27,1.86-5.3,14.6-10.61,29.2-16.06,43.75-.86,2.29-.42,2.92,1.9,2.99,6.15.2,12.28.68,18.43.79,15.77.3,31.4-1.11,46.85-4.27Zm51.23-23.6c-.99-.3-1.76-.57-2.54-.76-25.12-6.12-50.07-12.91-75.06-19.53-3.96-1.05-7.95-1.96-11.86-3.16-1.72-.53-2.86.41-3.66,1.3-.58.64.83,1.45,1.42,2.09,2.03,2.18,4.13,4.3,6.21,6.44,11.45,11.74,22.91,23.48,34.37,35.21.8.82,1.39,1.81,3.01,1.4,12.4-3.11,24.56-6.84,35.73-13.24,4.52-2.59,8.78-5.55,12.37-9.75Zm-106.11-22.69c-1.48-1.05-1.69-2.77-3.84-2.76-25.44.04-50.88-.05-76.32-.12-1.06,0-1.99.03-2.59,1.15-2.28,4.2-3.64,8.57-2.69,13.4,1.77,9.06,7.79,14.98,14.91,20.11,1.4,1.01,2.48,1.04,4.02.29,13.13-6.4,26.3-12.71,39.46-19.04,8.88-4.27,17.76-8.54,27.05-13.02Zm-67.42,33.54c3.54,2.17,6.79,3.73,10.14,5.1,12.82,5.23,26.18,8.37,39.86,10.32,2.36.34,3.44.03,4.3-2.36,5.07-14.18,10.33-28.28,15.46-42.43.34-.94,1.5-2.04.44-3.03-1.05-.99-2.29-.27-3.38.26-5.7,2.74-11.39,5.5-17.09,8.24-16.42,7.9-32.85,15.79-49.73,23.9Zm83.17-35.57c7.37,1.98,14.34,3.9,21.34,5.73,22.48,5.88,44.97,11.74,67.47,17.58,1.08.28,2.16,1,3.25-.37,4.8-6.06,6.99-12.61,4.47-20.3-.76-2.33-1.84-3.34-4.53-3.34-29.72.08-59.43.01-89.15,0-.78,0-1.64-.27-2.85.7Zm-96.91-1.96c1.02.07,1.55.14,2.08.14,22.09.07,44.18.14,66.27.2,2.98,0,5.97-.15,8.95-.04,1.82.07,2.95-1.04,3.51-2.27.55-1.2-1.15-1.64-1.94-2.19-9.72-6.74-19.49-13.41-29.23-20.12-.76-.52-1.43-.61-2.33-.4-10.19,2.35-20.14,5.4-29.42,10.29-6.7,3.53-12.99,7.66-17.89,14.38Zm187.53,30.2c-8.09,7.06-17.52,11.62-27.41,15.38-14.9,5.67-30.37,8.66-46.2,10.13-23.92,2.23-47.64,1.29-71.01-4.64-13.14-3.33-25.89-7.65-36.8-16.14-2.74-2.13-5.04-4.7-7.5-7.11,1.28,2.88,3.16,5.3,5.31,7.51,4.61,4.74,10.06,8.28,15.98,11.12,17.48,8.39,36.19,11.89,55.31,13.42,20.74,1.66,41.32.2,61.64-4.38,14.42-3.25,28.38-7.7,40.76-16.12,3.76-2.56,7.26-5.41,9.93-9.17Zm-137.69-55.31c.8.54,1.03.7,1.26.85,10.12,6.95,20.54,13.45,30.41,20.76,1.13.84,2.24.53,3.45.38,1.14-.14,1.36-.52,1.01-1.59-2.48-7.59-4.92-15.2-7.35-22.8-.35-1.09-1.01-1.4-2.09-1.3-8.68.82-17.34,1.78-26.69,3.69Zm42.5-4.32s0-.09,0-.13c-3.72.18-7.44.41-11.16.51-1.71.05-1.95.53-1.4,2.16,2.43,7.22,4.8,14.47,7,21.77.83,2.74,2.97,1.49,4.55,1.99,1.58.5,2.12-.49,2.65-1.69,3.35-7.56,6.7-15.13,10.15-22.65.84-1.83.1-2-1.45-1.97-3.45.06-6.89.02-10.34.02Zm-4.75,27.17c-1.85.23-3.66.03-5.32.77-.97.43-1.78,1.06-1.85,2.23-.07,1.21.73,1.9,1.71,2.3,3.99,1.61,8.05,1.36,11.96-.11,2.18-.82,2.16-2.72.17-3.96-2.09-1.31-4.46-1.1-6.67-1.22Z"/>
    <path class="cls-2" d="m422.47,426.73c-53.46,18.95-108.68,24.29-164.98,21.34,55.97.42,111.12-5.51,164.98-21.34Z"/>
    <path class="cls-2" d="m389.51,552.05c30.3,4.31,60.63,4.36,90.97.64-30.36,6.37-60.69,6.1-90.97-.64Z"/>
    <path class="cls-2" d="m131.99,209.82c-22.59,4.91-44.96,5.06-66.88-3.37,22.05,5.99,44.39,6.01,66.88,3.37Z"/>
    <path class="cls-2" d="m139.8,526.86c25.37,13.29,52.91,15.16,80.75,15.48-26.16,2.51-62.3-1.83-80.75-15.48Z"/>
    <path class="cls-2" d="m423.63,184.74c-5.18,1.58-10.45,1.7-15.67.55-4.83-1.07-8.9-3.59-11.29-8-3.67-6.76-9.71-9.14-16.83-9.71-2.58-.2-5.2-.03-8.18-.03.46-.52.59-.81.76-.84,9.99-1.62,20.78-.21,26.03,9.24,3.63,6.55,10.13,8.36,17.11,8.76,2.68.15,5.38.02,8.07.02Z"/>
    <path class="cls-2" d="m534.35,258.91c-3.55,3.12-7.73,5.04-12.11,6.54-15.68,5.38-31.88,6.22-48.26,5.27-3.04-.18-6.14-.09-9.29-1.21,23.96.41,47.68.73,69.66-10.6Z"/>
    <path class="cls-2" d="m110.47,390.65c7.68,16.21,21.82,24.98,37.03,32.51,2.87,1.42,5.81,2.68,8.59,4.24-15.59-5.53-30.81-11.7-40.9-25.93-2.32-3.26-4.1-6.79-4.72-10.82Z"/>
    <path class="cls-2" d="m223.3,208.49c-13.2,5.98-52.6,5.44-62.29.46,21,3.05,41.63,2.86,62.29-.46Z"/>
    <path class="cls-2" d="m85.53,286.53c6.6.28,13.15.22,19.63-1.27,7.37-1.69,13.86-5.28,20.34-8.96,8.03-4.55,16.59-6.31,25.79-4.19-1.36,0-2.72-.02-4.08,0-1.49.03-2.98.03-4.46.17-6.7.65-12.83,2.91-18.53,6.47-9.95,6.22-20.68,9.67-32.54,9.02-2.1-.12-4.2-.24-6.15-1.25Z"/>
    <path class="cls-2" d="m338.57,151.42c-20.87.5-41.65.21-62.19-3.86,20.72,1.76,41.5,2.38,62.19,3.86Z"/>
    <path class="cls-2" d="m512.17,362.96c3.3,15.86-6.46,38.21-20.27,46.29,13.05-12.68,19.09-28.42,20.27-46.29Z"/>
    <path class="cls-2" d="m513.18,189.48c-18.1.34-36.2,1.15-54.3.33,18.09-1.41,36.19-2.14,54.3-.33Z"/>
    <path class="cls-2" d="m493.98,175.39c19.57,2.85,38.83,2.33,57.78-5.2-9.79,8.38-44.41,11.04-57.78,5.2Z"/>
    <path class="cls-2" d="m81.6,378.14c-2.71,16.86,1.45,31.08,13.1,43.06-11.36-5.93-20.38-26.57-13.1-43.06Z"/>
    <path class="cls-2" d="m425.02,167.62c19.45,7.37,39.22,9.17,59.92,4.23-12.01,7.1-47.49,4.83-59.92-4.23Z"/>
    <path class="cls-2" d="m120.92,225.37c17.4-.98,34.78-.99,52.15.86h-52.16c0-.29,0-.57,0-.86Z"/>
    <path class="cls-2" d="m237.85,455.17c19.77,1.14,39.56,2.17,59.39,2.29-19.88,1.78-39.68,1.11-59.39-2.29Z"/>
    <path class="cls-2" d="m544.66,500.76c2.85,14.41-8.05,30.58-23,37.37,12.83-9.28,22.36-20.57,23-37.37Z"/>
    <path class="cls-2" d="m510.74,421.85c-8.79,11.67-21,17.2-34.95,19.61,12.85-4.39,24.91-10.19,34.95-19.61Z"/>
    <path class="cls-2" d="m451.84,412.4c11.67-7.63,23.13-15.59,32.12-26.56-7.55,12.63-19.15,20.38-32.12,26.56Z"/>
    <path class="cls-2" d="m81.34,202.94c13.58,1.75,27.11,1.5,40.56-1.17-13.42,4.28-26.93,4.73-40.56,1.17Z"/>
    <path class="cls-2" d="m110.7,322.57c-10.52,4.22-20.51,9.29-29.17,16.69,7.5-9.41,17.86-13.9,29.17-16.69Z"/>
    <path class="cls-2" d="m108.97,330.38c-7.28,5.25-14.46,10.63-20.86,16.97,5.07-7.96,12.1-13.52,20.86-16.97Z"/>
    <path class="cls-2" d="m373.99,141.91c9.97-1.18,19.77-3.06,29.83-5.9-3.71,3.02-21.73,6.92-29.83,5.9Z"/>
    <path class="cls-2" d="m437.11,176.19c-8.94-.88-17.65-2.59-24.58-9.11,7.59,4.64,15.96,7.11,24.58,9.11Z"/>
    <path class="cls-2" d="m332.86,112.55c.37,8.3-1.37,15.85-7.8,21.75,4.84-6.46,6.4-14.08,7.8-21.75Z"/>
    <path class="cls-2" d="m368.67,547.85c-8.05-1.6-21.11-11.28-24.17-17.71,3.22,3.78,6.93,7,10.91,9.94,3.93,2.9,8.24,5.16,13.26,7.78Z"/>
    <path class="cls-2" d="m241.73,193.58c5.78-3.96,10.86-8.28,14.43-14.59-.37,5.06-8.91,13.59-14.43,14.59Z"/>
    <path class="cls-2" d="m233.02,109.39c2.44,6.41,5.25,11.68,10.15,15.86-4.74-1.15-9.85-8.93-10.15-15.86Z"/>
    <path class="cls-2" d="m288.05,512.18c-2.23,6.46-6.35,11.49-11.91,15.39,4.64-4.61,8.91-9.51,11.91-15.39Z"/>
    <path class="cls-2" d="m351.24,134.25c-3.57-1.59-6.1-4.17-7.46-7.86,2.37,2.74,4.65,5.56,7.46,7.86Z"/>
    <path class="cls-2" d="m200.49,202.84c-4.04.67-8.05.75-11.99-.7,4,.23,7.99.47,11.99.7Z"/>
    <path class="cls-2" d="m192.49,263.78c.61,4.61,2.45,3.33,4.8,2.14,5.95-2.99,12.61-1.52,16.7,3.35,4.23,5.03,4.39,13.39.36,19.02-3.85,5.39-10.82,7.5-16.86,5.11-6.11-2.42-9.74-8.52-9.04-15.14.17-1.59.48-3.11,1.15-4.57.7-1.54,1.92-2.77,2.65-4.22.72-1.44-.89-3.18.24-5.69Zm11.42,8.45c-3.43,0-6.3,0-9.17,0-1.18,0-2.07.31-2.76,1.45-3.97,6.64-.17,16.15,7.29,18.08-5.95-7.24-4.49-14.06,4.64-19.54Zm9.7,1.2c-2.12-6.33-11.46-9.79-18.99-2.84,3.42-.1,6.53-.21,9.64.13,3.26.36,6.24,1.55,9.36,2.71Z"/>
    <path class="cls-2" d="m259.3,287.97c.02,8.88-6.5,15.6-15.13,15.61-7.86,0-14.01-6.23-14.1-14.29-.09-8.48,7.08-15.88,15.46-15.96,7.57-.07,13.75,6.5,13.77,14.64Zm-12.21-6.13c-4.06-.74-8.04-.32-11.92,1.12-.78.29-1.46.74-1.92,1.52-3.38,5.69,1.31,15.55,7.85,16.45-6.61-7.7-1.91-16.6,5.99-19.09Zm-11.65-.84c3.49-.99,6.82-1.63,10.24-1.45,3.43.18,6.63,1.24,10.02,3.01-4.17-8.49-14.62-9.17-20.27-1.56Z"/>
    <path class="cls-2" d="m235.56,308.03c-.13.71-.61,1.02-1.17.6-1.43-1.09-2.36-.1-3.4.65-3.51,2.52-7.41,3.81-11.74,3.74-6.06-.1-10.81-3.38-12.46-9.24-.27-.94-2.54-1.44-.91-2.95.38-.35.47-1.07,1.17-.97.7.1.71.71.84,1.27.53,2.41,1.53,4.59,3.31,6.33,3.49,3.4,7.73,3.8,12.21,2.9,2.28-.46,4.41-1.44,6.45-2.59.4-.23.75-.59,1.18-.73,1.07-.35-.32-2.17,1.14-2.03,1.48.14,1.56,2.26,3.06,2.58.13.03.22.28.33.44Z"/>
    <path class="cls-2" d="m256.23,268.93c-.12.18-.22.48-.41.58-.63.3-1.03-.18-1.43-.55-3.11-2.93-6.82-4.05-11.02-3.51-1.19.15-2.35.5-3.52.8-.51.13-.95.08-1.21-.37-.32-.57.18-.78.56-1.04,4.24-2.94,14.23-.81,16.69,3.56.09.16.2.32.34.55Z"/>
    <path class="cls-2" d="m202.84,258.5c3.93-4.28,14.35-2.35,16.05,2.81.17.51.18.92-.29,1.19-.65.36-1.05-.14-1.38-.57-2.05-2.68-4.84-3.85-8.12-4.21-2.12-.23-4.03,1.13-6.26.78Z"/>
    <path class="cls-2" d="m358.33,363.34c-2.04-.02-3.84-1.87-3.88-4-.05-2.17,1.7-3.99,3.82-3.98,2.06,0,3.86,1.85,3.87,3.98,0,2.21-1.72,4.02-3.8,4Zm2.72-4.14c.02-1.68-1-2.78-2.84-2.82-1.73-.03-2.77,1.05-2.74,2.81.03,1.8.98,3.08,2.85,3.11,1.76.03,2.65-1.1,2.73-3.1Z"/>
    <path class="cls-2" d="m213.17,296.61c1.12.06,1.72.72,1.74,1.74.03,1.24-.95,1.77-1.96,1.94-1.48.24-1.21-1.08-1.31-1.85-.14-1.05.4-1.74,1.53-1.83Z"/>
    <path class="cls-2" d="m224.04,299.85c.78.18,1.57.42,1.37,1.39-.23,1.12-.76,2.17-2.09,2.18-1.05,0-1.36-.88-1.28-1.75.11-1.17.9-1.73,2.01-1.81Z"/>
    <path class="cls-2" d="m365.98,253.03c8.58-.03,17.13.36,25.63,1.65,2.67.41,4.72,1.51,5.69,4.24,4.57,12.89,9.08,25.79,12.05,39.16,1.27,5.71.78,6.63-4.28,9.38-8.74,4.75-18.28,6.7-28.05,7.78-8.73.97-17.28.35-25.59-2.7-7.53-2.76-11.01-7.64-11.19-15.78-.11-4.98,1.09-9.79,1.91-14.65,1.17-6.88,2.48-13.73,3.7-20.6,1.06-6.01,3.32-8.04,9.52-8.44.37-.02.75-.03,1.12-.03,3.17,0,6.34,0,9.5,0Zm1.16.95c-4.4-.32-8.48.03-12.57.28-4.75.29-6.62,1.93-7.49,6.67-1.87,10.24-4.07,20.45-5.37,30.76-1.24,9.84.75,17.98,13.09,20.91,16.8,3.98,32.75,1.46,48.14-5.34,6.6-2.92,6.66-2.42,5.01-10.24-2.57-12.19-6.99-23.88-10.84-35.71-1.34-4.12-3.96-5.59-7.98-5.99-7.42-.75-14.85-1.15-22-1.33Z"/>
    <path class="cls-2" d="m305.02,232.27c8.14.46,17.04,2.96,24.59,9.27,3.3,2.75,6.41,5.69,9.41,8.75,3.69,3.76,5.45,7.9,4.23,13.39-2.08,9.35-3.77,18.79-6.64,27.94-3.38,10.77-6.64,12.83-17.65,11.16-12.35-1.88-23.32-6.89-32.75-15.15-1.05-.92-2.04-1.92-2.99-2.94-3.63-3.89-4.98-7.97-2.96-13.46,3.92-10.65,7.9-21.28,12.22-31.77,2.55-6.21,4.43-7.28,12.53-7.22Zm17.76,69.92c6.23.08,8.16-.96,10.31-4.93.92-1.7,1.69-3.53,2.28-5.38,3.07-9.77,5.14-19.78,7-29.84.57-3.08-.02-5.88-2.08-8.36-9.29-11.17-20.11-19.56-35.39-20.41-6.69-.37-8.93.58-11.5,6.76-4.46,10.73-8.63,21.58-12.42,32.58-1.26,3.65-.72,6.48,1.51,9.31.63.8,1.23,1.65,1.95,2.37,11.06,11.14,24.63,16.66,38.35,17.89Z"/>
    <path class="cls-2" d="m367.2,209.18c12.55.37,9.52-1.12,18.12,8.91,5.28,6.16,10.43,12.42,14.51,19.47,2.9,5.01,1.77,7.89-3.98,8.98-16.01,3.05-32.07,5.82-48.47,5.53-3.32-.06-6.15-1.21-8.61-3.43-3.89-3.5-7.57-7.17-10.78-11.32-1.86-2.41-2.27-4.83-.76-7.5,3.46-6.11,7.5-11.77,12.65-16.59,3.26-3.05,7.44-2.66,11.34-3.16,4.89-.63,9.83-.92,15.97-.89Zm-18.37,42.25c17.58-1,32.23-3.11,46.77-5.9,5.08-.97,5.95-3.2,3.2-7.67-5.64-9.17-12.82-17.15-19.72-25.34-1.07-1.27-2.48-1.81-4.16-1.98-10.1-1.06-20.09.25-30.1,1.32-1.21.13-2.33.67-3.28,1.47-5.8,4.87-10.03,10.96-13.6,17.55-1.03,1.89-.69,3.7.62,5.47,2.4,3.23,5.31,5.99,8.05,8.91,4.08,4.38,8.94,6.6,12.21,6.18Z"/>
    <path class="cls-2" d="m194.95,343.4c-.23,1.85-1.04,3.27-3.28,3.25-1.89-.02-3.69-1.82-3.47-3.63.24-2.01,1.48-3.29,3.54-3.21,2.05.08,3.17,1.35,3.21,3.6Zm-3.41-2.65c-1.47.2-2.28,1.06-2.26,2.61.01,1.49.94,2.25,2.29,2.29,1.53.05,2.52-.85,2.49-2.4-.03-1.46-.87-2.41-2.52-2.51Z"/>
    <path class="cls-2" d="m101.01,492.83c-2.94-.38-5.33-1.96-7.8-3.35-1.62-.91-3.22-1.85-4.83-2.77-.95-.54-1.74-1.19-2.8.16-1.05,1.34-2.76.46-4.26.78.11-.42.11-.64.2-.7,1.08-.65,3.2-.24,3.27-1.54.07-1.33-1.93-1.72-3.07-2.42-2.63-1.61-5.31-3.13-7.75-5.07,9.51,4.07,17.99,10,27.04,14.91Z"/>
    <path class="cls-2" d="m95.18,466.35c4,6.52,8,13.03,12,19.55-2.19-1.14-3.25-3.16-4.44-5.04-.94-1.49-1.78-2.73-3.88-2.31-.82.16-1.82-.11-2.41-1.06,1.17-.75,2.41.28,3.71-.37-1.4-3.66-4.3-6.58-4.98-10.77Z"/>
  </g>
</svg>