<?xml version="1.0" encoding="UTF-8"?>
<svg width="612" height="612" id="Layer_1" data-name="Layer 1" xmlns="http://www.w3.org/2000/svg" viewBox="0 0 612 612">
  <defs>
    <style>
      .cls-1 {
        fill: #010101;
      }

      .cls-1, .cls-2 {
        stroke-width: 0px;
      }
    </style>
  </defs>
  <path class="cls-1" d="m580.7,580.72H31.3V31.28h549.4v549.44Zm-546.4-3.01h543.4V34.29H34.3v543.43Z"/>
  <g>
    <path class="cls-2" d="m472.19,488.39c-14.49-.34-28.26-.81-42.05-.97-58.56-.69-117.11.03-175.67.84-49.81.69-99.62.73-149.43,1.23-14.5.15-29.02-.06-43.52.79-6.41.38-9.29-2.25-10.08-8.59-.42-3.41.04-6.78.62-10.12.72-4.17,3.41-6.37,7.48-7.11,2.54-.46,5.1-.73,7.67-.61,2.05.1,2.73-.52,2.28-2.66-2.6-12.16-4.7-24.41-6.35-36.74-2.31-17.23-4.09-34.51-5.16-51.86-1.18-19.11-1.63-38.25-1.2-57.39.74-33.09,4.12-65.77,13.11-97.82,19.1-68.08,77.71-126.7,150.12-145.13,28.77-7.32,57.98-9.43,87.48-9.01,27.63.39,55,3.05,81.91,9.67,28.47,7,55.35,17.7,79.52,34.56,22.36,15.59,39.73,35.67,52.69,59.55,17.79,32.76,27.9,67.89,31.71,104.89,2.84,27.62,1.8,55.3.81,82.96-.66,18.51-2.02,36.98-3.41,55.44-1.22,16.1-2.31,32.21-4.1,48.26-.02.2-.05.41-.07.61q-.48,4.83,4.23,5.21c6.84.55,9.83,3.7,9.91,10.44.13,10.22-4.03,14.69-14.55,14.75-10.49.06-20.99-.28-31.48-.74-2.75-.12-3.87.54-4.81,3.15-8.47,23.71-23.35,41.82-46.63,52.36-8.11,3.67-16.5,5.79-25.45,3.46-9.67-2.53-15.86-10.15-15.63-19.23.19-7.81,6.04-14.51,14.95-16.56,13.71-3.15,24.6-10.55,33.39-21.32.44-.53.81-1.12,1.69-2.33Zm-296.77-191.6c1.95.25,3.72.08,5.09.73,2.28,1.09,4.31.71,6.52.05,7.48-2.24,14.85-4.82,22.14-7.59,16.03-6.08,31.46-13.65,47.72-19.21,23.04-7.88,46.27-10.23,69.96-3.22,10.34,3.06,20.63,6.35,31.4,7.64,13.16,1.58,24.02-2.85,32.75-12.74,1.02-1.15,1.17-2.14.52-3.58-1.48-3.27-2.86-6.6-4.07-9.98-13.3-37.18-17.4-75.55-14.72-114.78.24-3.48,1.09-7.04.63-10.42-.83-6.14-1.31-12.27-1.29-18.44,0-1.75-.79-2.31-2.29-2.6-12.23-2.32-24.55-4.12-36.96-4.92-23.46-1.53-46.89-1.36-70.25,1.69-22.11,2.89-43.65,7.86-64.19,16.72-45.29,19.54-77.3,51.72-93.87,98.59-6.3,17.82-10.1,36.18-12.08,54.95-1.21,11.47-2.07,22.95-2.43,34.47-.06,2.04.42,2.71,2.56,2.38,3.04-.46,6.14-.66,9.22-.79,1.81-.08,2.96-.53,3.76-2.4,1.47-3.41,4.24-5.17,8.06-5.11,2.11.03,4.23,0,7.01,0-1.54-1.31-2.63-2.17-3.65-3.12-2.91-2.71-4.95-5.87-4.37-10.03.63-4.46,3.36-7.42,7.43-9.12,3.91-1.63,7.22-.26,10.15,2.43,2.14,1.96,4.26,3.93,6.64,6.14,0-2.77.02-5.02,0-7.28-.08-6.17,3.76-10.34,9.62-10.43,6.45-.09,10.83,4.03,10.93,10.35.04,2.2,0,4.4,0,7.23,2.5-2.73,4.56-4.99,7.01-6.83,4.95-3.71,9.54-3.28,14.02,1.26,4.04,4.11,4.31,9.28.65,13.9-1.06,1.33-2.27,2.54-3.62,4.03Zm142.13,132.25c1.59.9,3.11,1.76,4.62,2.63,1.12.65,1.7,1.53.98,2.8-.73,1.28-1.8,1.15-2.92.55-1.45-.78-2.96-1.47-4.32-2.38-1.28-.86-2.26-.89-3.57.06-5.3,3.81-11.24,6.32-17.4,8.44-11.18,3.84-22.89,4.81-34.44,6.67-7.12,1.15-14.16,2.57-20.38,6.57-4.67,3-6.75,7.41-6.69,12.78.07,6.41,5.35,11.69,11.38,11.65-1.42-4.22-1.06-8.15,2.12-11.47,1.02-1.07,2.34-2.62,3.9-1.19,1.52,1.39-.02,2.5-.98,3.57-2.95,3.29-2.72,7.56.6,10,2.05,1.51,4.45,1.12,6.95,1.02-.31-1.24-.62-2.3-.85-3.38-.61-2.87.12-5.5,1.57-7.96.65-1.11,1.59-1.69,2.83-1.02,1.15.63.93,1.7.56,2.72-.18.48-.44.93-.61,1.41-2.01,5.46.62,8.7,6.34,7.7,8.5-1.49,16.99-3.04,25.48-4.61,17.07-3.15,34.32-5.22,51.28-9.06,18.5-4.19,32.8-12.93,37.96-32.52.31-1.16,1.04-1.84,2.25-1.53,1.13.28,1.68,1.14,1.55,2.33-.06.51-.19,1.01-.31,1.51-3.15,13.25-11.67,22.09-23.3,28.38-.81.44-1.93.49-2.42,1.67,6.29.69,12.46.53,18.63.67.8.02,1.88.42,1.5-1.32-1.21-5.54,1.63-9.48,5.46-12.94,4.24-3.84,9.55-4.58,14.93-4.87,1.92-.1,2.47-.64,2.13-2.58-.96-5.46-1.96-10.93-2.53-16.45-.97-9.33-1.55-18.72,1.26-27.86,3.99-12.96,12.79-22.34,23.32-30.28,7.61-5.74,15.84-10.32,25.29-12.34,1.29-.27,2.87-.65,3.38,1.11.51,1.74-.77,2.25-2.22,2.62-15,3.83-26.95,12.44-36.87,24.02-5.58,6.51-9.39,13.94-10.34,22.65-1.36,12.45.66,24.6,2.92,36.75.33,1.77,1.2,2.03,2.76,1.99,5.86-.16,11.73-.24,17.6-.28,1.74-.01,4.38-.66,4.29,2.05-.08,2.48-2.68,2.01-4.46,2.04-9.67.18-19.35-.03-29,.75-5.86.47-10.53,2.78-13.18,8.2-1.9,3.89-.1,6.64,4.1,6.8,1.87.07,3.08-.53,4.05-2.12.9-1.49,2.04-2.84,3.11-4.21.79-1,1.74-1.46,2.91-.56,1.21.93.82,1.87.11,2.94-.92,1.4-2.39,2.47-2.85,4.34.77.04,1.28.07,1.79.1,5.65.24,11.45.96,15.07-5.01.55-.9,1.66-.85,2.48-.24.99.74.87,1.68.34,2.74-.5.98-1.79,1.37-1.97,2.82.79,0,1.49.01,2.18,0,9.46-.23,18.94-.46,28.34-1.65,10.7-1.36,21.37-2.89,31.61-6.58,6.66-2.4,10.7-6.99,12.5-13.74,1.52-5.71,2.08-11.52,1.95-17.41-.03-1.58-.13-3.44,2.06-3.4,2.09.03,2.13,1.82,2.11,3.44-.12,7.31-.53,14.59-1.74,21.82-3.22,19.34-11.26,36.26-25.54,49.87-8.24,7.85-17.82,13.4-29.21,15.7-9.14,1.85-13.98,10.48-10.78,18.32,2.27,5.55,6.68,8.5,12.26,9.8,8.14,1.9,15.65-.53,22.98-3.82.99-.45,1.29-1.08,1.05-2.2-.44-2.11-.73-4.25-1-6.39-.2-1.59.58-2.73,1.9-3.59,1.36-.87,2.57-.47,3.71.37,1.65,1.22,3.29,2.47,4.87,3.79.88.74,1.57,1.12,2.67.3,4.71-3.52,9.26-7.2,13.14-11.65.93-1.07,1.03-2.03.47-3.35-1.24-2.93-2.29-5.93-3.41-8.91-.58-1.55-.63-3.06.66-4.29,1.45-1.39,3.25-1.38,4.9-.61,1.76.81,3.49,1.8,4.98,3.03,1.4,1.15,2.06.78,2.76-.59,1.25-2.47,2.47-4.96,3.83-7.38,1.41-2.52,2.02-4.82-.52-7.07-.72-.64-1.1-1.73-1.47-2.68-1.8-4.55.47-7.6,5.22-6.51,2.6.59,2.81-.52,3.24-2.38,5.26-22.52,4.9-45.11.51-67.66-8.64-44.39-35.14-73.9-76.37-91.02-1.66-.69-2.35-.24-3.08,1.21-1.35,2.67-2.96,5.18-5.25,7.18-3.02,2.64-6.17,3.01-9.68,1.11-1.83-1-3.34-2.41-4.71-3.95-3.42-3.84-6.86-7.67-10.15-11.63-1.17-1.4-2.41-2.05-4.2-2.04-5.98.01-11.92.3-17.81,1.45-4.37.85-8.74,1.7-13.07,3.61.98,1.06,1.76,1.87,2.51,2.7,3.13,3.46,5.8,7.22,7.2,11.74,2.04,6.6-.66,9.99-7.5,9.5-6.7-.49-12.65-3.28-18.7-5.88-3.74-1.61-6.94-5.79-11.11-4.7-4.05,1.06-7.22,4.57-10.61,7.27-1.16.93-1.65,1.85-1.62,3.36.15,7.73-.41,15.42-1.56,23.07-.35,2.3-.13,4.34,1.2,6.42,5.44,8.53,7.39,17.96,6.7,27.99-.13,1.84-1.09,4.22-.28,5.37,1.05,1.49,3.64.4,5.54.65,1.38.18,2.86.37,2.77,2.19-.08,1.79-1.48,1.96-2.93,1.88-1.75-.09-3.5-.12-5.24-.22-1.01-.05-1.75.18-2.21,1.23-1.13,2.58-2.35,5.12-3.63,7.88,2.62.78,5.07,1.5,7.51,2.25,1.24.38,1.99,1.15,1.56,2.53-.38,1.23-1.39,1.39-2.5,1.2-.5-.09-1.03-.18-1.49-.39-5.68-2.63-10.09-1.08-13.42,4.06-.05.08-.09.18-.27.57Zm233.3-104c.12-17.6.44-35.22-1.44-52.75-3.5-32.65-11.93-63.99-26.23-93.59-15.21-31.5-37.18-57.07-67.49-75.09-30.07-17.87-62.9-27.52-97.26-32.52-23.69-3.45-47.54-4.2-71.43-3.65-28.84.66-57.34,4.18-84.38,14.59-68.96,26.54-113.2,75.59-131.69,147.32-8.67,33.62-10.28,68.04-10.23,102.57.04,27.81,1.91,55.51,5.34,83.11,1.89,15.2,4.27,30.32,7.34,45.33.51,2.49,1.4,3.53,4.19,3.39,6.16-.3,12.35-.15,18.52-.2,3.79-.03,3.75-.05,3-3.61-4.91-23.26-7.86-46.81-10.19-70.44-1.56-15.87-2.46-31.8-2.86-47.74-.86-34.2-.25-68.32,7.13-101.94,5.77-26.28,15.55-50.86,31.86-72.51,19.11-25.38,43.99-43.24,73.1-55.47,26.64-11.19,54.62-16.52,83.29-18.39,34.16-2.23,68.06-.14,101.42,7.96,27.01,6.56,52.32,16.89,74.7,33.85,17.85,13.52,30.27,31.19,40.15,50.89,19.71,39.3,27.99,81.38,30.21,124.92,1.2,23.56,1.28,47.12.09,70.67-1.38,27.24-3.5,54.39-10.26,80.94-.47,1.86.14,2.13,1.72,2.09,6.79-.17,13.58-.36,20.37-.4,1.97-.01,2.29-.88,2.46-2.59,1.96-19.86,3.55-39.74,4.96-59.65,1.81-25.66,3.43-51.33,3.6-77.07Zm-67.3-2.47c.32-.44.65-.89.97-1.33-4.17-3.8-8.46-7.47-12.49-11.41-9.21-9.02-17.77-18.59-24.73-29.5-15.37-24.09-22.51-50.92-26.51-78.83-.2-1.37.02-2.65,1.51-2.91,1.73-.31,2.26,1.03,2.47,2.47,1.11,7.84,2.64,15.6,4.36,23.32,5.9,26.41,16.37,50.64,34.71,70.91,7.94,8.77,16.45,17.02,24.49,25.7,1.73,1.86,3.39,2.65,5.79,2.68,8.95.1,17.9.48,26.86.1,2.75-.12,3.43-.88,3.32-3.57-1.14-27.7-4.1-55.16-11.37-82-6.84-25.23-16.52-49.25-31.07-71.14-1.29-1.94-2.31-2.61-4.86-1.83-10.88,3.33-19,.13-24.64-9.58-1.21-2.07-1.94-1.48-3.37-.52-10.99,7.37-21.81,5.36-29.54-5.42-2.05-2.85-3.62-5.97-5.05-9.17-.4-.9-.49-1.99-1.58-2.71-.8,1.47-1.5,2.93-2.35,4.28-4.28,6.79-10.29,9.39-17.28,7.39-5.92-1.69-10.21-5.57-13.58-10.58-.82-1.22-1.58-2.49-2.77-4.36-.11,1.43-.17,2.11-.21,2.79-1.28,18.75-.58,37.42,1.78,56.06,2.51,19.86,7,39.22,14.39,57.85,10.84,27.35,28.56,48.57,55.36,61.57,11.2,5.43,23.05,8.56,35.4,9.76Zm-334.36,61.88c2.73-5.19,4.88-10.51,8.64-14.91,4.25-4.96,9.33-8.38,16.18-8.23,4.93.1,7.81,3.32,6.75,8.1-2.97,13.33-14.06,26.21-28.86,28.25-2.44.34-3.18,1.18-3.03,3.45.17,2.56,2.07,1.51,3.23,1.53,8.23.16,16.45-.67,24.69-.22,1.96.11,3.2.67,2.87,2.93-.86,5.79-1.69,11.59-2.57,17.38-.2,1.34-.95,2.37-2.45,2.27-1.77-.11-1.93.92-2.04,2.28-.92,11.49-2.61,22.87-4.64,34.21-.37,2.09.41,2.4,2.23,2.38,5.56-.06,11.12-.12,16.67.15,2.94.14,4.35-.45,4.03-3.75-.15-1.56.5-3.23.94-4.81,2.38-8.56,7.73-15.12,14.32-20.75,1.48-1.26,1.55-2.17.75-3.81-1.22-2.48-2.38-5.06-3.02-7.72-.57-2.36-1.68-2.4-3.48-1.76-1.93.69-3.88,1.36-5.82,2-1.23.41-2.55.67-3.11-.9-.55-1.52.51-2.31,1.74-2.78,2.3-.88,4.62-1.72,6.96-2.48,1.22-.4,1.94-.88,1.7-2.37-.42-2.64-.73-5.29-.98-7.95-.12-1.29-.63-1.8-1.93-1.74-1.95.08-3.91.04-5.86.02-1.07-.01-1.77-.56-1.84-1.66-.08-1.21.49-1.99,1.75-2.08,1.64-.11,3.3-.31,4.93-.19,2.38.17,3.14-.74,3.28-3.13.72-11.71,4.55-22.29,12.1-31.37.96-1.15,1.14-2.19.94-3.61-.93-6.53-1.39-13.1-1.18-19.69.18-5.56.79-11.07,2.48-16.41.85-2.67,2.43-3.85,5.3-3.34,3.04.54,6.06,1.04,8.95,2.21,8.59,3.45,15.6,9.07,21.78,15.81.83.91,1.45,1.87,3.01,1.64,10.23-1.52,20.31-.37,30.29,1.93,1.96.45,3.16-.01,4.53-1.43,2.21-2.29,4.64-4.38,7.13-6.37,7.08-5.66,14.91-9.78,23.91-11.52,2.52-.49,3.71.4,4.08,2.78.31,1.98.62,3.95.96,6.11,21-14.89,43.14-25.74,69.33-25.5,25.89.24,48.55,9.94,69.58,24.17.28-.45.46-.61.46-.76.04-2.26-.09-4.54.11-6.79.18-2.04-.65-2.8-2.54-3.38-28.11-8.63-49.45-25.81-64.33-51.12-1.24-2.12-2.47-4.25-3.87-6.68-.53.67-.87,1.18-1.3,1.62-9.44,9.75-20.74,14.44-34.45,12.87-8.41-.96-16.56-3.05-24.64-5.42-11.16-3.27-22.31-6.37-34.09-6.51-15.23-.18-29.8,3.07-44.02,8.15-22.43,8.01-43.71,19.02-66.64,25.73-1.71.5-1.41,1.13-.73,2.38,4.01,7.49-.34,15.17-8.8,15.64-1.58.09-3.17.01-4.58.01,1.37,1.52,2.66,2.95,3.94,4.4,3.2,3.6,3.68,7.61,1.4,11.63-2.58,4.55-7.41,7.13-11.79,6.12-3.33-.77-5.75-3.08-8.2-5.3-.84-.76-1.39-1.96-2.49-2.12,0,2.28.04,4.43,0,6.57-.08,3.39-1.15,6.92-4.29,7.98-4.75,1.6-4.51,4.8-4.34,8.51.14,2.98.01,5.97.01,8.95,0,6.13,0,12.26,0,18.39Zm160.56,45.16c-1.69-.85-2.86-1.47-4.06-2.04-4.26-2.03-8.54-4.03-12.8-6.07-1.31-.63-2.35-1.51-1.53-3.13.85-1.68,2.06-.74,3.14-.24,4.77,2.17,9.55,4.3,14.28,6.54,5.27,2.49,5.22,2.51,9.08-1.88,1.05-1.19,1.23-1.74-.56-2.16-3.09-.74-6.12-1.73-9.22-2.45-5.8-1.34-11.63-2.54-17.43-3.86-1.29-.29-2.83-.6-2.45-2.49.37-1.85,1.83-1.61,3.19-1.38.2.03.4.09.6.12,9.46,1.43,18.68,3.94,27.87,6.53,1.65.47,2.47.21,3.12-1.29.66-1.5,1.45-2.95,2.19-4.42.74-1.47.26-1.91-1.34-1.94-11.22-.24-22.35-1.61-33.53-2.51-1.82-.15-5.02.64-4.82-2.21.22-3.06,3.33-1.91,5.32-1.76,11.28.87,22.52,2.16,33.84,2.43,1.87.04,2.84-.32,3.11-2.31,1.86-13.65-1.35-25.76-11.12-35.72-10.99-11.21-24.64-17.16-39.99-19.56-1.8-.28-2.36.28-2.31,2.07.06,2.26-.01,4.54-.3,6.78-.32,2.45-1.25,4.89-4.12,5.02-2.88.13-3.9-2.2-4.5-4.64-.65-2.63-.55-5.31-.62-7.98-.03-1.16.03-2.4-1.66-2.32-1.54.07-1.36,1.28-1.36,2.28-.02,2.78-.05,5.59-.83,8.27-.69,2.36-2.01,4.46-4.93,4.22-2.8-.23-3.7-2.48-4-4.78-.28-2.12-.23-4.33.02-6.46.26-2.25-.63-2.4-2.41-1.9-5.66,1.61-11.04,3.83-16.1,6.86-16.01,9.57-26.33,22.98-28.42,41.99-.45,4.12-.54,4.06,3.48,4.35,8,.58,16,1.22,23.99,1.85,1.64.13,3.31.56,2.98,2.64-.28,1.79-1.87,1.44-3.25,1.34-7.59-.58-15.17-1.16-22.77-1.61-4.91-.29-4.92-.19-4.2,4.86.66,4.67.65,4.63,5.22,3.47,6.47-1.66,12.97-3.18,19.61-3.96,1.58-.19,3.3-.28,3.34,2.02.03,1.91-1.63,1.89-2.89,2.08-5.69.85-11.4,1.72-16.9,3.4-8.06,2.46-7.75.22-4.39,9,1.65,4.31,1.77,4.27,5.67,1.6,4.59-3.13,9.35-5.97,14.35-8.4,1.14-.55,2.11-.77,2.93.5.91,1.43-.15,2.08-1.08,2.71-1.02.69-2.12,1.25-3.17,1.9-4.1,2.56-8.15,5.19-12.29,7.68-1.98,1.19-2.36,2.15-.7,4.13,3.68,4.39,8.2,7.34,13.5,9.38,3.31,1.27,7.17,1.16,9.89,3.95.55.57,1.13,0,1.65-.3,5.67-3.39,12-4.67,18.41-5.75,9.62-1.61,19.38-2.41,28.85-4.89,7.76-2.03,15.3-4.6,22.42-9.54Zm-189.67-110.69c-1.45.12-2.33.21-3.22.27-4.65.29-9.65-.18-11.15-5.09-1.5-4.92-4.5-4.15-7.85-3.91-1.95.14-3.89.45-5.84.51-1.59.05-2.13.73-2.12,2.27.04,3.7-.07,7.41-.08,11.11-.04,30.18,2.09,60.22,5.89,90.14,2,15.79,4.32,31.54,7.81,47.1.36,1.62.9,2.25,2.57,2.25,7.3-.03,14.61.01,21.91.11,2,.03,2.56-.39,1.62-2.43-4.97-10.79-7.91-22.22-10.37-33.78-.37-1.75-.36-3.44-2.92-3.36-1.12.03-1.47-1.2-1.65-2.3-.72-4.46-1.44-8.92-2.26-13.36-.48-2.58.34-3.67,3.08-4.01,8.8-1.1,17.65-1.1,26.48-1.47,2.14-.09,3.03-.52,3.01-2.94-.1-15.74-.05-31.48,0-47.22,0-1.5-.31-2.26-1.93-2.89-4.33-1.67-6.64-5-6.64-9.76,0-2.08,0-4.16,0-6.44-3.22,2.64-5.74,6.06-9.73,7.5-3.91,1.42-8.28.12-11.38-3.41-1.89-2.15-2.98-4.65-3.05-7.55-.13-5.37,4.05-7.93,7.78-11.34Zm127.53,165.8c-.89-1.33-1.59-1.07-2.15-1.18-6.88-1.35-12.79-3.97-15.24-11.29-.66-1.96-1.52-.62-2.18-.02-4.38,4.05-9.38,7.05-15.12,8.64-10.09,2.79-18.24-.95-20.92-9.77-.77-2.53-1.95-2.93-4.27-2.98-39.31-.82-78.62-.47-117.94-.43-2.77,0-5.55.29-8.32.47-3.03.19-4.91,1.6-5.54,4.76-.49,2.46-.54,4.91-.5,7.37.07,4.6,1.6,6.01,6.24,5.89,7.41-.19,14.81-.51,22.22-.57,43.53-.33,87.06-.61,130.6-.87,10.88-.07,21.77,0,33.13,0Zm28.16-.97c1.22,0,2.44.01,3.67,0,23.35-.23,46.71-.48,70.06-.69,40.95-.36,81.89.21,122.83,1.21,1.25.03,2.67.6,3.63-.89,2.88-4.48,5.38-9.15,7.05-13.76-10.83,0-21.63-.54-32.35.15-10.87.69-21.7,1.93-32.61,2.13-22.03.41-44.01-1.13-66.02-1.45-2.88-.04-5.71-.34-8.57.33-12.31,2.88-24.79,4.82-37.28,6.71-10.23,1.55-20.4,3.37-30.4,6.25Zm241.71-42.4c.31-.28.44-.34.45-.42,5.38-32.16,6.94-64.58,6.95-97.13,0-2.08-.83-2.29-2.56-2.25-9.05.21-18.11.49-27.16-.03-1.88-.11-2.51.58-2.91,2.21-.8,3.29-1.6,6.6-2.69,9.8-.61,1.79-.34,3,.78,4.46,9.32,12.11,15.95,25.59,20.34,40.21,4.19,13.96,5.99,28.31,6.8,43.15Zm-371.55-16.36c0-.22,0-.45,0-.67-6.79,0-13.57.05-20.36-.03-1.76-.02-2.64.13-2.21,2.29,2.45,12.1,5.58,23.98,11.02,35.14.69,1.42,1.51,1.95,3.05,1.95,7.92,0,15.84.04,23.75.16,1.6.02,2.39-.39,2.68-2.08,1.92-11.34,3.64-22.71,4.66-34.18.19-2.16-.61-2.63-2.55-2.61-6.68.08-13.36.03-20.05.03ZM376.13,110.17c.2,3.39.41,7.39,1.19,11.32,1.49,7.57,4.01,14.7,9.91,20.04,8.8,7.96,18.73,4.98,21.87-6.47.24-.89.42-1.8.54-2.71.8-6.1-.83-12.04-1.18-18.07-.09-1.49-1.56-1.45-2.55-1.81-8-2.89-16.14-5.4-24.44-7.23-5.24-1.15-5.43-2.77-5.33,4.92Zm-167.13,367.22c-1.43-1.18-2.62-1.98-3.59-3-1.43-1.51-2.61-3.21-2.37-5.47.12-1.17.73-1.91,1.95-2,1.16-.09,1.5.64,1.84,1.63,2.47,7.16,8.96,8.73,14.57,3.51-3.42-1.18-6.13-3.03-6.62-6.94-.15-1.17-.03-2.4,1.34-2.77,1.46-.39,2.02.7,2.27,1.87.62,2.9,2.79,4.31,5.33,4.15,2.57-.16,4.78-1.57,5.45-4.6.66-3.03,1.99-5.82,3.81-8.36,1.96-2.74,1.91-2.94-1.37-3.92-8.04-2.42-15.25-6.11-20.32-13.12-.71-.98-1.32-1.48-2.45-.52-8.83,7.53-15.12,16.33-13.81,28.68.8,7.6,5.96,11.6,13.97,10.86Zm227.28-321.94c4.38-.15,8.14-1.79,11.49-4.6,1.21-1.02,1.52-2.04,1.07-3.47-1.33-4.24-1.94-8.61-2.17-13.03-.09-1.64-.74-2.59-2.13-3.37-3.85-2.16-7.56-4.56-11.45-6.65-5.78-3.11-11.77-5.8-17.82-8.36-2.26-.96-2.72-.42-2.26,1.81.52,2.51.81,5.07,1.37,7.57,1.77,7.95,3.98,15.75,8.82,22.47,3.2,4.45,7.39,7.39,13.08,7.63ZM145.87,420.14c0,.33,0,.66,0,.98,8.22,0,16.45-.06,24.67.04,1.96.02,2.99-.29,3.15-2.54.21-3.06.64-6.14,1.32-9.14.56-2.46,0-3.15-2.58-3.13-16.45.13-32.9.65-49.33,1.39-6.75.3-6.74.34-5.44,7.1.19,1.01.4,2.02.46,3.05.11,1.82,1,2.32,2.78,2.3,8.33-.09,16.66-.04,24.98-.04Zm385.18,64.77c6.47.25,12.98,1.32,19.4.11,4.67-.89,6.66-4.86,6.03-11.2-.4-4.06-2.2-5.6-7.32-5.56-10.49.08-20.99.37-31.48.52-1.39.02-1.92.46-2.18,1.87-.74,4.04-1.54,8.08-2.62,12.03-.55,2.03.15,2.26,1.82,2.24,5.45-.05,10.9-.02,16.35-.02Zm-24.52-147.22c4.01,0,8.03.09,12.04-.02,6.3-.18,6.17-.24,6.19-6.65,0-2.65-.59-3.45-3.46-3.31-15.44.72-30.86.48-46.16-2.07-6.56-1.09-6.47-1.12-6.3,5.75.05,2.05.72,2.74,2.72,3.11,11.56,2.15,23.23,3.14,34.97,3.19Zm-359.62-15.91c6.57-.07,12.85-6.44,12.81-12.99-.04-6.9-6.42-13.34-13.21-13.35-6.87,0-12.65,6.12-12.59,13.34.05,7,6.12,13.07,12.99,12.99Zm26.8,43.5c-4.88.27-8.67,2.31-11.7,5.79-5.03,5.78-8.01,12.55-9.72,19.97-.59,2.55.3,2.57,2.28,1.89,11.59-3.99,18.79-12.04,21.97-23.76.74-2.73-.25-3.85-2.83-3.88Zm276.92-229.91c1.06,7.68,2.61,14.42,6.69,20.29,4.19,6.03,10.88,8.11,17.91,5.81,1.49-.49,2.15-.8.92-2.4-7.01-9.09-15.43-16.64-25.52-23.71Zm-130.48,229.61c1.63-10.91,2.28-21.17.74-32.25-6.2,6.16-11.61,12.11-16.29,18.72-.55.78-.41,1.28.35,1.74,5.38,3.2,10.28,7.03,15.2,11.8Zm22.81-36.59c8.17,4.53,15.87,8.74,24.83,9.87,3.82.48,4.59-.46,3.51-4.28-1.58-5.59-5.64-9.41-9.38-13.48-.71-.78-1.43-.53-2.22-.21-5.61,2.24-11.12,4.68-16.73,8.09Zm-124.81,33.1c5.08-4.34,9.83-7.94,15.11-10.74,1.1-.58,1.14-1.14.5-2.11-3.91-5.93-8.14-11.62-12.92-16.88-.4-.44-.97-1.09-1.41-1.06-.84.07-.81,1.01-.95,1.69-1.93,9.46-1.48,18.94-.34,29.11Zm-40.43-75.5c-.3-2.96-2.38-4.71-4.84-6.14-2.23-1.3-4.06-.43-5.9.98-4.31,3.32-7.29,7.72-10.16,12.23-.29.46-.98,1.09-.36,1.62,1.82,1.53,3.36,3.28,4.71,5.23.44.64,1.1.19,1.63-.15,4.22-2.71,8.58-5.23,12.39-8.52,1.53-1.32,2.41-3.03,2.52-5.24Zm-.03,44.49c-.15-1.73-.93-3.04-2.05-4.14-3.77-3.68-8.53-6.08-12.49-9.52-.15-.13-.43-.36-.51-.31-2.34,1.48-3.47,4.16-5.66,5.8-.78.59-.46,1.23-.03,1.87,2.87,4.27,5.76,8.53,9.76,11.86,2.02,1.68,4.28,1.95,6.6.68,2.48-1.37,3.97-3.49,4.39-6.24Zm-54.14,7.2c1.92-.16,3.51-1.03,4.95-2.24,3.67-3.09,5.89-7.32,8.68-11.1.59-.79.27-1.23-.32-1.79-1.4-1.34-2.82-2.69-4.08-4.16-.76-.88-1.32-1.01-2.31-.39-3.9,2.44-7.96,4.64-11.51,7.63-2.21,1.86-3.06,4.02-2.05,6.79,1.05,2.88,3.99,5.2,6.63,5.25Zm-.09-58.35c-2.81.5-4.9,1.97-6.17,4.55-1.23,2.51-.78,4.75,1.1,6.77,3.41,3.65,7.7,6.2,11.99,8.48,3.68,1.96,3.64-3.46,6.21-4.31,1.14-.38,1.07-1.19.37-2.15-2.81-3.92-5.64-7.82-9.24-11.06-1.21-1.09-2.51-2.12-4.26-2.27Zm55.52,23.39c-3.35.28-6.94.5-10.52.88-4.59.49-4.57.54-4.55,5.01,0,.71-.1,1.44-.22,2.14-.14.79-.08,1.42.82,1.7,5.28,1.66,10.55,3.62,16.22,2.6,3.54-.64,5.5-3.73,4.99-7.34-.48-3.38-2.76-5.13-6.74-4.99Zm-38.4,36.01h.11c0,.32,0,.63,0,.94-.01,4.5,2.31,6.87,6.71,6.86,3.98,0,6.48-2.71,6.17-7.07-.3-4.18-.91-8.34-1.4-12.5-.13-1.07-.32-1.94-1.87-1.47-2.08.63-4.24.62-6.38.14-1.26-.29-1.85.17-1.98,1.53-.39,3.87-.9,7.72-1.36,11.58Zm-11.02-29.65c.07-1.31,0-2.25.19-3.14.23-1.11-.19-1.38-1.21-1.54-4.65-.71-9.28-1.65-13.95-2.21-3.61-.43-6.05,2.04-6.33,5.89-.28,3.92,2,6.84,5.63,6.98,4.01.16,7.96-.26,11.88-1.2,2.9-.69,5.56-1.2,3.79-4.79Zm11.37-27.32c.07,0,.14,0,.21,0,.11,2.05.29,4.11.31,6.16.04,2.84.86,4.35,4.16,3.42,1.39-.39,3.1-.07,4.57.31,1.63.43,2.01-.26,2.09-1.58.27-4.41.63-8.83.76-13.24.1-3.46-2.53-5.99-5.99-6.08-3.62-.1-5.82,1.81-6.09,5.47-.13,1.84-.02,3.7-.02,5.54Zm107.27,62.65c-5.37-7.29-17.61-15.01-24.33-15.4,3.29,3.56,6.28,7.2,9.12,10.97,1.94,2.58,2.78,6.99,5.81,7.46,2.85.44,6.12-1.87,9.4-3.03Zm156.74-30.1c4.39,4.47,7.52,8.91,11.64,12.46,2.18,1.87,4.37,1.62,6.33-.28,1.09-1.06,2.03-2.33,2.84-3.62,2.26-3.59,2.22-3.61-1.98-4.8-1.09-.31-2.15-.69-3.25-.95-4.84-1.14-9.64-2.46-15.58-2.8Zm-89.75,17.63c-6.85,1.96-12.62,5.78-17.98,10.29-1.78,1.5-4.94,2.99-4.62,4.87.3,1.72,4,1.7,6,2.88.96.57,1.6.38,2.29-.58,4.39-6.09,9.1-11.93,14.3-17.47Zm170.45,20.45c1.01-3.63,1.86-6.66,2.69-9.7.28-1.04.15-1.68-1.19-1.85-5.24-.66-10.46-1.44-16.19-2.24,5.08,4.51,9.97,8.54,14.69,13.79Zm.85,105.68c-3.75,3.02-7.68,4.81-12.16,6.75,3.44,0,6.26,0,9.07,0,.9,0,1.63-.24,1.84-1.22.36-1.67,1.33-3.19,1.25-5.53Zm2.98,49.53c1.24,2.78,2.27,5.09,3.33,7.48,3.86-3.82,3.16-5.55-3.33-7.48Zm-232.93-151.55c1.22-2.84,1.21-5.77.61-8.74-1.36,2.83-1.07,5.78-.61,8.74Zm13.16.11c.9-2.97.78-5.92-.06-8.86-.64,2.96-.76,5.92.06,8.86Zm200.92,179.69c-1-1.37-2.14-2.25-3.73-2.97-.27,1.65-.08,3.22.82,4.14.72.74,1.72-.5,2.91-1.17Z"/>
    <path class="cls-2" d="m201.05,240.63c-28.74-.18-50.55-25.84-46.3-54.48,2.94-19.81,15.82-34.39,34.26-38.78.6-.14,1.2-.29,1.81-.35,1.03-.11,2.08-.23,2.61,1.02.46,1.1-.24,1.7-.86,2.4-5.51,6.27-8.91,13.54-9.93,21.81-2.54,20.68,11.03,40.45,31.24,45.74,8.31,2.18,16.47,1.77,24.53-1.16,1.11-.4,2.36-1.36,3.37-.06.98,1.26-.09,2.29-.8,3.28-8.9,12.45-24.85,20.67-39.92,20.58Zm-16.19-87.38c-13.43,2.5-26.1,20.93-26.45,38.48-.41,20.81,13.29,39.12,32.62,43.58,14.94,3.45,36.43-2.98,40.65-12.15-40,5.1-66.91-37.38-46.82-69.91Z"/>
    <path class="cls-2" d="m251.29,124.99c1.43.24,2.12,1.08,2.4,2.26.48,2.03,1.49,3.29,3.8,3.15,1.45-.08,2.73.52,2.93,2.11.22,1.76-1.16,2.23-2.55,2.42-2.54.35-3.69,1.99-4.09,4.31-.24,1.39-.53,2.74-2.26,2.78-1.76.04-2.53-1.16-2.73-2.73-.29-2.21-1.26-3.56-3.71-3.64-1.1-.04-2.29-.45-2.44-1.89-.16-1.53.86-2.38,2.1-2.6,2.55-.45,4.02-1.85,4.58-4.3.26-1.16,1.01-1.71,1.98-1.87Z"/>
    <path class="cls-2" d="m364.22,193.13c-.07,1.19-.86,1.83-1.97,1.92-2.4.2-3.41,1.6-3.62,3.81-.12,1.28-.35,2.64-1.88,2.77-1.63.14-2.23-1.16-2.59-2.53-.48-1.82-1.37-3.19-3.48-3.33-1.02-.07-1.74-.63-1.9-1.69-.19-1.26.63-2.01,1.63-2.3,2.18-.63,3.62-1.76,3.86-4.16.09-.87.66-1.55,1.61-1.58.77-.02,1.46.4,1.67,1.14.7,2.54,2.02,4.12,4.95,3.98.94-.05,1.57.88,1.71,1.97Z"/>
    <path class="cls-2" d="m216.35,176c1.05-.11,1.76.41,2.29,1.23.98,1.53,1.67,3.31,3.6,3.99.16.06.36.29.38.46.46,3.43-3.12,3.87-4.49,5.98-.77,1.19-1.91.94-2.82-.11-.34-.39-.72-.73-1.05-1.12-1.16-1.36-3.84-1.78-3.59-3.84.3-2.43,2.86-3.81,4.03-5.94.31-.56,1.02-.63,1.64-.65Zm.13,4.13c-.67,1.06-2.73,1.7-.85,3.24.78.64,1.35.88,2.06.1,1.72-1.86-1.01-2.11-1.22-3.34Z"/>
    <path class="cls-2" d="m348.57,130.43c-1.32,2.04-3.01,4-5.05,5.39-1.53,1.04-2.44-.87-3.45-1.82-.6-.57-1.18-1.16-1.83-1.65-1.54-1.17-1.41-2.36-.1-3.58.37-.35.78-.68,1.21-.96,1.35-.86,1.93-3.21,3.79-2.78,2.11.49,3.08,2.88,4.9,4.02.27.17.3.73.54,1.39Z"/>
    <path class="cls-2" d="m144.16,245.06c1.07.06,5.12,4.19,5.13,5.24,0,1.05-4.43,5.96-5.36,5.92-.97-.04-6.04-4.92-6.04-5.82,0-.97,5.21-5.4,6.27-5.34Z"/>
    <path class="cls-2" d="m272.15,211.41c-.02,2.9-2.87,6.6-5.08,6.58-2-.02-5.16-3.78-5.22-6.22-.06-2.28,2.99-4.79,5.89-4.85,2.51-.05,4.42,1.9,4.4,4.5Zm-4.98,2.62c.97-.46,1.17-1.36,1.32-2.27.17-1.03-.42-1.28-1.27-1.09-.77.17-1.8.29-1.7,1.36.08.92.67,1.68,1.65,2Z"/>
    <path class="cls-2" d="m356.77,240.27c-.02.97-4.65,5.69-5.57,5.68-1.28,0-5.51-4.09-5.52-5.32,0-1.14,4.63-5.63,5.71-5.55.95.08,5.39,4.37,5.38,5.19Z"/>
    <path class="cls-2" d="m470.58,208.62c.01-1.33.64-2.23,1.98-2.27,1.57-.05,2,1.12,2.23,2.44.91,5.26,1.87,10.51,2.79,15.77,5.13,29.23,14.37,57.08,27.74,83.58,1.66,3.29,2.99,6.76,4.38,10.18.56,1.39,1.38,3.14-.63,3.99-2.05.87-2.64-.88-3.19-2.35-4.49-12.04-10.78-23.28-15.61-35.18-8.22-20.27-13.3-41.39-17.3-62.82-.83-4.44-1.59-8.89-2.39-13.34Z"/>
    <path class="cls-2" d="m400.86,221.87c0-1.15.53-2.14,1.88-2.22,1.55-.09,2.04,1.07,2.27,2.39,1.42,8.31,3.65,16.42,6.41,24.37,4.32,12.45,10.15,24.02,20.04,33.11.95.88,1.8,1.92.62,3.15-1.11,1.16-2.26.57-3.28-.26-4.27-3.48-7.6-7.79-10.57-12.37-8.45-13.03-13.06-27.55-16.27-42.59-.39-1.81-.71-3.62-1.1-5.58Z"/>
    <path class="cls-2" d="m260.4,414.02c-2.69,3.33-5.65,5.69-10.12,4.13-2.36-.82-4.05-2.42-4.99-4.72-.4-.97-.52-2.02.62-2.71,1.17-.71,1.98-.11,2.61.79,1.29,1.85,2.73,3.59,5.26,2.86,2.64-.77,3.72-2.99,4.42-5.48.38-1.37-.06-2.27-.92-3.31-1.2-1.44-2.06-3.38-1.37-5.11.77-1.92,2.96-1.4,4.66-1.5.61-.04,1.24,0,1.85.07,1.41.17,3,.12,3.62,1.78.62,1.66-.22,2.97-1.27,4.19-2.24,2.6-2.37,4.67-.49,7.3,2.2,3.09,5.57,3.2,8.01.25.26-.31.46-.68.7-1.02.68-.98,1.59-1.35,2.66-.74,1.13.64.98,1.65.61,2.7-1.88,5.41-9.71,7.08-13.83,2.93-.7-.71-1.3-1.53-2.03-2.39Z"/>
    <path class="cls-2" d="m238.53,397.76c-5.9.03-12.66-4.88-14.33-10.43-.34-1.11-.59-2.32.74-2.96,1.28-.62,2.14.08,2.71,1.22.19.37.38.73.58,1.08,4.51,7.81,11.99,9.1,18.81,3.24.47-.4.86-.89,1.33-1.28.87-.73,1.81-1.02,2.76-.15,1.06.97.79,1.97.04,3.01-2.18,3.04-8.63,6.25-12.64,6.27Z"/>
    <path class="cls-2" d="m285.1,396.99c-4.98-.24-8.84-2-12.17-4.96-.95-.85-1.83-1.81-.73-3.15,1.09-1.32,2.16-.72,3.2.1,7.56,5.98,13.65,4.84,20.54-2.95.96-1.09,1.79-2.62,3.45-1.25,1.49,1.23.71,2.61-.3,3.76-3.87,4.43-8.22,8.08-13.99,8.46Z"/>
    <path class="cls-2" d="m143.38,385.51c-.62,13.12-4.13,12.61-11.74,8.26-10.45-5.97-17.4-14.43-16.28-27.43.31-3.66,1.62-7.02,3.92-9.89,2.37-2.96,4.86-3.31,8.13-1.4,1.8,1.05,3.38,2.39,4.7,3.96,6.68,7.93,10.67,16.97,11.27,26.49Zm-4.28.73c-.05-3.23-.59-5.95-1.47-8.59-2.2-6.6-5.11-12.81-10.3-17.64-3-2.79-4.5-2.48-6.25,1.25-1.56,3.32-2.2,6.84-1.6,10.51,1.34,8.13,6.32,13.65,13.02,17.84,1.68,1.05,3.73,2.98,5.46,1.99,1.77-1.01.86-3.79,1.15-5.36Z"/>
  </g>
</svg>